<svg width="356" height="44" viewBox="0 0 356 44" fill="none" xmlns="http://www.w3.org/2000/svg">
<path d="M103.132 16.6263H118.642C113.327 23.7195 108.826 32.6936 106.494 40.8077H128.837V16.6263H138.815V3.19217H103.132V16.6263ZM78.0785 40.8077H103.783V27.3736H88.2735C93.5878 20.2804 98.0889 11.3063 100.421 3.19217H78.0784V40.8077H78.0785ZM50.0965 21.9999C50.0965 16.465 51.9403 13.617 55.5736 13.617C59.2069 13.617 61.0508 16.465 61.0508 21.9999C61.0508 27.5348 59.2069 30.3828 55.5736 30.3828C51.9403 30.3828 50.0965 27.5348 50.0965 21.9999V21.9999ZM13.7633 18.5607V12.0049H16.9628C19.0777 12.0049 20.1623 13.1334 20.1623 15.2828C20.1623 17.4323 19.0777 18.5607 16.9628 18.5607H13.7633V18.5607ZM13.7633 31.9949V25.0091H17.1797C19.4573 25.0091 20.5962 26.1913 20.5962 28.502C20.5962 30.8127 19.4573 31.9949 17.1797 31.9949H13.7633ZM0.0976562 40.8077H22.0061C29.4354 40.8077 34.4786 36.4013 34.4786 29.953C34.4786 25.9228 32.3095 23.1285 28.0797 21.3551C31.7672 19.6356 33.5026 16.8413 33.5026 13.2947C33.5026 7.2762 28.7847 3.19217 21.8434 3.19217H0.0976562V40.8077ZM55.5736 41.6675C67.3412 41.6675 75.1502 33.8219 75.1502 21.9999C75.1502 10.1779 67.3413 2.3324 55.5736 2.3324C43.806 2.3324 35.9971 10.1779 35.9971 22C35.9971 33.822 43.806 41.6676 55.5736 41.6676" fill="#F8F6FE" style="fill:#F8F6FE;fill:color(display-p3 0.9725 0.9647 0.9961);fill-opacity:1;"/>
<rect x="162.727" y="15.2209" width="2.25556" height="16.9167" transform="rotate(45 162.727 15.2209)" fill="#F8F6FE" style="fill:#F8F6FE;fill:color(display-p3 0.9725 0.9647 0.9961);fill-opacity:1;"/>
<rect x="150.766" y="16.8162" width="2.25556" height="16.9167" transform="rotate(-45 150.766 16.8162)" fill="#F8F6FE" style="fill:#F8F6FE;fill:color(display-p3 0.9725 0.9647 0.9961);fill-opacity:1;"/>
<path d="M210.229 36.5967L193.249 44L176.273 36.5967L178.692 31.8555L193.249 38.2861L207.81 31.8555L210.229 36.5967ZM252.556 14.2461C255.932 14.2461 259.54 15.3278 260.791 17.7422C261.535 19.1624 261.576 20.2973 261.576 21.3848L261.387 32.7305C261.387 33.1078 261.438 36.2784 261.76 38.6865H257.828C257.504 37.508 257.412 36.3721 257.412 35.1406C255.335 39.0684 252.188 39.4443 250.242 39.4443C244.926 39.4442 242.066 36.3719 242.066 32.4482C242.066 30.5531 242.71 27.529 246.138 25.4961C248.631 24.0802 252.33 23.9404 254.177 23.9404C255.285 23.9404 255.983 23.9847 257.322 24.0801C257.322 21.1484 257.321 19.8686 256.49 18.832C255.611 17.6471 253.716 17.2705 252.466 17.2705C248.076 17.2705 247.845 20.3424 247.796 21.2881H243.458C243.592 20.0629 243.73 18.4066 245.069 16.7979C246.831 14.8119 250.107 14.2461 252.556 14.2461ZM283.173 14.2461C286.552 14.2461 290.151 15.3278 291.401 17.7422C292.141 19.1624 292.19 20.2973 292.19 21.3848L292.004 32.7305C292.004 33.1078 292.051 36.2784 292.373 38.6865H288.445C288.123 37.508 288.029 36.3722 288.029 35.1406C285.948 39.0685 282.801 39.4443 280.865 39.4443C275.547 39.4442 272.678 36.3719 272.678 32.4482C272.678 30.5532 273.33 27.5289 276.751 25.4961C279.248 24.0801 282.941 23.9404 284.794 23.9404C285.9 23.9404 286.596 23.9847 287.936 24.0801C287.936 21.1486 287.938 19.8686 287.107 18.832C286.226 17.6472 284.327 17.2706 283.083 17.2705C278.691 17.2705 278.463 20.3423 278.416 21.2881H274.068C274.206 20.0629 274.347 18.4067 275.687 16.7979C277.442 14.812 280.727 14.2461 283.173 14.2461ZM326.052 14.9512H331.229V18.2139H326.052V32.3555C326.052 33.5341 326.052 35.5223 329.15 35.5225C330.03 35.5225 330.858 35.3777 331.229 35.2803V38.7334C330.444 38.8754 329.198 39.0156 327.623 39.0156C323.649 39.0156 321.754 37.8377 321.754 33.9609V18.2139H317.644V14.9512H321.754V9.89258L326.052 8.47656V14.9512ZM231.279 4.55176C235.349 4.55176 238.129 4.79283 240.393 7.2959C242.057 9.04257 242.84 11.3601 242.84 13.9102C242.84 16.5111 242.009 18.7351 240.207 20.5771C238.448 22.3726 236.143 23.5146 230.127 23.5146H224.722V38.6865H220.098V4.55176H231.279ZM269.749 4.55469V38.6865H265.408V4.55469H269.749ZM339.097 14.9512V38.6865H334.746V14.9512H339.097ZM354.61 14.7207C355.107 14.7142 355.537 14.7392 355.905 14.7646V19.1143C355.676 19.023 355.396 18.9712 355.069 18.9287C354.745 18.88 354.335 18.8789 353.824 18.8789C348.694 18.879 347.49 21.9987 347.49 26.0645V38.6865H343.1V19.7734C343.1 18.1687 343.006 16.5125 342.866 14.9502H347.26L347.351 19.5371C348.179 16.2324 350.958 15.1415 352.899 14.8574C353.547 14.7643 354.114 14.7271 354.61 14.7207ZM307.868 14.4785C309.946 14.4786 316.283 15.2854 316.283 22.5645V38.6836H311.843V23.6045C311.843 22.0424 311.659 20.6266 310.598 19.5371C309.483 18.4497 307.961 17.9317 306.483 17.9316C303.338 17.9316 300.428 20.249 300.428 25.0205V38.6836H296.081V17.6953L296.037 14.9512H300.382L300.428 18.7852C300.934 17.7928 302.597 14.4785 307.868 14.4785ZM254.826 27.0078C253.067 27.0078 246.457 27.0088 246.457 31.833C246.457 33.3444 247.38 35.9443 251.268 35.9443C253.485 35.9442 255.148 35.05 256.217 33.3926C257.188 31.7879 257.229 30.4594 257.322 27.1504C256.532 27.055 255.89 27.0078 254.826 27.0078ZM285.439 27.0078C283.68 27.0078 277.072 27.0088 277.071 31.833C277.071 33.3444 277.997 35.9443 281.881 35.9443C284.1 35.9443 285.761 35.05 286.827 33.3926C287.796 31.7879 287.84 30.4594 287.936 27.1504C287.154 27.055 286.503 27.0078 285.439 27.0078ZM193.249 0C202.245 0 209.539 7.46011 209.539 16.6621C209.539 25.8619 202.245 33.3184 193.249 33.3184C184.255 33.3182 176.963 25.8618 176.963 16.6621C176.963 7.46022 184.255 0.000169465 193.249 0ZM193.249 5.15723C187.03 5.1574 181.987 10.3134 181.987 16.6748C181.987 23.036 187.03 28.1942 193.249 28.1943C199.468 28.1943 204.512 23.0361 204.512 16.6748C204.512 10.3133 199.468 5.15723 193.249 5.15723ZM224.722 8.37988V19.5371H230.214C233.273 19.5371 237.943 19.3029 237.943 13.7236C237.943 8.3788 233.595 8.37988 231.187 8.37988H224.722ZM339.51 4.55469V9.5166H334.283V4.55469H339.51Z" fill="#F8F6FE" style="fill:#F8F6FE;fill:color(display-p3 0.9725 0.9647 0.9961);fill-opacity:1;"/>
</svg>
