<svg width="65" height="51" viewBox="0 0 65 51" fill="none" xmlns="http://www.w3.org/2000/svg">
<g clip-path="url(#clip0_2219_11)">
<path d="M39.344 0.0249407C38.47 0.0871407 37.654 0.312139 36.828 0.717739C34.811 1.70354 33.553 3.50344 33.248 5.83944C33.225 6.03494 33.195 6.43734 33.183 6.73344L33.165 7.27524H34.14C35.41 7.27524 35.667 7.31684 35.924 7.56534L36.061 7.69574L35.975 7.76364C35.928 7.80214 35.67 7.94434 35.403 8.08044C34.595 8.48894 34.255 8.79114 33.985 9.33284C33.77 9.76804 33.704 10.0879 33.686 10.7538L33.674 11.3164L35.17 21.3495C35.992 26.8679 36.674 31.3887 36.682 31.3976C36.688 31.4065 36.709 31.3798 36.724 31.3411C36.739 31.303 38.837 26.2998 41.39 20.2276C43.942 14.1525 46.076 9.04564 46.132 8.87384C46.514 7.71914 46.591 6.54674 46.361 5.40994C45.92 3.21044 44.279 1.25954 42.174 0.424441C41.55 0.178841 41.031 0.0661402 40.3 0.0217402C39.803 -0.00775982 39.809 -0.00775928 39.344 0.0249407ZM24.6628 0.0694411C23.9582 0.122741 23.3809 0.24994 22.8124 0.48074C20.8021 1.28914 19.2447 3.02384 18.7296 5.03424C18.41 6.27454 18.475 7.62474 18.9191 8.97774C18.9962 9.21134 28.316 31.2377 28.405 31.3976C28.422 31.4275 28.434 31.4097 28.446 31.3412C28.514 30.9654 31.759 7.95324 31.786 7.66024C31.83 7.18644 31.804 6.09114 31.738 5.67664C31.546 4.42714 31.057 3.29344 30.338 2.41114C30.098 2.12104 29.571 1.61474 29.272 1.38684C28.449 0.765241 27.463 0.338841 26.365 0.137341C26.063 0.0811408 25.047 0.0396411 24.6628 0.0694411ZM12.5984 8.45054C11.2276 8.55444 9.83339 9.12564 8.65489 10.0702C7.49739 10.9997 6.63599 12.6251 6.39319 14.336C6.32499 14.8128 6.32499 15.7008 6.39319 16.1419C6.67439 17.9688 7.62179 19.5142 9.17599 20.6834C9.58769 20.9913 28.325 33.837 28.34 33.8193C28.348 33.8136 26.412 29.3581 24.0377 23.9222C21.6666 18.4868 19.5734 13.6877 19.3868 13.2554C18.8777 12.0744 18.5667 11.5177 18.0576 10.8871C16.6929 9.19674 14.6709 8.29364 12.5984 8.45054ZM51.366 8.50674C50.505 8.59884 49.854 8.77934 49.167 9.11674C47.838 9.77084 46.74 10.9286 45.964 12.5007C45.735 12.9597 36.807 33.7425 36.828 33.7634C36.848 33.7838 55.624 20.8284 55.941 20.5739C57.424 19.3869 58.327 17.88 58.593 16.1419C58.661 15.698 58.661 14.81 58.596 14.3478C58.416 13.1135 57.918 11.9556 57.154 10.9908C56.894 10.662 56.302 10.0759 56.008 9.85694C55.129 9.19684 54.001 8.73174 52.862 8.56334C52.536 8.51564 51.615 8.48014 51.366 8.50674ZM6.85509 22.5636C5.29769 22.7765 3.94779 23.49 2.90869 24.6476C2.22189 25.4115 1.59409 26.5157 1.39289 27.3123C1.02569 28.7774 1.07299 30.2132 1.53189 31.5519C2.14199 33.3248 3.53049 34.8051 5.26539 35.5307C5.79819 35.7554 6.21269 35.8772 6.87009 36.0017L7.19569 36.0639L18.2651 36.0728C24.3547 36.0785 29.332 36.0785 29.323 36.0696C29.317 36.0639 28.34 35.3796 27.15 34.5506C25.963 33.7216 22.0042 30.9597 18.3568 28.4137C14.7095 25.8644 11.5623 23.6856 11.3639 23.57C10.5409 23.0905 9.68849 22.7766 8.72929 22.6077C8.28489 22.5281 7.27849 22.5041 6.85509 22.5636ZM56.711 22.5988C56.106 22.6699 55.6 22.7826 55.112 22.9511C54.741 23.0787 54.108 23.3805 53.753 23.5939C53.614 23.6766 51.825 24.9142 49.783 26.3412C47.74 27.7681 43.77 30.5395 40.96 32.5022L35.857 36.0664L46.822 36.0753C54.62 36.081 57.885 36.0753 58.117 36.0518C60.728 35.7909 62.898 33.8403 63.594 31.1222C63.762 30.4621 63.801 30.1453 63.801 29.3462C63.801 28.4372 63.721 27.9046 63.472 27.1702C62.981 25.7194 61.9 24.3753 60.559 23.5434C59.846 23.1022 59.031 22.7972 58.191 22.6553C57.921 22.6108 56.935 22.5725 56.711 22.5988ZM7.26959 39.1779C5.80989 39.3024 4.80029 39.536 3.77609 39.9803C1.83409 40.8271 0.445493 42.4197 0.0547927 44.2523C-0.0251073 44.6313 -0.0163079 45.4336 0.0725921 45.8481C0.454392 47.6274 1.63849 49.0632 3.43549 49.9246C4.48959 50.428 5.61469 50.7066 7.10669 50.8278C7.65739 50.8723 9.42159 50.8456 9.99329 50.7834C12.3822 50.5225 14.2474 49.7557 15.3192 48.5864C15.7899 48.0742 16.0946 47.4883 16.1422 47.0115L16.1599 46.8281H11.4792L11.4142 47.0173C11.3018 47.3581 11.0086 47.7308 10.68 47.9586C10.3157 48.2106 9.75609 48.394 9.17309 48.4594C8.80589 48.4975 8.19299 48.4772 7.87019 48.4118C6.60929 48.163 5.72979 47.2572 5.41619 45.8867C5.26519 45.2234 5.29749 44.5245 5.50789 43.8853C5.62629 43.521 5.71199 43.3407 5.92239 43.0239C6.61209 41.9817 7.92069 41.5316 9.51929 41.7829C10.4639 41.9308 11.1389 42.3542 11.4053 42.9706L11.4852 43.1565H16.1511V43.0296C16.1479 42.4875 15.7632 41.715 15.2304 41.176C14.1674 40.1077 12.5126 39.4825 10.0583 39.2311C9.64669 39.1868 7.60119 39.1481 7.26959 39.1779ZM55.956 39.19C53.676 39.3913 52.009 40.0368 50.68 41.2264C49.818 42.0021 49.143 43.1389 48.907 44.2225C48.824 44.5989 48.829 45.4603 48.918 45.8601C49.457 48.3052 51.438 50.0223 54.401 50.6177C55.366 50.8126 56.079 50.8659 57.4 50.8456C58.463 50.8304 58.922 50.7923 59.721 50.659C61.651 50.339 63.25 49.5932 64.174 48.5776C64.393 48.3377 64.704 47.8787 64.81 47.6419C64.902 47.4318 65 47.0649 65 46.9259V46.8281H60.328L60.266 47.0115C60.106 47.4819 59.709 47.8996 59.182 48.1484C58.289 48.5718 56.989 48.5985 56.065 48.2131C54.89 47.725 54.108 46.3539 54.173 44.8888C54.215 43.983 54.522 43.2219 55.091 42.6329C55.529 42.1796 56.044 41.9137 56.755 41.774C57.11 41.7061 57.936 41.7061 58.353 41.7772C59.328 41.9404 59.985 42.3542 60.254 42.9706L60.334 43.1565H65V43.0296C65 42.8163 64.884 42.4138 64.736 42.106C64.358 41.3183 63.617 40.6435 62.573 40.1401C61.595 39.6723 60.467 39.3911 58.907 39.2312C58.395 39.1779 56.405 39.1513 55.956 39.19ZM17.3353 44.9626V50.5878H21.5394L21.5451 47.0262L21.554 43.4645L24.2039 47.0262L26.853 50.5878H33.056V39.3379H28.852L28.846 42.8463L28.837 46.354L26.155 42.8552L23.4725 39.3525L20.4053 39.3436L17.3353 39.3379V44.9626ZM34.447 44.9657V50.591L39.163 50.5789C43.929 50.5669 44.007 50.5643 44.794 50.4545C45.807 50.3098 46.66 50.0166 47.26 49.6021C47.684 49.3088 48.071 48.8295 48.252 48.3674C48.394 48.0005 48.436 47.7429 48.436 47.2128C48.433 46.757 48.43 46.7094 48.353 46.4873C48.252 46.2035 48.167 46.0461 47.968 45.7979C47.601 45.3327 46.914 44.9271 46.088 44.6877L45.842 44.6166L46.011 44.5811C46.74 44.4179 47.473 43.82 47.811 43.1186C48.057 42.6095 48.122 41.9227 47.968 41.4516C47.843 41.0727 47.607 40.7649 47.204 40.4659C46.417 39.8736 45.055 39.489 43.329 39.3677C43.068 39.3499 41.227 39.3378 38.675 39.3378H34.447V44.9657ZM42.648 41.665C43.11 41.8871 43.293 42.2807 43.11 42.6685C42.986 42.9408 42.689 43.13 42.308 43.1865C42.189 43.2011 41.401 43.2163 40.466 43.2163H38.828V41.5551L40.643 41.564L42.456 41.5729L42.648 41.665ZM42.689 45.9192C43.228 46.0759 43.595 46.4638 43.595 46.8726C43.595 47.2807 43.228 47.6686 42.689 47.8253C42.536 47.8698 42.304 47.8761 40.659 47.8876L38.799 47.8965V45.848L40.659 45.857C42.304 45.869 42.536 45.8747 42.689 45.9192Z" fill="#020a18"/>
</g>
<defs>
<clipPath id="clip0_2219_11">
<rect width="65" height="51" fill="white"/>
</clipPath>
</defs>
</svg>
