<svg width="214" height="104" viewBox="0 0 214 104" fill="none" xmlns="http://www.w3.org/2000/svg">
<mask id="mask0_10436_27885" style="mask-type:luminance" maskUnits="userSpaceOnUse" x="64" y="41" width="86" height="22">
<path d="M149.867 41.4839H64.3594V62.2856H149.867V41.4839Z" fill="white" style="fill:white;fill-opacity:1;"/>
</mask>
<g mask="url(#mask0_10436_27885)">
<path d="M70.2033 46.6848V49.4012H78.666V54.303H70.2033V62.2794H64.3594V41.4839H80.1941V46.6848H70.2033Z" fill="#020A18" style="fill:#020A18;fill:color(display-p3 0.0078 0.0392 0.0941);fill-opacity:1;"/>
<path d="M110.399 41.4839L104.789 62.2855H98.2457L96.9597 56.1221C96.4347 53.6092 95.9423 51.0657 95.5577 48.5242C95.1508 51.0657 94.6523 53.6112 94.1334 56.1221L92.8454 62.2855H86.2954L80.6875 41.4839H86.7919L88.1369 47.4723C88.7473 50.2192 89.3923 53.0822 89.8888 55.8007C90.3568 53.0822 90.8838 50.2192 91.4373 47.4723L92.6582 41.4839H98.4207L99.6416 47.4723C100.197 50.2192 100.722 53.0822 101.19 55.8007C101.686 53.0822 102.329 50.2192 102.944 47.4723L104.293 41.4839H110.399Z" fill="#020A18" style="fill:#020A18;fill:color(display-p3 0.0078 0.0392 0.0941);fill-opacity:1;"/>
<path d="M119.107 55.2736H116.655V62.2855H110.809V41.4839H120.8C125.592 41.4839 128.776 43.9093 128.776 48.1458C128.776 51.0372 127.287 53.1412 124.833 54.1626L129.594 62.2855H123.083L119.107 55.2736ZM116.655 50.8439H120.365C121.911 50.8439 122.963 49.8692 122.963 48.4367C122.963 47.0043 121.911 46.0418 120.362 46.0418H116.655V50.8439Z" fill="#020A18" style="fill:#020A18;fill:color(display-p3 0.0078 0.0392 0.0941);fill-opacity:1;"/>
<path d="M149.868 51.8837C149.868 58.0206 146.537 62.2855 139.084 62.2855H130V41.4839H139.088C146.537 41.4839 149.868 45.7569 149.868 51.8837ZM143.79 51.8837C143.79 47.8243 141.745 46.3897 138.97 46.3897H135.844V57.3776H138.97C141.745 57.3776 143.79 55.9451 143.79 51.8837Z" fill="#020A18" style="fill:#020A18;fill:color(display-p3 0.0078 0.0392 0.0941);fill-opacity:1;"/>
</g>
</svg>
