<svg width="265" height="356" viewBox="0 0 265 356" fill="none" xmlns="http://www.w3.org/2000/svg">
<path d="M77.8932 50.671C76.5304 51.6802 75.1717 52.6933 73.6857 53.7939C73.3321 51.9941 74.0155 50.5121 74.5836 49.0421C76.9993 42.8043 81.5802 38.2591 86.4751 33.9563C88.561 32.1247 90.5435 30.1819 92.681 28.1953C88.9662 25.1957 85.7957 21.9616 84.568 17.2892C83.2331 12.2037 84.0555 7.45982 86.9956 3.18479C89.3556 -0.247953 92.0135 -0.812128 95.7522 1.0433C100.111 3.20466 104.433 5.42958 108.736 7.69424C109.702 8.20279 110.48 8.15511 111.466 7.78164C118.923 4.97267 126.587 4.38863 134.41 5.84278C136.905 6.30763 139.369 5.88648 141.828 5.5448C148.427 4.63099 154.848 5.66797 161.185 7.37639C162.198 7.65053 162.913 7.58696 163.736 7.02676C166.898 4.87335 170.307 3.14903 173.776 1.55583C177.844 -0.307548 180.506 0.634073 182.647 4.56742C186.513 11.6713 185.246 19.3115 179.068 25.2592C178.039 26.2525 178.094 26.7134 178.909 27.7702C182.957 33.0187 187.761 37.6036 191.968 42.701C194.777 46.106 196.859 49.9479 198.468 54.4256C196.847 53.3847 195.5 52.5185 193.792 51.4259C195.548 55.9632 197.002 60.1826 196.434 64.7874C195.878 69.277 194.885 73.5798 191.706 77.2867C191.36 74.8751 191.952 72.5627 191.178 69.9087C190.2 73.0832 188.826 75.5068 186.978 77.6681C185.385 79.5355 186.422 81.6253 186.66 83.5642C187.383 89.5 191.404 92.3208 196.752 93.779C201.114 94.9709 205.568 95.8052 209.855 97.323C222.049 101.642 229.033 110.029 230.217 123.029C230.348 124.451 230.714 125.56 231.937 126.561C233.801 128.09 235.311 130.077 237.055 131.706C248.04 141.976 253.245 156.017 261.175 168.27C264.243 173.01 265.399 178.453 264.723 184.159C264.473 186.284 263.73 188.231 262.427 189.955C261.875 190.682 261.581 191.171 260.83 189.959C259.729 188.179 259.165 188.247 258.068 190.051C252.895 198.549 245.593 205.053 238.116 211.394C231.195 217.266 224.623 223.5 218.481 230.187C214.766 234.231 210.976 238.185 206.637 241.605C203.558 244.033 200.125 244.514 196.553 243.735C194.432 243.274 194.614 244.609 194.885 245.511C195.771 248.451 195.858 251.455 196.053 254.462C196.466 260.779 196.386 267.041 195.759 273.382C195.02 280.836 192.66 287.518 189.056 293.943C186.223 298.993 183.673 304.193 182.675 309.978C181.769 315.215 181.603 320.356 184.992 324.945C186.513 327.003 188.575 327.944 191.07 328.159C194.495 328.453 197.984 328.02 201.357 328.727C206.788 329.867 211.639 335.648 212.676 341.938C212.859 343.042 213.03 344.162 213.049 345.279C213.129 349.653 211.615 351.791 207.344 352.724C198.83 354.588 190.192 354.759 181.527 354.147C173.362 353.571 165.738 350.941 158.237 347.913C152.973 345.787 152.067 344.309 152.241 338.604C152.524 329.43 151.495 320.4 147.784 311.996C145.865 307.65 145.761 303.875 147.355 299.509C150.064 292.079 149.444 284.666 146.214 277.419C144.911 274.495 143.862 271.451 142.968 268.364C142.797 267.772 142.937 266.819 142.198 266.66C141.474 266.505 141.176 267.379 140.771 267.867C133.183 276.938 126.194 286.434 119.94 296.482C114.326 305.496 109.602 314.901 106.46 325.08C104.624 331.023 103.675 337.106 103.059 343.269C102.828 345.593 102.077 347.71 100.854 349.725C98.8592 353.003 95.5456 353.765 92.2202 354.405C84.9772 355.8 77.6429 355.788 70.3126 355.406C65.8548 355.176 61.3731 355.108 56.9908 354.032C53.0456 353.062 51.3411 351.159 51.2458 347.174C51.1584 343.57 51.9728 340.138 53.5621 336.884C55.4254 333.07 58.735 331.782 62.6962 331.294C67.6347 330.686 71.731 328.58 74.1228 323.916C75.1399 321.929 75.3306 319.74 75.5253 317.602C75.8272 314.313 76.0338 310.991 75.9623 307.694C75.8272 301.297 76.9754 295.103 78.4971 288.945C79.5778 284.574 80.2175 280.144 79.9354 275.313C78.215 277.315 76.5821 279.131 74.7902 280.792C66.6176 288.372 57.3683 293.939 46.2198 295.814C27.4589 298.973 10.7203 291.626 2.48812 273.759C-3.35231 261.085 1.32004 237.93 18.2374 230.6C23.6646 228.248 29.1475 228.077 34.5628 230.477C37.5148 231.784 39.5212 234.06 40.3794 237.31C41.0389 239.81 40.3794 241.856 38.7544 243.699C36.9784 245.717 34.5906 246.913 32.3697 248.32C28.182 250.97 24.8009 254.252 23.5812 259.286C21.7854 266.703 26.4895 273.299 34.0662 274.149C39.9821 274.812 45.457 273.41 50.6816 270.867C61.544 265.583 72.6567 253.795 77.484 242.567C76.4748 241.76 75.1637 241.935 74.0234 241.677C70.0106 240.771 66.6653 238.82 64.0431 235.685C62.434 233.763 60.6699 231.875 59.5177 229.686C57.1339 225.157 53.3873 222.209 49.1798 219.626C42.8387 215.737 36.3149 212.133 30.3235 207.691C19.3697 199.566 10.4502 189.546 2.91324 178.235C2.40866 177.48 2.14644 176.816 2.64307 175.934C9.39731 163.904 14.9318 151.178 23.1283 139.966C25.6313 136.541 28.341 133.252 31.5194 130.47C33.8357 128.444 34.7138 126.096 35.131 123.184C36.2395 115.4 39.3146 108.523 45.3378 103.223C50.3042 98.8566 56.3115 96.6197 62.5889 94.9709C66.3832 93.9736 70.2609 93.3737 73.6857 91.1329C78.4892 87.9902 81.0399 83.4649 82.9152 78.2323C83.7654 75.8643 83.8489 73.9414 82.2 71.7602C81.7988 73.3732 81.4372 74.8393 81.0201 76.5159C78.5051 73.3375 77.0708 69.8054 76.4351 65.9793C75.5888 60.8938 75.6246 55.8639 78.0958 51.124C78.1475 51.0247 77.9727 50.8101 77.9051 50.6472C78.0005 50.7465 77.9488 51.1279 78.2508 50.826C78.1356 50.7704 78.0204 50.7108 77.9051 50.6552L77.8932 50.671ZM154.224 258.213C154.145 258.328 154.069 258.443 153.99 258.555C154.129 258.507 154.268 258.459 154.403 258.411C154.55 258.308 154.701 258.209 154.848 258.106C161.753 253.759 167.466 248.109 172.794 241.991C177.518 236.571 179.147 229.996 180.534 223.051C173.068 229.825 166.159 236.945 156.977 241.121C162.794 234.231 167.84 226.822 172.818 219.364C177.876 211.787 180.836 203.364 182.997 194.175C177.395 198.088 171.769 200.989 165.432 202.824C175.611 190.321 187.399 179.244 193.168 163.59C186.338 167.654 179.274 170.44 171.729 171.985C173.148 170.63 174.67 169.486 176.163 168.322C183.665 162.477 190.88 156.335 196.768 148.814C199.112 145.818 201.599 142.874 202.406 138.925C203.868 131.746 204.003 124.487 203.963 117.208C203.963 116.827 203.697 116.334 204.317 115.996C206.124 120.569 207.392 125.198 207.928 130.017C208.484 135.024 208.043 139.994 207.741 145.008C207.328 151.961 209.978 158.02 215.374 162.712C216.431 163.634 217.007 163.713 218.083 162.66C220.054 160.729 221.882 158.56 224.73 157.102C222.907 161.325 220.71 164.941 218.85 168.719C216.76 172.974 213.999 176.872 212.465 181.437C210.272 187.961 209.418 194.957 205.691 200.949C205.119 201.871 205.83 202.026 206.47 202.304C207.813 202.888 209.255 203.309 210.836 204.636C208.651 204.636 206.919 204.878 205.282 204.588C201.373 203.897 197.407 204.409 193.51 203.809C192.27 203.619 191.944 204.167 191.925 205.355C191.885 207.596 191.67 209.833 191.515 212.073C191.205 216.543 190.526 220.989 191.182 225.495C191.4 226.984 192.012 227.588 193.47 227.557C195.461 227.517 197.451 227.545 199.887 227.545C197.658 230.099 194.94 230.588 192.29 231.653C194.193 232.837 195.806 233.997 197.558 234.887C200.57 236.417 203.089 236.019 205.556 233.719C206.911 232.455 208.206 231.12 209.418 229.726C217.332 220.624 225.736 212.006 234.802 204.048C242.744 197.075 249.169 188.97 253.599 179.335C254.898 176.514 254.874 176.506 257.989 177.138C258.064 177.154 258.172 177.003 258.355 176.856C253.607 166.439 247.806 156.577 241.95 146.359C239.9 154.809 234.516 160.078 227.964 164.428L227.631 163.979C230.92 158.707 232.903 152.879 234.48 146.947C236.959 137.618 237.122 139.879 230.463 133.569C230.328 133.438 230.134 133.371 229.963 133.271C226.347 141.202 222.505 146.49 218.703 148.766C218.687 148.703 218.64 148.631 218.659 148.584C218.858 148.027 219.073 147.475 219.271 146.919C222.053 139.207 224.059 131.376 223.01 123.065C222.482 118.889 221.095 115.071 218.385 111.566C216.454 121.106 214.341 126.668 211.869 128.798C212.076 121.833 212.005 114.944 209.962 108.154C208.798 104.28 206.816 101.999 202.719 101.133C199.617 100.478 196.927 99.6234 195.087 103.199C194.654 104.037 193.728 104.629 193.013 105.317C188.945 109.23 184.225 112.305 179.727 115.667C179.672 115.607 179.612 115.547 179.552 115.488C182.481 110.363 184.678 104.959 185.858 99.1545C186.076 98.0739 186.18 97.0488 185.584 96.0992C184.408 94.212 183.168 92.3725 181.507 90.7912C175.639 98.1335 169.949 105.515 162.424 111.177C162.309 111.034 162.194 110.891 162.075 110.744C163.334 106.064 164.387 101.34 164.82 96.4568C161.797 102.265 157.271 106.775 152.559 111.141C151.757 111.884 151.165 112.083 150.168 111.65C146.532 110.081 142.821 108.674 139.214 107.041C132.599 104.045 125.991 101.018 120.195 96.4886C120.981 97.911 121.847 99.2261 122.718 100.541C124.426 103.132 124.474 103.255 124.323 104.856C116.353 99.8141 112.832 96.7508 106.964 89.6827C106.476 89.0947 105.939 88.753 105.172 88.5822C100.619 87.5492 96.1019 86.4049 92.1327 83.7469C101.525 95.833 112.602 106.179 124.271 115.953C115.24 111.872 106.289 107.689 97.7785 102.615C91.6321 98.9519 84.8223 96.8422 77.7979 93.9578C80.2373 98.8884 83.4357 102.699 86.4036 106.747C85.597 106.982 85.0964 106.556 84.564 106.37C80.1539 104.788 75.6882 103.37 71.2264 101.944C66.6295 100.474 62.2234 100.803 57.9921 102.997C53.7925 105.174 50.0737 108.022 46.8952 111.547C46.8317 111.682 46.7681 111.817 46.7045 111.952C46.8674 111.928 47.0303 111.9 47.1932 111.876C57.6186 110.184 67.5473 112.091 77.6032 115.913C73.2924 116.382 69.3789 116.723 65.4853 117.252C57.8768 118.281 50.5306 120.18 43.7724 124.006C42.362 124.805 41.5594 125.782 41.4879 127.351C41.4045 129.207 40.5065 130.49 39.0524 131.627C35.3932 134.495 32.5802 138.126 29.8785 142.111C33.5457 142.338 36.7798 143.435 39.9702 144.626C44.4399 146.295 48.5719 148.528 51.7782 152.191L51.802 152.167C51.214 152.155 50.6101 152.227 50.0419 152.12C45.5245 151.277 40.9634 151.19 36.3944 151.401C30.4825 151.675 25.2062 153.832 20.3273 157.066C19.8465 157.384 19.3976 157.853 19.1115 158.349C16.1237 163.53 13.7598 169.013 11.0938 174.758C25.4446 168.902 39.5291 164.52 54.3289 171.854C49.736 172.633 45.0676 172.815 40.5582 174.083C35.9772 175.37 31.6545 177.265 26.9464 179.574C39.7596 182.152 51.5239 186.09 61.4526 194.31C48.1468 192.109 34.6582 191.409 21.0225 188.763C25.0711 192.633 28.2535 196.888 32.6835 199.884C37.0698 202.848 41.5197 205.709 46.1205 208.327C54.0865 212.86 61.2262 218.295 66.3951 226.047C68.1552 228.689 70.3682 230.993 72.6885 233.182C74.4088 234.807 76.451 235.602 78.7395 235.856C80.2214 236.023 81.3577 235.638 81.5763 233.89C81.6438 233.349 81.6438 232.523 82.3431 232.491C83.0304 232.459 83.4397 233.147 83.7257 233.759C83.8648 234.053 84.0078 234.394 83.9839 234.7C83.8807 236.055 84.6793 236.154 85.7321 236.134C89.7052 236.051 91.2905 234.501 91.4851 230.441C91.5249 229.587 91.3143 228.391 92.0294 228.037C92.8161 227.648 93.6942 228.518 94.4729 228.979C94.6437 229.078 94.8225 229.193 94.9338 229.348C95.7125 230.429 96.2211 229.805 96.6899 229.066C97.7825 227.346 98.4261 225.53 98.005 223.432C97.7547 222.181 97.6474 220.902 97.4646 219.559C98.5493 219.706 98.6724 221.279 99.7094 220.79C100.885 220.238 101.247 219.026 101.398 217.811C101.62 216.007 100.985 214.426 99.9994 212.963C98.5413 210.806 96.6144 209.082 94.7113 207.334C91.5249 204.401 87.7782 203.241 83.539 204.096C78.0839 205.192 74.1625 203.158 71.3813 198.521C71.0754 198.013 70.7218 197.528 70.4159 197.019C67.6347 192.351 65.3701 187.428 63.3994 182.375C61.4089 177.281 58.8065 172.569 55.2308 168.409C52.9661 165.771 50.5982 163.209 48.7348 160.169C51.2021 161.095 53.6018 162.128 55.9618 163.24C57.3365 163.888 58.5523 163.789 59.9111 163.081C64.3689 160.761 67.599 157.102 70.9046 153.475C71.874 152.41 72.0528 151.941 70.7854 150.96C65.1754 146.621 59.3548 142.64 53.0019 139.446C50.7134 138.297 48.2223 137.554 45.8781 135.965C48.0395 135.373 49.9942 135.119 51.9768 135.111C60.2329 135.075 68.3062 136.331 76.1808 138.786C77.4204 139.171 78.1157 138.969 78.8706 137.991C81.1074 135.095 83.0662 132.072 84.0594 128.5C84.3256 127.542 84.7071 126.616 85.1838 125.25C85.7679 127.602 86.4234 129.417 86.63 131.285C86.9638 134.277 88.6603 136.347 90.6627 138.333C96.0264 143.649 102.165 147.853 108.899 151.218C112.558 153.045 116.321 154.575 120.481 155.239C109.563 143.657 100.778 130.625 93.0625 116.402C104.39 123.657 114.505 132.044 125.455 139.354C123.047 138.818 120.6 139.39 117.997 138.544C125.042 150.137 134.255 159.601 142.833 169.887C125.447 168.572 109.543 163.729 94.7391 155.294C94.6119 155.231 94.4848 155.167 94.3577 155.103C94.4133 155.239 94.4649 155.378 94.5206 155.513C102.884 168.358 114.966 177.563 126.19 187.77C116.603 185.756 108.506 181.981 96.8846 174.154C96.5747 173.809 96.3482 173.32 95.5973 173.396C95.9906 173.837 96.2846 174.17 96.5826 174.504C100.015 179.621 104.143 184.171 108.55 188.426C116.376 195.99 122.28 204.898 127.402 214.402C127.326 214.477 127.247 214.557 127.171 214.636C122.296 211.815 117.767 208.426 112.503 205.661C120.934 218.109 124.478 231.506 123.369 246.186C118.76 238.935 115.61 230.751 109.106 224.712C107.246 229.634 104.588 234.033 101.823 238.367C101.207 239.333 101.096 240.159 101.382 241.303C102.979 247.664 105.351 253.747 107.771 259.822C108.649 262.027 109.424 264.28 110.131 266.548C110.83 268.801 111.386 271.098 112.117 273.799C105.077 266.739 99.475 259.083 93.3882 251.721C92.0731 256.445 90.9051 260.915 89.5463 265.325C89.1251 266.699 89.3754 267.665 90.1343 268.777C93.3803 273.537 97.2262 277.84 100.528 282.548C103.567 286.887 106.468 291.313 107.509 296.648C107.421 296.732 107.334 296.819 107.25 296.907C100.409 291.932 94.1789 286.072 86.4791 282.306C85.9665 285.75 85.5652 289.032 84.9494 292.27C84.7269 293.446 84.9176 294.253 85.6487 295.155C88.6166 298.794 91.5924 302.437 93.9127 306.541C94.6993 307.932 95.5655 309.311 95.8515 311.126C92.2122 308.929 88.6245 307.125 84.8421 305.691C83.1814 305.059 82.8437 305.353 82.7364 307.121C82.2755 314.933 81.4054 322.68 77.492 329.693C76.8284 330.884 77.5674 330.853 78.3621 330.876C81.3339 330.968 84.2223 331.56 87.0829 332.609C83.1417 332.958 79.1885 332.696 75.2829 333.014C67.1302 333.678 62.9226 336.828 63.2246 344.953C63.4074 349.9 64.345 349.908 67.9844 350.059C68.5764 350.082 69.1683 350.182 69.7524 350.289C70.8489 350.488 71.2741 350.158 71.139 348.958C70.8092 345.962 71.735 343.185 73.0421 340.567C74.6472 337.345 77.1622 335.044 80.5989 333.813C79.1686 335.469 77.8734 337.202 77.0311 339.212C75.6365 342.541 74.5002 345.903 75.863 349.57C76.2563 350.623 76.7569 351.199 77.9806 351.211C80.428 351.235 82.8794 351.417 85.3189 351.151C91.7036 350.448 95.8198 346.602 96.2369 340.209C96.3442 338.568 96.5111 336.9 96.9163 335.31C100.19 322.529 104.342 310.002 111.168 298.679C116.766 289.39 117.485 279.636 115.856 269.441C114.839 263.06 113.234 256.775 111.939 250.434C111.517 248.364 111.255 246.262 110.902 244.18C110.556 242.118 110.186 240.06 109.829 238.002C118.454 250.219 123.496 263.394 120.918 279.012C126.806 272.325 131.724 265.531 136.802 258.864C137.43 258.042 138.077 257.549 139.19 257.371C145.988 256.274 152.667 254.724 158.948 251.78C159.186 251.669 159.48 251.339 159.77 251.816C158.312 254.033 156.358 255.825 154.598 257.784C154.47 257.919 154.339 258.05 154.212 258.185L154.224 258.213ZM122.09 66.0826C120.548 66.7541 120.071 67.5725 121.271 69.122C122.348 70.5126 122.205 70.6199 123.19 70.4927C126.444 68.8876 129.643 67.1593 133.155 66.1184C130.449 68.1248 127.688 70.016 124.903 71.8754C123.874 72.5627 123.341 73.2302 123.834 74.6208C124.49 76.4683 124.911 78.4151 125.272 80.35C126.19 85.2408 128.578 88.8881 133.496 90.521C134.927 90.9978 136.325 91.5858 137.775 91.9672C145.753 94.0571 153.541 91.4269 157.78 85.2329C158.36 84.3866 158.797 83.441 159.488 82.2014C159.5 84.9428 158.594 87.0367 157.844 89.1781C160.605 87.4896 161.26 84.7919 161.241 81.9193C161.189 73.8977 150.263 64.5768 141.319 70.2782C137.942 72.4316 134.327 74.2155 131.121 76.659C130.691 76.9848 130.183 77.6125 129.615 76.8815C129.198 76.3451 128.983 75.6975 129.464 75.0618C129.742 74.6963 130.012 74.287 130.378 74.0407C135.141 70.8622 139.917 67.6917 145.312 65.6535C145.968 65.4072 146.29 65.2443 146.314 64.4974C146.345 63.3809 146.504 62.2645 146.667 61.16C146.806 60.2184 146.643 59.6423 145.587 59.2688C140.731 57.5604 136.909 54.3461 133.465 50.6393C133.044 50.1863 132.122 49.7572 132.885 48.8593C136.091 47.1271 139.154 47.9137 142.134 49.4513C147.823 52.3914 153.215 51.4458 158.662 48.2793C155.416 45.657 153.517 42.1766 151.665 38.6644C151.077 37.5519 150.446 36.4633 151.03 35.1164C151.32 34.445 150.903 34.0278 150.33 33.6861C147.772 32.1406 146.997 29.6296 146.544 26.5147C147.835 27.6312 148.88 28.5211 150.072 29.2164C151.348 29.9594 152.341 30.0945 153.588 28.9462C155.976 26.7531 158.741 25.0407 161.586 23.4674C163.454 22.4304 165.424 22.0967 167.518 22.3033C170.247 22.5694 171.749 24.3851 171.638 27.4603C168.456 26.1452 165.508 26.626 162.548 28.7198C164.904 29.4031 167.224 29.6217 169.373 30.9646C167.482 32.522 165.865 34.1669 164.868 36.3997C164.268 37.7347 162.842 38.4697 161.391 38.8511C160.315 39.1372 161.137 38.3227 160.994 38.0565C161.932 37.0394 162.297 35.7919 162.428 34.4569C162.639 32.3035 162.166 31.8625 159.866 32.0214C160.506 34.2026 160.017 35.8912 158.288 36.7136C156.663 37.4884 155.249 37.1427 154.24 35.4899C153.704 34.6119 153.362 35.4303 153.243 35.8078C152.98 36.6381 152.889 37.5082 153.751 38.1241C155.607 41.4297 157.732 44.5525 159.993 47.5879C160.505 48.2713 161.082 48.8951 161.113 49.8089C159.186 54.7355 155.17 57.3379 150.561 59.2608C149.421 59.7376 147.811 63.9213 148.507 64.8629C148.614 65.0099 148.813 65.1092 148.992 65.1768C153.219 66.7541 157.085 68.9234 160.47 71.9469C161.372 72.7534 163.223 71.9668 164.153 70.6795C165.059 69.424 164.069 68.9393 163.314 68.3274C162.281 67.4931 161.252 66.6508 160.223 65.8125C161.976 66.3091 163.553 67.06 165.047 67.95C166.278 68.681 166.938 68.1288 167.272 67.06C167.574 66.0866 168.142 64.9503 166.461 64.4298C164.411 63.7941 162.413 62.9836 159.977 62.1016C162.27 61.8314 164.034 62.2526 165.734 62.6459C167.367 63.0233 167.721 62.8684 167.446 61.1163C167.248 59.825 166.465 59.9124 165.682 59.7654C164.423 59.527 163.064 59.8568 161.499 59.1297C163.513 58.5656 165.225 59.0384 166.938 58.7364C165.964 55.3474 163.676 52.884 161.646 50.2539C162.246 49.8089 162.635 50.3492 163.048 50.5956C164.578 51.5014 165.881 52.7649 167.597 53.3926C168.523 53.7303 169.425 54.0482 169.993 52.9317C170.577 51.7835 169.405 51.6603 168.849 51.2471C167.18 50.0075 165.293 49.0421 163.577 47.1271C164.371 47.282 164.741 47.3297 165.098 47.429C171.372 49.1851 176.883 44.2068 175.798 37.7506C175.524 36.1137 175.21 34.4847 174.844 32.4783C175.365 32.9153 175.575 33.0624 175.75 33.2411C180.534 38.136 181.448 44.0877 178.237 50.1347C177.125 52.2325 175.846 54.2508 174.507 56.2135C173.927 57.0637 174.284 57.5445 174.773 58.0967C175.035 58.3907 175.186 59.0383 175.822 58.5219C177.53 57.1273 179.62 56.1579 180.415 53.8098C180.999 52.0855 181.674 50.3969 181.841 48.3627C183.204 52.4033 182.552 57.2068 180.276 60.719C179.354 62.1387 179.639 63.2352 181.13 64.0087C181.217 64.0564 181.249 64.2153 181.313 64.3345C180.462 64.4854 179.624 64.6483 178.782 64.7834C177.975 64.9145 177.129 64.6324 176.485 65.5542C173.072 70.449 169.238 75.0697 166.807 80.6559C167.017 80.64 167.244 80.6956 167.387 80.6082C170.756 78.5184 174.129 76.4404 177.467 74.3069C182.318 71.2119 186.168 67.3937 186.525 60.8421C187.622 62.5347 187.812 64.1676 188.281 66.1263C188.5 65.1092 188.718 64.4894 188.762 63.8577C189.326 55.2441 187.848 47.1151 182.783 39.9239C179.266 34.9337 176.203 29.713 173.863 24.0594C170.645 16.292 165.126 11.3137 156.568 10.0741C150.132 9.14044 143.711 8.2902 137.394 10.7138C136.862 10.9164 136.409 10.7416 135.884 10.5628C126.961 7.54723 118.49 8.63586 110.484 13.4989C106.189 16.1052 103.472 20.2571 100.349 24.0156C95.1801 30.2256 90.1621 36.5428 86.5188 43.8056C83.1814 50.4565 81.0637 57.4491 81.0518 64.99C82.3709 61.7798 83.833 58.641 85.4302 55.5699C85.4977 55.6295 85.5652 55.689 85.6328 55.7486C85.6209 57.465 85.5255 59.1854 85.605 60.8978C85.9109 67.5288 88.9821 73.2977 93.9206 76.504C92.6294 72.6223 92.2877 68.7049 92.2678 64.7199C95.4026 71.5774 100.711 76.1107 107.417 79.0905C110.91 80.64 114.501 81.967 117.914 83.7072C118.065 83.8026 118.315 84.0131 118.351 83.9813C118.601 83.7509 118.454 83.5483 118.24 83.3774C117.155 80.195 114.942 77.4734 114.195 73.8778C115.387 74.7281 116.365 75.3995 117.31 76.1107C118.22 76.7901 119.098 77.5132 120.095 78.2959C119.376 75.2724 117.386 72.9998 113.941 70.4451C109.034 66.8018 103.194 64.4696 99.0578 59.5946C98.7757 60.8064 99.6498 61.5772 99.8008 63.0075C94.608 57.326 92.3393 51.3028 94.163 44.036C96.1416 36.1494 101.744 30.4441 106.158 23.9878C105.86 25.732 105.411 27.4087 104.878 29.0575C103.162 34.3894 101.021 39.5703 100.345 45.2279C99.7094 50.5638 100.766 54.9342 105.752 57.7352C107.076 58.4781 108.347 59.3165 109.694 60.0118C111.923 61.1639 114.187 62.2287 116.198 63.7743C118.784 65.7608 118.816 65.7131 121.756 63.7862C124.593 63.3094 127.43 62.8326 130.27 62.3598C130.31 62.491 130.35 62.6221 130.39 62.7492C127.624 63.8656 124.859 64.9821 122.094 66.0985L122.09 66.0826ZM189.286 273.358C188.063 275.234 187.093 276.918 185.929 278.456C181.432 284.391 175.917 289.362 170.51 294.419C165.921 298.714 161.189 302.846 157.549 308.047C156.501 309.545 156.072 311.035 156.461 312.874C158.094 320.622 158.932 328.481 159.461 336.371C159.623 338.835 160.668 340.487 162.671 341.902C170.383 347.365 179.072 349.272 188.325 349.355C189.533 349.367 189.815 348.835 189.723 347.798C189.545 345.815 189.39 343.829 189.211 341.628C190.761 342.557 191.118 344.091 192.334 345.227C192.088 342.708 191.527 340.535 190.685 338.469C189.501 335.557 187.205 333.88 184.117 333.34C180.021 332.621 175.865 332.712 171.137 332.521C174.284 331.206 177.097 330.996 179.934 330.447C179.692 329.943 179.521 329.518 179.294 329.124C175.579 322.616 175.126 315.564 176.024 308.357C176.696 302.982 179.278 298.373 182.365 294.006C186.664 287.931 189.239 281.249 189.294 273.362L189.286 273.358ZM159.167 295.349C167.224 292.187 172.306 285.794 177.228 279.23C173.573 281.463 169.715 283.402 168.281 283.462C175.007 278.233 180.16 271.709 184.642 264.641C186.577 261.59 188.734 258.562 189.275 254.86C190.192 248.598 188.325 242.793 186.275 236.961C186.037 237.132 185.89 237.183 185.834 237.283C181.571 245.28 176.104 252.392 169.814 258.884C166.592 262.21 163.275 265.444 159.985 268.706C159.059 269.624 158.888 270.45 159.302 271.829C160.776 276.739 161.936 281.741 161.507 286.95C161.268 289.87 160.283 292.572 159.159 295.357L159.167 295.349ZM97.2739 200.671C97.6712 195.633 97.6712 191.072 93.6227 187.401C90.9448 184.969 88.6007 182.152 86.193 179.435C82.6411 175.43 79.84 170.916 77.4681 165.942C75.0644 169.267 72.2077 171.89 68.8545 173.924C67.9406 174.48 68.3698 175.017 68.5684 175.545C69.5498 178.183 70.6106 180.793 71.5959 183.432C73.2964 187.989 75.1121 192.47 78.2707 196.284C79.1686 197.369 80.0029 198.048 81.5445 197.917C83.6423 197.743 85.7679 197.977 87.8736 197.838C91.2626 197.615 94.1948 198.76 97.2779 200.671H97.2739ZM201.639 168.378C199.994 173.578 198.166 178.541 195.922 183.328C193.863 187.714 192.695 192.331 192.131 197.115C192.076 197.58 191.643 198.41 192.707 198.394C194.555 198.362 196.402 198.223 198.25 198.231C198.981 198.235 199.136 197.762 199.35 197.317C200.566 194.775 201.826 192.252 202.374 189.447C203.407 184.19 203.768 178.747 206.514 173.948C206.808 173.435 206.486 173.221 206.168 173.006C204.4 171.806 203.081 170.153 201.635 168.378H201.639ZM92.5777 8.18292C94.7351 11.0833 97.4328 12.7083 100.274 14.1664C102.955 15.5411 102.908 15.5371 105.077 13.344C105.892 12.5215 106.042 12.1004 104.819 11.572C101.346 10.0741 98.2275 7.94454 95.0689 5.8984C92.1089 3.97941 90.6548 4.41645 89.2404 7.67834C89.0298 8.15909 88.8589 8.66764 88.7516 9.18414C87.4922 15.0921 89.7211 19.7366 93.9167 23.7455C95.1563 24.9295 95.633 24.115 96.2608 23.2488C96.8409 22.4463 96.0423 22.0529 95.7085 21.5682C92.987 17.6309 91.0243 13.5227 92.5817 8.1869L92.5777 8.18292ZM202.743 344.862C202.795 342.998 202.203 341.21 202.064 339.391C201.774 335.577 196.275 332.096 191.69 332.911C190.613 333.101 190.55 333.614 191.051 334.413C191.436 335.028 191.869 335.612 192.231 336.236C194.026 339.335 195.743 342.446 195.23 346.252C194.797 349.474 194.908 349.546 198.289 349.117C198.615 349.077 198.937 348.982 199.259 348.934C202.719 348.402 202.747 348.37 202.739 344.858L202.743 344.862ZM40.8522 289.938C38.6153 286.994 37.626 283.962 38.818 280.534C39.0444 279.886 38.8339 279.767 38.2419 279.695C35.7031 279.393 33.1087 279.564 30.6255 278.825C29.9063 278.611 29.7156 279.123 29.3978 279.528C27.3834 282.103 27.5304 286.875 29.6958 289.318C30.0653 289.731 30.5102 289.954 31.0625 290.029C34.2052 290.462 37.3479 290.685 40.8522 289.938ZM5.76193 265.082C8.62652 261.236 12.1507 259.19 16.668 258.968C17.1408 258.944 17.5183 258.853 17.7805 258.336C19.2466 255.444 18.0745 252.504 14.9993 251.467C10.3469 249.901 5.26132 253.548 4.9395 258.698C4.81236 260.768 5.30503 262.758 5.76591 265.086L5.76193 265.082ZM58.743 272.925C56.1923 274.562 53.8084 275.698 51.3093 276.545C50.1055 276.954 49.6883 277.653 49.7002 278.881C49.732 281.455 50.7571 283.593 52.2827 285.579C53.0217 286.541 53.8005 286.628 54.8533 286.104C56.9312 285.071 58.8185 283.744 60.7255 282.441C61.691 281.781 61.7267 281.177 61.1586 280.164C59.9428 277.999 58.7112 275.802 58.739 272.925H58.743ZM16.6998 284.03C17.0892 280.208 18.7619 277.411 21.6662 275.357C22.2939 274.912 22.5721 274.495 21.992 273.756C20.812 272.246 19.6836 270.692 18.5791 269.127C17.999 268.308 17.4229 268.245 16.5965 268.781C13.9902 270.478 11.9599 272.687 10.5018 275.428C10.0092 276.35 10.1164 277.105 10.8077 277.943C12.5321 280.037 14.3517 282.027 16.6959 284.026L16.6998 284.03ZM166.624 10.821C169.25 13.6976 169.33 13.7572 172.401 12.0686C173.605 11.4091 174.662 10.4714 175.77 9.64502C177.51 8.34582 177.88 8.45707 178.063 10.6462C178.333 13.8764 177.987 17.0469 175.865 19.6612C174.872 20.8849 175.754 21.608 176.366 22.1642C177.165 22.8913 177.59 21.7947 177.943 21.3259C181.316 16.8641 182.449 12.152 179.525 6.95922C178.48 5.10379 177.804 4.6747 175.949 5.63618C172.846 7.24528 169.834 9.02522 166.62 10.821H166.624ZM63.8921 335.918C57.1895 336.216 55.6003 342.641 57.2094 347.818C57.3762 348.354 57.4915 349.133 58.2503 349.049C59.037 348.966 59.2436 348.219 59.2277 347.54C59.1045 343.034 60.6659 339.188 63.8921 335.914V335.918ZM206.776 347.444C209.807 342.883 207.225 335.708 202.247 335.056C205.127 338.727 206.259 342.919 206.776 347.444ZM76.4033 258.415C70.988 263.076 70.3165 264.983 72.3309 269.862C73.9321 266.147 75.2829 262.42 76.4033 258.415ZM157.923 89.5675C157.859 89.4761 157.8 89.3847 157.736 89.2934C157.577 89.349 157.327 89.3649 157.283 89.4682C157.184 89.7145 156.401 89.8099 157.041 90.1913C157.168 90.2668 157.617 89.79 157.919 89.5675H157.923Z" fill="#020A18"/>
<path d="M162.425 111.193C169.946 105.531 175.639 98.1492 181.507 90.807C183.168 92.3883 184.408 94.2278 185.584 96.115C186.18 97.0686 186.076 98.0936 185.858 99.1703C184.678 104.975 182.477 110.378 179.552 115.508C179.417 115.639 179.235 115.762 179.489 115.937C179.505 115.945 179.644 115.774 179.727 115.686C184.225 112.321 188.945 109.25 193.013 105.337C193.728 104.649 194.654 104.057 195.087 103.219C196.931 99.6471 199.617 100.501 202.72 101.153C206.816 102.019 208.794 104.3 209.962 108.173C212.005 114.959 212.076 121.849 211.87 128.817C214.341 126.688 216.454 121.126 218.385 111.586C221.099 115.086 222.486 118.909 223.01 123.084C224.059 131.396 222.053 139.227 219.271 146.939C219.069 147.495 218.858 148.047 218.66 148.603C218.644 148.651 218.687 148.727 218.703 148.786C222.505 146.51 226.347 141.221 229.963 133.291C230.134 133.39 230.328 133.458 230.464 133.589C237.122 139.898 236.963 137.638 234.48 146.966C232.903 152.898 230.916 158.727 227.631 163.999C227.333 164.361 227.039 164.726 226.574 165.29C227.357 165.175 227.674 164.837 227.964 164.448C234.516 160.098 239.9 154.829 241.95 146.378C247.806 156.597 253.607 166.458 258.355 176.876C258.172 177.019 258.061 177.17 257.989 177.158C254.874 176.526 254.898 176.534 253.599 179.355C249.169 188.986 242.744 197.095 234.802 204.068C225.74 212.026 217.332 220.643 209.418 229.746C208.202 231.14 206.907 232.479 205.556 233.739C203.089 236.039 200.57 236.44 197.558 234.907C195.806 234.017 194.193 232.853 192.29 231.673C194.94 230.608 197.658 230.119 199.887 227.564C197.451 227.564 195.461 227.533 193.47 227.576C192.016 227.608 191.4 227.004 191.182 225.514C190.526 221.009 191.205 216.559 191.515 212.093C191.67 209.856 191.885 207.616 191.925 205.375C191.945 204.187 192.274 203.639 193.51 203.829C197.407 204.429 201.373 203.917 205.282 204.608C206.919 204.898 208.651 204.656 210.836 204.656C209.251 203.329 207.813 202.907 206.47 202.323C205.834 202.045 205.119 201.89 205.691 200.969C209.422 194.977 210.276 187.981 212.465 181.457C213.999 176.892 216.756 172.994 218.85 168.739C220.71 164.957 222.907 161.345 224.73 157.122C221.882 158.58 220.054 160.745 218.083 162.68C217.011 163.733 216.435 163.649 215.374 162.732C209.974 158.035 207.324 151.981 207.741 145.028C208.039 140.01 208.484 135.043 207.928 130.037C207.392 125.218 206.124 120.589 204.317 116.016C203.697 116.354 203.959 116.847 203.963 117.228C204.003 124.507 203.868 131.765 202.406 138.945C201.603 142.894 199.116 145.838 196.768 148.834C190.88 156.355 183.665 162.493 176.163 168.342C174.67 169.506 173.148 170.65 171.729 172.005C179.274 170.459 186.338 167.674 193.168 163.61C187.399 179.264 175.611 190.341 165.432 202.844C171.765 201.012 177.391 198.108 182.997 194.195C180.836 203.384 177.876 211.807 172.818 219.384C167.84 226.841 162.794 234.251 156.977 241.14C166.159 236.965 173.068 229.845 180.534 223.071C179.147 230.012 177.514 236.591 172.794 242.011C167.462 248.129 161.749 253.779 154.848 258.125C154.784 258.014 154.705 257.915 154.609 257.827C156.37 255.869 158.324 254.077 159.782 251.86C159.492 251.383 159.198 251.713 158.96 251.824C152.679 254.768 145.996 256.314 139.202 257.414C138.089 257.593 137.442 258.086 136.814 258.908C131.736 265.579 126.818 272.369 120.93 279.056C123.508 263.437 118.462 250.263 109.841 238.045C110.198 240.103 110.568 242.165 110.914 244.224C111.263 246.309 111.529 248.411 111.951 250.477C113.246 256.814 114.851 263.104 115.868 269.484C117.497 279.683 116.778 289.433 111.18 298.722C104.354 310.046 100.206 322.573 96.9283 335.354C96.523 336.943 96.3562 338.612 96.2489 340.253C95.8317 346.646 91.7156 350.492 85.3309 351.195C82.8914 351.461 80.44 351.278 77.9926 351.254C76.7689 351.242 76.2683 350.666 75.8749 349.613C74.5122 345.946 75.6485 342.585 77.043 339.256C77.8853 337.245 79.1805 335.509 80.6108 333.856C77.1741 335.088 74.6631 337.388 73.054 340.61C71.7469 343.229 70.8212 346.006 71.1509 349.002C71.2821 350.202 70.8609 350.535 69.7643 350.333C69.1803 350.225 68.5883 350.126 67.9963 350.102C64.353 349.951 63.4193 349.943 63.2366 344.997C62.9346 336.868 67.1421 333.721 75.2949 333.058C79.2004 332.74 83.1536 333.002 87.0949 332.652C84.2343 331.604 81.3459 331.012 78.374 330.92C77.5794 330.896 76.8364 330.928 77.5039 329.736C81.4174 322.724 82.2875 314.972 82.7484 307.165C82.8517 305.397 83.1934 305.107 84.8541 305.735C88.6365 307.173 92.2242 308.973 95.8635 311.17C95.5774 309.354 94.7113 307.976 93.9246 306.585C91.6044 302.477 88.6285 298.837 85.6606 295.198C84.9296 294.3 84.7349 293.494 84.9614 292.314C85.5772 289.076 85.9785 285.794 86.491 282.349C94.1869 286.116 100.417 291.98 107.262 296.95C107.393 296.998 107.524 297.05 107.656 297.101L107.521 296.696C106.48 291.36 103.579 286.93 100.54 282.596C97.2382 277.883 93.3923 273.585 90.1462 268.825C89.3874 267.712 89.1371 266.747 89.5582 265.372C90.917 260.962 92.0811 256.488 93.4002 251.768C99.487 259.131 105.085 266.787 112.129 273.847C111.394 271.145 110.842 268.849 110.143 266.596C109.436 264.327 108.661 262.075 107.783 259.87C105.363 253.795 102.991 247.712 101.394 241.351C101.108 240.207 101.219 239.384 101.835 238.415C104.6 234.08 107.258 229.678 109.118 224.759C115.622 230.799 118.772 238.983 123.381 246.234C124.49 231.553 120.946 218.156 112.515 205.708C117.779 208.47 122.312 211.863 127.183 214.684C127.314 214.739 127.442 214.791 127.569 214.847C127.517 214.715 127.465 214.584 127.41 214.453C122.288 204.954 116.381 196.046 108.558 188.477C104.151 184.218 100.023 179.673 96.5906 174.556C96.6899 174.436 96.7932 174.321 96.8925 174.202C108.514 182.033 116.611 185.807 126.198 187.822C114.978 177.615 102.896 168.409 94.5286 155.564C94.604 155.493 94.6756 155.417 94.7471 155.342C109.551 163.777 125.455 168.624 142.841 169.935C134.263 159.649 125.05 150.185 118.005 138.591C120.612 139.438 123.055 138.865 125.463 139.402C114.513 132.091 104.398 123.7 93.0704 116.449C100.79 130.673 109.571 143.709 120.489 155.286C116.329 154.623 112.566 153.093 108.907 151.265C102.173 147.9 96.0343 143.697 90.6707 138.381C88.6683 136.394 86.9717 134.324 86.638 131.332C86.4274 129.465 85.7719 127.645 85.1918 125.297C84.715 126.664 84.3336 127.59 84.0674 128.547C83.0742 132.119 81.1154 135.147 78.8786 138.039C78.1237 139.016 77.4284 139.223 76.1888 138.834C68.3181 136.378 60.2448 135.123 51.9848 135.158C50.0022 135.166 48.0475 135.425 45.8861 136.013C48.2263 137.602 50.7214 138.345 53.0099 139.493C59.3628 142.687 65.1834 146.669 70.7934 151.007C72.0647 151.988 71.882 152.457 70.9126 153.522C67.607 157.149 64.3768 160.809 59.919 163.129C58.5602 163.836 57.3445 163.936 55.9698 163.288C53.6098 162.175 51.21 161.142 48.7428 160.217C50.6022 163.256 52.9701 165.819 55.2388 168.457C58.8145 172.621 61.4169 177.329 63.4074 182.422C65.3781 187.476 67.6427 192.399 70.4239 197.067C70.7298 197.58 71.0834 198.06 71.3893 198.569C74.1705 203.205 78.0919 205.24 83.547 204.143C87.7862 203.289 91.5329 204.449 94.7193 207.381C96.6184 209.129 98.5453 210.854 100.007 213.011C100.993 214.469 101.628 216.054 101.406 217.858C101.259 219.074 100.893 220.286 99.7174 220.838C98.6844 221.327 98.5573 219.749 97.4726 219.606C97.6554 220.949 97.7626 222.229 98.0129 223.48C98.4341 225.578 97.7904 227.39 96.6978 229.114C96.233 229.849 95.7244 230.473 94.9417 229.396C94.8305 229.241 94.6477 229.126 94.4809 229.027C93.7021 228.57 92.8241 227.696 92.0374 228.085C91.3223 228.438 91.5329 229.634 91.4931 230.489C91.2984 234.549 89.7132 236.099 85.7401 236.182C84.6872 236.206 83.8886 236.103 83.9919 234.748C84.0158 234.442 83.8688 234.1 83.7337 233.806C83.4476 233.194 83.0384 232.511 82.3511 232.539C81.6518 232.57 81.6518 233.397 81.5843 233.937C81.3657 235.685 80.2294 236.071 78.7475 235.904C76.459 235.65 74.4168 234.851 72.6965 233.23C70.3762 231.041 68.1632 228.736 66.4031 226.094C61.2341 218.339 54.0945 212.908 46.1285 208.374C41.5277 205.756 37.0778 202.896 32.6915 199.932C28.2616 196.936 25.0791 192.681 21.0305 188.811C34.6661 191.457 48.1548 192.156 61.4606 194.357C51.5319 186.137 39.7676 182.2 26.9544 179.621C31.6625 177.313 35.9852 175.418 40.5662 174.13C45.0756 172.863 49.744 172.68 54.3369 171.902C39.5371 164.567 25.4526 168.95 11.1018 174.806C13.7677 169.061 16.1357 163.582 19.1195 158.397C19.4055 157.896 19.8545 157.432 20.3352 157.114C25.2102 153.88 30.4865 151.718 36.4024 151.448C40.9714 151.238 45.5286 151.325 50.0499 152.167C50.6181 152.275 51.222 152.203 51.81 152.215C51.8616 152.29 51.9133 152.37 51.961 152.445C51.961 152.406 51.9729 152.35 51.949 152.33C51.9014 152.29 51.8378 152.267 51.7822 152.235C48.5759 148.572 44.4439 146.339 39.9742 144.67C36.7798 143.478 33.5497 142.382 29.8826 142.155C32.5843 138.17 35.4012 134.539 39.0564 131.67C40.5066 130.534 41.4085 129.251 41.4919 127.395C41.5634 125.826 42.362 124.848 43.7764 124.05C50.5386 120.22 57.8809 118.321 65.4893 117.296C69.3829 116.771 73.2964 116.425 77.6072 115.957C67.5513 112.134 57.6226 110.227 47.1973 111.92C47.0979 111.809 46.9986 111.701 46.8993 111.59C50.0817 108.066 53.7965 105.217 57.9961 103.04C62.2274 100.847 66.6336 100.517 71.2304 101.987C75.6922 103.414 80.1579 104.832 84.568 106.413C85.0965 106.604 85.6011 107.029 86.4076 106.791C83.4397 102.746 80.2413 98.9319 77.8019 94.0013C84.8223 96.8858 91.6362 98.9955 97.7825 102.659C106.293 107.732 115.244 111.916 124.275 115.996C112.606 106.223 101.529 95.8806 92.1368 83.7905C96.1059 86.4485 100.627 87.5928 105.176 88.6258C105.943 88.8006 106.476 89.1383 106.968 89.7263C112.84 96.7944 116.357 99.8616 124.327 104.9C124.478 103.294 124.434 103.171 122.722 100.585C121.851 99.2697 120.985 97.9546 120.199 96.5322C125.995 101.062 132.603 104.093 139.218 107.085C142.825 108.718 146.536 110.124 150.172 111.693C151.169 112.123 151.761 111.928 152.563 111.185C157.275 106.819 161.801 102.309 164.824 96.5004C164.395 101.383 163.338 106.107 162.079 110.788C162.007 111.018 161.809 111.364 161.892 111.455C162.17 111.765 162.262 111.352 162.428 111.221L162.425 111.193ZM135.014 243.874C144.867 234.446 154.776 225.065 161.658 212.475C157.871 214.119 154.586 215.546 150.946 217.127C151.741 215.049 152.329 213.317 153.048 211.648C157.82 200.567 164.399 190.575 171.582 180.928C156.111 189.884 143.755 201.91 134.669 217.791C137.887 216.158 140.739 214.759 144.156 213.651C139.555 223.432 137.291 233.496 134.677 243.453C134.597 243.683 134.386 244.037 134.466 244.12C134.76 244.434 134.843 244.013 135.01 243.874H135.014ZM144.967 184.234C156.378 170.523 166.477 155.846 177.022 141.11C171.217 141.082 165.762 141.829 160.192 142.223C161.936 132.969 165.214 124.38 166.827 115.281C156.334 127.633 146.21 140.216 136.794 153.625C143.008 153.963 148.769 153.161 154.717 153.427C152.067 161.405 149.492 169.16 146.918 176.916C146.147 179.232 145.376 181.544 144.605 183.861C144.359 184.107 144.152 184.528 144.395 184.703C144.824 185.013 144.736 184.361 144.967 184.234ZM230.912 179.295C224.198 184.004 218.536 189.252 213.804 195.812C234.941 191.139 240.015 189.482 243.881 185.859H233.129C237.933 181.981 241.787 177.873 245.581 173.32C234.957 172.807 224.838 173.252 215.727 179.017C220.694 178.711 225.624 178.696 230.916 179.295H230.912ZM193.963 126.942C187.975 135.52 182.095 143.589 175.977 151.73C186.124 148.146 193.256 140.188 193.963 126.942Z" fill="#5C51DA"/>
<path d="M121.756 63.77C118.816 65.7009 118.78 65.7446 116.198 63.7581C114.187 62.2126 111.923 61.1478 109.694 59.9956C108.347 59.3003 107.076 58.462 105.753 57.719C100.77 54.918 99.7095 50.5476 100.345 45.2118C101.021 39.5541 103.162 34.3732 104.878 29.0413C105.411 27.3925 105.86 25.7159 106.158 23.9717C101.744 30.4279 96.1416 36.1333 94.163 44.0198C92.3394 51.2866 94.612 57.3098 99.8008 62.9913C99.6499 61.565 98.7758 60.7942 99.0579 59.5784C103.194 64.4534 109.034 66.7856 113.941 70.4289C117.386 72.9876 119.376 75.2602 120.095 78.2797C119.098 77.493 118.22 76.7739 117.31 76.0945C116.365 75.3833 115.387 74.7119 114.195 73.8616C114.942 77.4613 117.159 80.1788 118.24 83.3613C118.133 83.4725 118.025 83.5838 117.914 83.695C114.505 81.9508 110.914 80.6238 107.421 79.0743C100.715 76.0985 95.4026 71.5612 92.2719 64.7037C92.2877 68.6887 92.6334 72.6022 93.9247 76.4878C88.9861 73.2816 85.9149 67.5127 85.609 60.8816C85.5296 59.1692 85.6209 57.4489 85.6368 55.7325C85.8673 55.5497 85.9507 55.3431 85.7362 55.0928C85.6329 55.2478 85.5335 55.4027 85.4302 55.5577C83.833 58.6289 82.3709 61.7676 81.0519 64.9778C81.0638 57.433 83.1815 50.4443 86.5188 43.7934C90.1622 36.5306 95.1841 30.2134 100.349 24.0035C103.472 20.2489 106.194 16.097 110.484 13.4867C118.49 8.62366 126.965 7.53107 135.884 10.5506C136.405 10.7254 136.862 10.9042 137.394 10.7016C143.711 8.27801 150.128 9.13222 156.568 10.0619C165.126 11.3015 170.645 16.2798 173.863 24.0472C176.203 29.7009 179.266 34.9215 182.783 39.9117C187.848 47.1029 189.33 55.2319 188.762 63.8455C188.722 64.4772 188.504 65.097 188.281 66.1141C187.813 64.1554 187.622 62.5225 186.525 60.8299C186.168 67.3815 182.318 71.1997 177.467 74.2947C174.125 76.4243 170.752 78.5062 167.387 80.596C167.248 80.6834 167.021 80.6318 166.807 80.6437C169.238 75.0575 173.072 70.4368 176.485 65.542C177.129 64.6203 177.975 64.9024 178.782 64.7712C179.624 64.6362 180.462 64.4733 181.313 64.3223C181.249 64.2031 181.221 64.0442 181.13 63.9965C179.641 63.2231 179.356 62.1265 180.276 60.7068C182.556 57.1946 183.204 52.3871 181.841 48.3505C181.674 50.3847 180.995 52.0693 180.415 53.7976C179.62 56.1457 177.534 57.1151 175.822 58.5097C175.19 59.0262 175.035 58.3825 174.773 58.0845C174.28 57.5323 173.927 57.0515 174.507 56.2013C175.846 54.2386 177.125 52.2203 178.237 50.1225C181.452 44.0715 180.538 38.1238 175.75 33.229C175.575 33.0502 175.369 32.9032 174.844 32.4661C175.21 34.4725 175.524 36.1055 175.798 37.7384C176.883 44.1986 171.372 49.1729 165.098 47.4168C164.741 47.3175 164.367 47.2698 163.577 47.1149C165.293 49.0299 167.18 49.9953 168.849 51.235C169.405 51.6482 170.577 51.7673 169.993 52.9195C169.425 54.036 168.523 53.7181 167.597 53.3804C165.885 52.7527 164.582 51.4892 163.048 50.5834C162.635 50.341 162.246 49.8007 161.646 50.2457L161.769 50.1781C161.821 49.8325 161.602 49.7808 161.336 49.7887C161.268 49.8603 161.193 49.8682 161.117 49.8046C161.082 48.8908 160.506 48.2671 159.997 47.5837C157.736 44.5483 155.607 41.4254 153.755 38.1198C156.179 38.9263 158.594 39.6018 160.994 38.0523C161.137 38.3185 160.315 39.1329 161.392 38.8469C162.842 38.4655 164.268 37.7304 164.868 36.3955C165.869 34.1626 167.482 32.5217 169.373 30.9603C167.224 29.6174 164.904 29.3989 162.548 28.7155C165.508 26.6217 168.452 26.141 171.638 27.4561C171.749 24.3809 170.248 22.5652 167.518 22.299C165.428 22.0964 163.458 22.4261 161.586 23.4631C158.745 25.0404 155.98 26.7489 153.588 28.942C152.337 30.0902 151.344 29.9551 150.072 29.2122C148.88 28.5169 147.839 27.6269 146.544 26.5105C146.997 29.6254 147.768 32.1364 150.331 33.6819C150.903 34.0275 151.32 34.4407 151.03 35.1122C150.446 36.4591 151.077 37.5477 151.665 38.6602C153.517 42.1724 155.42 45.6528 158.662 48.275C153.215 51.4416 147.82 52.3911 142.134 49.4471C139.158 47.9095 136.091 47.1228 132.885 48.8551C132.714 48.7915 132.503 48.6286 132.384 48.6803C127.883 50.5794 124.295 53.3844 122.892 58.3309C119.976 58.4818 117.1 58.7759 114.569 60.4485C114.41 60.5002 114.255 60.5558 114.096 60.6074C114.136 60.6472 114.207 60.7227 114.215 60.7187C114.33 60.6273 114.434 60.524 114.541 60.4247C116.973 60.4366 119.404 60.4485 121.836 60.4604C121.808 61.565 121.784 62.6655 121.756 63.77ZM122.145 38.8866C126.77 40.5593 129.551 39.6296 131.307 35.8273C132.305 37.7384 132.658 39.8282 132.893 42.0452C133.477 41.5049 133.54 40.9089 133.727 40.3527C134.228 38.8787 134.164 37.3252 134.144 35.8353C134.128 34.5679 134.53 34.1944 135.63 33.8726C138.658 32.9866 140.295 30.4756 140.108 27.2256C139.381 27.8097 138.689 28.4136 137.95 28.9499C134.943 31.1232 134.99 31.0517 132.154 28.6758C127.557 24.8179 122.455 21.8103 116.643 20.1933C113.798 19.4026 111.875 20.4078 110.691 23.0579C110.25 24.0472 109.944 25.1 109.491 26.3674C114.005 24.7941 118.057 25.0961 122.253 27.7143C118.498 27.9169 115.316 28.7235 111.958 30.1458C113.377 30.8888 114.732 31.2702 115.606 32.1403C116.551 33.078 117.016 34.4924 117.755 35.6565C118.574 36.9517 119.587 38.092 120.973 38.8151C121.323 38.9979 121.724 39.4905 122.153 38.8866H122.145ZM157.903 14.1264C152.48 12.1955 147.287 11.5359 142.162 13.4271C138.932 14.619 136.147 14.5078 132.916 13.3278C126.917 11.1347 121.188 12.6484 115.808 15.7832C118.709 15.954 121.609 15.7911 124.482 15.9898C129.837 16.3553 135.197 16.9155 139.496 20.6899C140.366 21.4527 140.632 20.67 141.026 20.2409C143.211 17.8412 145.714 15.9302 148.984 15.366C151.808 14.8773 154.669 14.5714 157.903 14.1264ZM106.138 36.5584C102.463 41.2864 102.487 46.4871 106.138 49.9795C108.53 52.268 111.398 53.7102 114.708 54.1949C115.097 54.2505 115.463 54.4094 115.86 54.2148C119.448 52.4587 122.543 49.9318 125.964 47.8499C122.936 48.6207 119.921 48.7637 116.877 48.5293C110.429 48.0366 105.661 42.8438 106.138 36.5624V36.5584ZM157.585 18.2544C154.995 18.5365 152.412 18.9974 149.818 19.049C147.776 19.0888 147.1 19.8556 147.426 21.7626C147.514 22.2672 147.537 22.7837 147.605 23.4472C151.32 22.3348 154.367 20.1774 157.585 18.2544ZM136.592 24.4723C136.929 22.2712 136.802 21.6514 135.598 21.1945C132.924 20.1774 130.115 19.8516 127.179 19.9072C130.318 21.4289 133.461 22.9546 136.592 24.4723Z" fill="#5C51DA"/>
<path d="M189.286 273.358C189.23 281.245 186.656 287.928 182.357 294.003C179.27 298.365 176.687 302.974 176.016 308.353C175.118 315.561 175.571 322.613 179.286 329.121C179.512 329.514 179.683 329.939 179.926 330.444C177.089 330.992 174.276 331.203 171.129 332.518C175.857 332.708 180.013 332.621 184.109 333.336C187.196 333.876 189.493 335.553 190.677 338.465C191.515 340.531 192.079 342.705 192.325 345.224C191.11 344.087 190.748 342.55 189.203 341.624C189.385 343.825 189.54 345.812 189.715 347.794C189.807 348.831 189.528 349.363 188.317 349.352C179.063 349.268 170.374 347.361 162.662 341.898C160.664 340.484 159.619 338.831 159.452 336.368C158.928 328.477 158.085 320.618 156.453 312.871C156.063 311.031 156.492 309.541 157.541 308.043C161.18 302.847 165.912 298.711 170.501 294.416C175.909 289.358 181.423 284.388 185.921 278.452C187.085 276.914 188.054 275.23 189.278 273.354L189.286 273.358Z" fill="#5C51DA"/>
<path d="M122.889 58.339C124.291 53.3926 127.879 50.5836 132.38 48.6884C132.499 48.6368 132.71 48.7997 132.881 48.8632C132.122 49.7612 133.04 50.1863 133.461 50.6392C136.906 54.3461 140.728 57.5643 145.583 59.2687C146.64 59.6422 146.803 60.2183 146.664 61.1599C146.501 62.2684 146.342 63.3849 146.31 64.4973C146.29 65.2482 145.964 65.4072 145.309 65.6535C139.913 67.6917 135.138 70.8622 130.374 74.0407C130.004 74.287 129.734 74.6962 129.46 75.0617C128.975 75.6974 129.19 76.345 129.611 76.8814C130.179 77.6125 130.688 76.9847 131.117 76.6589C134.323 74.2155 137.939 72.4316 141.316 70.2782C150.255 64.5768 161.181 73.8976 161.237 81.9193C161.257 84.7918 160.601 87.4895 157.84 89.1781C158.591 87.0326 159.497 84.9428 159.485 82.2014C158.793 83.441 158.356 84.3866 157.776 85.2328C153.537 91.4269 145.75 94.0531 137.772 91.9672C136.318 91.5858 134.919 90.9978 133.493 90.521C128.574 88.8881 126.186 85.2408 125.268 80.3499C124.907 78.415 124.486 76.4682 123.83 74.6207C123.338 73.2301 123.87 72.5587 124.899 71.8753C127.684 70.0199 130.445 68.1247 133.151 66.1183C129.639 67.1593 126.44 68.8876 123.187 70.4927C122.197 69.1776 122.173 67.6241 122.086 66.0826C124.851 64.9661 127.617 63.8497 130.382 62.7333C130.342 62.6022 130.302 62.471 130.263 62.3439C127.426 62.8207 124.589 63.2974 121.752 63.7742C121.78 62.6697 121.808 61.5692 121.832 60.4686C124.573 59.9958 127.315 59.523 130.056 59.0542C127.7 58.2477 125.276 58.4821 122.889 58.347V58.339Z" fill="#F8F6FE"/>
<path d="M159.167 295.35C160.291 292.565 161.276 289.863 161.515 286.943C161.944 281.734 160.784 276.732 159.31 271.821C158.896 270.442 159.067 269.612 159.993 268.698C163.283 265.44 166.6 262.202 169.822 258.877C176.112 252.389 181.579 245.277 185.842 237.275C185.898 237.172 186.045 237.124 186.283 236.953C188.333 242.786 190.196 248.594 189.283 254.852C188.738 258.555 186.581 261.582 184.65 264.634C180.168 271.706 175.015 278.226 168.289 283.454C169.723 283.399 173.581 281.456 177.236 279.223C172.314 285.79 167.232 292.183 159.175 295.342L159.167 295.35Z" fill="#5C51DA"/>
<path d="M161.117 49.8006C161.193 49.8641 161.268 49.8602 161.336 49.7847C161.403 49.9992 161.379 50.3171 161.769 50.178L161.646 50.2455C163.676 52.8717 165.964 55.339 166.938 58.7281C165.225 59.03 163.513 58.5612 161.499 59.1214C163.064 59.8485 164.423 59.5187 165.682 59.7571C166.465 59.9041 167.248 59.8167 167.446 61.1079C167.721 62.8601 167.367 63.015 165.734 62.6376C164.034 62.2442 162.265 61.8231 159.977 62.0933C162.412 62.9793 164.411 63.7858 166.461 64.4215C168.142 64.942 167.578 66.0822 167.272 67.0517C166.938 68.1165 166.278 68.6727 165.047 67.9416C163.553 67.0517 161.975 66.3047 160.223 65.8041C161.252 66.6424 162.281 67.4808 163.314 68.3191C164.069 68.9309 165.059 69.4157 164.153 70.6712C163.223 71.9584 161.372 72.7451 160.47 71.9386C157.081 68.9151 153.219 66.7418 148.991 65.1684C148.813 65.1009 148.614 65.0016 148.507 64.8546C147.811 63.9129 149.424 59.7293 150.561 59.2525C155.17 57.3295 159.186 54.7272 161.113 49.8006H161.117Z" fill="#F8F6FE"/>
<path d="M92.578 8.18284C91.0205 13.5187 92.9792 17.6268 95.7048 21.5642C96.0385 22.0449 96.8371 22.4382 96.257 23.2448C95.6293 24.1149 95.1525 24.9254 93.9129 23.7414C89.7173 19.7326 87.4884 15.092 88.7479 9.18008C88.8592 8.66755 89.03 8.159 89.2366 7.67428C90.651 4.41238 92.1052 3.97534 95.0651 5.89434C98.2237 7.94445 101.347 10.07 104.815 11.5679C106.043 12.0963 105.888 12.5175 105.073 13.3399C102.904 15.533 102.952 15.537 100.27 14.1623C97.4291 12.7042 94.7274 11.0792 92.574 8.17886L92.578 8.18284Z" fill="#5C51DA"/>
<path d="M202.744 344.861C202.748 348.37 202.72 348.401 199.263 348.938C198.937 348.989 198.619 349.081 198.294 349.121C194.913 349.554 194.801 349.478 195.234 346.256C195.747 342.45 194.027 339.339 192.235 336.24C191.873 335.612 191.44 335.028 191.055 334.416C190.554 333.618 190.618 333.109 191.694 332.914C196.279 332.1 201.782 335.58 202.068 339.394C202.207 341.214 202.799 343.002 202.748 344.865L202.744 344.861Z" fill="#5C51DA"/>
<path d="M40.8527 289.938C37.3484 290.685 34.2097 290.462 31.063 290.029C30.5108 289.954 30.0658 289.731 29.6963 289.318C27.527 286.874 27.3839 282.107 29.3983 279.528C29.7161 279.123 29.9069 278.61 30.626 278.825C33.1092 279.564 35.7036 279.393 38.2424 279.695C38.8344 279.767 39.041 279.886 38.8185 280.533C37.6266 283.958 38.6158 286.994 40.8527 289.938Z" fill="#5C51DA"/>
<path d="M5.76199 265.082C5.30112 262.754 4.80847 260.763 4.93561 258.693C5.25743 253.544 10.343 249.897 14.9954 251.462C18.0706 252.499 19.2427 255.436 17.7766 258.332C17.5144 258.848 17.1369 258.944 16.6641 258.964C12.1507 259.186 8.62261 261.232 5.75802 265.078L5.76199 265.082Z" fill="#5C51DA"/>
<path d="M58.7429 272.925C58.7151 275.801 59.9468 277.998 61.1625 280.164C61.7307 281.177 61.6949 281.781 60.7295 282.44C58.8224 283.747 56.9352 285.071 54.8572 286.104C53.8004 286.628 53.0257 286.541 52.2867 285.579C50.757 283.593 49.736 281.455 49.7042 278.88C49.6883 277.649 50.1054 276.95 51.3133 276.544C53.8163 275.698 56.2002 274.566 58.7469 272.925H58.7429Z" fill="#5C51DA"/>
<path d="M16.6999 284.029C14.3558 282.035 12.5361 280.044 10.8118 277.947C10.1204 277.108 10.0132 276.353 10.5058 275.432C11.9679 272.69 13.9942 270.481 16.6005 268.785C17.4269 268.248 18.003 268.312 18.5831 269.13C19.6876 270.696 20.816 272.249 21.996 273.759C22.5721 274.498 22.2979 274.915 21.6702 275.36C18.7659 277.414 17.0892 280.207 16.7038 284.033L16.6999 284.029Z" fill="#5C51DA"/>
<path d="M166.624 10.8209C169.838 9.02111 172.85 7.24515 175.953 5.63605C177.808 4.67456 178.48 5.10365 179.529 6.95908C182.453 12.1479 181.32 16.864 177.947 21.3257C177.594 21.7946 177.169 22.8872 176.37 22.1641C175.758 21.6078 174.876 20.8887 175.869 19.661C177.991 17.0467 178.337 13.8762 178.066 10.6461C177.884 8.45694 177.514 8.34569 175.774 9.64488C174.662 10.4713 173.609 11.4089 172.405 12.0685C169.334 13.757 169.25 13.6935 166.628 10.8209H166.624Z" fill="#5C51DA"/>
<path d="M63.8918 335.918C60.6657 339.192 59.1042 343.038 59.2274 347.543C59.2473 348.219 59.0407 348.966 58.25 349.053C57.4912 349.136 57.3759 348.358 57.2091 347.821C55.6 342.644 57.1892 336.22 63.8918 335.922V335.918Z" fill="#5C51DA"/>
<path d="M160.99 38.0523C158.591 39.6018 156.175 38.9264 153.751 38.1199C152.885 37.5001 152.981 36.63 153.239 35.7996C153.358 35.4222 153.7 34.6037 154.236 35.4818C155.245 37.1346 156.66 37.4802 158.285 36.7055C160.013 35.883 160.498 34.1945 159.862 32.0133C162.162 31.8543 162.635 32.2954 162.425 34.4488C162.294 35.7837 161.928 37.0313 160.99 38.0484V38.0523Z" fill="#F8F6FE"/>
<path d="M206.776 347.444C206.263 342.919 205.131 338.727 202.246 335.056C207.221 335.707 209.807 342.883 206.776 347.444Z" fill="#5C51DA"/>
<path d="M76.4035 258.415C75.2831 262.42 73.9362 266.151 72.3311 269.861C70.3167 264.983 70.9842 263.075 76.4035 258.415Z" fill="#5C51DA"/>
<path d="M122.09 66.0828C122.177 67.6203 122.201 69.1778 123.19 70.4929C122.205 70.62 122.344 70.5128 121.271 69.1222C120.071 67.5727 120.548 66.7542 122.09 66.0828Z" fill="#5C51DA"/>
<path d="M96.5789 174.532C96.281 174.198 95.987 173.865 95.5936 173.424C96.3445 173.348 96.571 173.837 96.8809 174.182C96.7816 174.298 96.6783 174.417 96.5789 174.532Z" fill="#5C51DA"/>
<path d="M157.923 89.5674C157.621 89.7898 157.168 90.2666 157.045 90.1911C156.405 89.8137 157.188 89.7183 157.287 89.468C157.327 89.3647 157.581 89.3488 157.74 89.2932C157.803 89.3846 157.863 89.476 157.927 89.5674H157.923Z" fill="#F8F6FE"/>
<path d="M118.239 83.373C118.458 83.5439 118.605 83.7465 118.351 83.977C118.315 84.0087 118.065 83.7982 117.914 83.7028C118.021 83.5916 118.128 83.4843 118.239 83.373Z" fill="#5C51DA"/>
<path d="M154.407 258.415C154.268 258.463 154.129 258.511 153.99 258.559C154.069 258.443 154.145 258.328 154.224 258.217C154.288 258.284 154.348 258.352 154.407 258.419V258.415Z" fill="#5C51DA"/>
<path d="M154.851 258.11C154.704 258.213 154.553 258.312 154.406 258.415C154.347 258.348 154.287 258.28 154.228 258.213C154.355 258.078 154.486 257.947 154.613 257.812C154.708 257.899 154.788 257.998 154.851 258.11Z" fill="#5C51DA"/>
<path d="M47.1851 111.888C47.0222 111.912 46.8593 111.94 46.6964 111.964C46.76 111.829 46.8235 111.693 46.8871 111.558C46.9864 111.67 47.0858 111.777 47.1851 111.888Z" fill="#C5BFFF"/>
<path d="M94.5165 155.54C94.4608 155.405 94.4092 155.266 94.3536 155.131C94.4807 155.195 94.6078 155.258 94.735 155.322C94.6635 155.397 94.592 155.473 94.5165 155.544V155.54Z" fill="#5C51DA"/>
<path d="M77.8932 50.671C78.0085 50.7267 78.1237 50.7863 78.2389 50.8419C77.937 51.1478 77.9886 50.7624 77.8932 50.6631V50.6671V50.671Z" fill="#F8F6FE"/>
<path d="M144.605 183.861C145.376 181.548 146.147 179.232 146.917 176.92C149.492 169.164 152.067 161.409 154.717 153.431C148.769 153.164 143.004 153.967 136.794 153.629C146.21 140.216 156.334 127.633 166.827 115.285C165.213 124.38 161.936 132.969 160.191 142.227C165.762 141.833 171.217 141.082 177.021 141.114C166.481 155.85 156.377 170.527 144.967 184.238C144.847 184.115 144.724 183.988 144.605 183.865V183.861Z" fill="#E7E9EF"/>
<path d="M134.681 243.449C137.291 233.492 139.556 223.432 144.16 213.647C140.744 214.755 137.891 216.154 134.673 217.787C143.759 201.906 156.115 189.876 171.587 180.924C164.399 190.571 157.824 200.567 153.052 211.644C152.333 213.317 151.745 215.045 150.95 217.123C154.59 215.542 157.876 214.115 161.662 212.471C154.781 225.061 144.872 234.442 135.018 243.87C134.907 243.727 134.796 243.588 134.685 243.445L134.681 243.449Z" fill="#110F4D"/>
<path d="M230.912 179.295C225.62 178.695 220.69 178.711 215.723 179.017C224.834 173.248 234.957 172.807 245.577 173.32C241.787 177.873 237.929 181.981 233.125 185.859H243.877C240.007 189.482 234.933 191.139 213.8 195.811C218.532 189.256 224.194 184.007 230.908 179.295H230.912Z" fill="#020A18"/>
<path d="M193.963 126.942C193.256 140.188 186.124 148.146 175.977 151.73C182.095 143.589 187.975 135.52 193.963 126.942Z" fill="#020A18"/>
<path d="M227.964 164.436C227.674 164.825 227.352 165.163 226.574 165.278C227.034 164.714 227.332 164.349 227.63 163.987C227.742 164.138 227.853 164.285 227.964 164.436Z" fill="#020A18"/>
<path d="M144.967 184.234C144.732 184.357 144.824 185.013 144.395 184.703C144.152 184.528 144.359 184.107 144.605 183.861C144.724 183.984 144.848 184.111 144.967 184.234Z" fill="#020A18"/>
<path d="M162.425 111.193C162.258 111.324 162.17 111.737 161.888 111.427C161.805 111.336 162.007 110.99 162.075 110.76C162.19 110.903 162.305 111.046 162.425 111.193Z" fill="#020A18"/>
<path d="M135.014 243.874C134.847 244.009 134.763 244.434 134.469 244.121C134.39 244.037 134.6 243.684 134.68 243.453C134.791 243.596 134.902 243.735 135.014 243.878V243.874Z" fill="#020A18"/>
<path d="M179.723 115.682C179.64 115.77 179.501 115.945 179.485 115.933C179.231 115.758 179.414 115.631 179.549 115.504C179.604 115.563 179.664 115.623 179.719 115.682H179.723Z" fill="#020A18"/>
<path d="M107.513 296.679L107.648 297.085C107.517 297.033 107.386 296.985 107.255 296.934C107.338 296.846 107.426 296.763 107.513 296.676V296.679Z" fill="#020A18"/>
<path d="M51.7741 152.207C51.8297 152.239 51.8933 152.259 51.941 152.302C51.9609 152.322 51.9489 152.378 51.9529 152.418C51.9013 152.342 51.8496 152.267 51.8019 152.187L51.7781 152.207H51.7741Z" fill="#020A18"/>
<path d="M127.398 214.429C127.45 214.56 127.501 214.691 127.557 214.823C127.43 214.767 127.299 214.715 127.172 214.66C127.247 214.58 127.323 214.505 127.402 214.425L127.398 214.429Z" fill="#020A18"/>
<path d="M122.145 38.8867C121.72 39.4906 121.315 38.998 120.965 38.8152C119.579 38.0921 118.57 36.9558 117.747 35.6566C117.008 34.4925 116.547 33.0781 115.598 32.1405C114.724 31.2743 113.369 30.8889 111.95 30.146C115.308 28.7196 118.494 27.9171 122.245 27.7144C118.049 25.0962 114 24.7903 109.483 26.3676C109.936 25.1002 110.238 24.0473 110.683 23.058C111.867 20.4119 113.79 19.4028 116.635 20.1934C122.451 21.8104 127.553 24.822 132.146 28.6759C134.978 31.0558 134.931 31.1233 137.942 28.9501C138.685 28.4137 139.373 27.8098 140.1 27.2258C140.286 30.4757 138.649 32.9867 135.622 33.8727C134.521 34.1945 134.116 34.568 134.136 35.8354C134.156 37.3214 134.219 38.8788 133.719 40.3528C133.532 40.9051 133.469 41.505 132.885 42.0453C132.646 39.8284 132.297 37.7385 131.299 35.8275C130.588 34.8819 129.65 34.2819 128.463 33.829C128.653 35.5374 128.443 37.0114 126.79 37.6034C125.395 38.104 123.854 38.1954 122.706 37.0114C121.224 35.4858 121.418 33.7257 122.467 31.9696C119.944 31.8464 119.324 32.5735 119.865 34.8263C120.242 36.3956 120.898 37.8021 122.137 38.8867H122.145Z" fill="#020A18"/>
<path d="M157.903 14.1269C154.665 14.5679 151.808 14.8778 148.983 15.3665C145.713 15.9306 143.21 17.8417 141.025 20.2414C140.632 20.6745 140.369 21.4572 139.495 20.6904C135.196 16.916 129.837 16.3558 124.481 15.9902C121.608 15.7916 118.708 15.9545 115.808 15.7836C121.187 12.6489 126.913 11.1351 132.916 13.3283C136.146 14.5083 138.931 14.6195 142.161 13.4276C147.286 11.5364 152.479 12.1959 157.903 14.1269Z" fill="#020A18"/>
<path d="M106.138 36.5587C105.661 42.8441 110.429 48.0329 116.877 48.5256C119.92 48.76 122.936 48.617 125.963 47.8462C122.543 49.9281 119.448 52.455 115.86 54.2111C115.463 54.4057 115.097 54.2508 114.708 54.1912C111.394 53.7065 108.529 52.2642 106.138 49.9758C102.482 46.4834 102.459 41.2827 106.138 36.5547V36.5587Z" fill="#020A18"/>
<path d="M122.145 38.8871C120.906 37.8064 120.246 36.4 119.873 34.8266C119.332 32.5699 119.952 31.8428 122.475 31.97C121.422 33.7221 121.231 35.4822 122.713 37.0118C123.862 38.1958 125.403 38.1044 126.798 37.6038C128.451 37.0118 128.661 35.5378 128.47 33.8294C129.658 34.2823 130.596 34.8862 131.307 35.8278C129.555 39.6301 126.77 40.5598 122.145 38.8871Z" fill="#F8F6FE"/>
<path d="M157.585 18.2546C154.367 20.1776 151.319 22.335 147.604 23.4475C147.537 22.784 147.509 22.2675 147.426 21.7629C147.1 19.8558 147.775 19.089 149.817 19.0493C152.412 18.9976 154.994 18.5367 157.585 18.2546Z" fill="#020A18"/>
<path d="M122.888 58.3389C125.28 58.478 127.699 58.2436 130.055 59.0461C127.314 59.5189 124.573 59.9917 121.831 60.4606C119.4 60.4486 116.968 60.4367 114.537 60.4248L114.564 60.4526C117.095 58.7799 119.972 58.4859 122.888 58.335V58.3389Z" fill="#020A18"/>
<path d="M136.592 24.4724C133.461 22.9547 130.318 21.429 127.18 19.9073C130.116 19.8517 132.929 20.1775 135.598 21.1946C136.802 21.6515 136.929 22.2753 136.592 24.4724Z" fill="#020A18"/>
<path d="M114.541 60.4288C114.434 60.5281 114.327 60.6314 114.215 60.7228C114.211 60.7268 114.14 60.6513 114.096 60.6115C114.255 60.5599 114.41 60.5043 114.569 60.4526L114.541 60.4248V60.4288Z" fill="#020A18"/>
<path d="M85.426 55.5618C85.5293 55.4068 85.6286 55.2519 85.7319 55.0969C85.9464 55.3512 85.859 55.5538 85.6326 55.7366C85.565 55.677 85.4975 55.6174 85.4299 55.5578L85.426 55.5618Z" fill="#020A18"/>
<path d="M161.769 50.178C161.38 50.3171 161.403 50.0032 161.336 49.7847C161.602 49.7847 161.821 49.8284 161.769 50.178Z" fill="#020A18"/>
</svg>
