<svg width="214" height="104" viewBox="0 0 214 104" fill="none" xmlns="http://www.w3.org/2000/svg">
<mask id="mask0_10436_27908" style="mask-type:luminance" maskUnits="userSpaceOnUse" x="13" y="36" width="187" height="32">
<path d="M199.999 36.0396H13.6875V67.6575H199.999V36.0396Z" fill="white" style="fill:white;fill-opacity:1;"/>
</mask>
<g mask="url(#mask0_10436_27908)">
<mask id="mask1_10436_27908" style="mask-type:luminance" maskUnits="userSpaceOnUse" x="13" y="36" width="187" height="32">
<path d="M199.999 36.0415H13.6875V67.6595H199.999V36.0415Z" fill="white" style="fill:white;fill-opacity:1;"/>
</mask>
<g mask="url(#mask1_10436_27908)">
<path d="M43.2609 48.3205C42.1742 46.0641 40.4995 44.3415 37.556 43.795C37.0126 40.8515 35.29 39.1768 33.0336 38.0869C30.2691 36.7542 30.2979 36.0415 29.5052 36.0415C28.7095 36.0415 28.7382 36.7542 25.9737 38.0869C23.7173 39.1768 21.9946 40.8515 21.4513 43.795C18.5014 44.3382 16.8267 46.061 15.7369 48.3205C14.4042 51.0851 13.6914 51.0563 13.6914 51.8521C13.6914 52.6479 14.4042 52.6192 15.7369 55.3837C16.8267 57.6433 18.5014 59.3659 21.4513 59.9092C21.9946 62.8527 23.7173 64.5274 25.9737 65.6173C28.7382 66.9501 28.7095 67.6627 29.5052 67.6627C30.301 67.6627 30.2723 66.9501 33.0336 65.6173C35.29 64.5274 37.0126 62.8527 37.556 59.9092C40.4995 59.3659 42.1742 57.6433 43.2609 55.3837C44.5936 52.6192 45.3064 52.6479 45.3064 51.8521C45.3064 51.0563 44.5936 51.0851 43.2609 48.3205ZM26.5458 40.0556C29.0642 39.899 28.8373 38.5152 29.4893 38.5152H29.5116C30.1636 38.5152 29.9399 39.899 32.4584 40.0556C34.3313 40.1739 35.7087 41.5386 36.3128 43.6447C36.0347 43.6256 35.7471 43.616 35.4498 43.616C33.104 43.616 30.9946 44.6004 29.4988 46.1728C28 44.6004 25.8905 43.616 23.5479 43.616C23.2507 43.616 22.9695 43.6256 22.6914 43.6447C23.2986 41.5386 24.6729 40.1707 26.5458 40.0556ZM36.6547 46.2335C36.6547 48.116 35.7886 49.9121 34.4527 51.2321C33.5897 50.5801 32.5958 50.0975 31.5123 49.829C31.2439 48.752 30.7612 47.7612 30.1125 46.9015C31.4324 45.5624 33.2318 44.6962 35.1143 44.6962C35.6193 44.6962 36.0954 44.7346 36.5524 44.7985C36.6196 45.2555 36.6547 45.7317 36.6547 46.2335ZM36.6547 57.4674C36.6547 57.9692 36.6196 58.4486 36.5524 58.9057C36.0954 58.9696 35.616 59.0079 35.1143 59.0079C33.2318 59.0079 31.4324 58.1418 30.1125 56.8027C30.7612 55.9398 31.2439 54.949 31.5123 53.8719C32.5926 53.6035 33.5866 53.1209 34.4495 52.4689C35.7886 53.7889 36.6547 55.585 36.6547 57.4674ZM22.3494 57.4674C22.3494 55.585 23.2155 53.7889 24.5515 52.4689C25.4144 53.1177 26.4052 53.6003 27.4822 53.8688C27.7539 54.9458 28.2333 55.9398 28.8821 56.7995C27.5621 58.1387 25.7627 59.0048 23.8803 59.0048C23.3785 59.0048 22.9055 58.9696 22.4485 58.9057C22.3846 58.4486 22.3494 57.9692 22.3494 57.4674ZM22.3494 46.2335C22.3494 45.7317 22.3877 45.2523 22.4485 44.7953C22.9055 44.7314 23.3785 44.6962 23.8803 44.6962C25.7627 44.6962 27.5621 45.5655 28.8821 46.9015C28.2333 47.7644 27.7539 48.7551 27.4822 49.8322C26.4052 50.1039 25.4144 50.5832 24.5515 51.2352C23.2155 49.9121 22.3494 48.116 22.3494 46.2335ZM31.0137 51.8297V51.8521V51.8745C31.0137 52.3314 30.9627 52.7821 30.8636 53.2232C30.4257 53.319 29.9783 53.3702 29.5213 53.3702H29.4988H29.4765C29.0194 53.3702 28.5688 53.319 28.1246 53.22C28.0287 52.779 27.9775 52.3283 27.9775 51.8745V51.8521V51.8297C27.9775 51.3727 28.0287 50.922 28.1278 50.481C28.5688 50.3852 29.0194 50.3308 29.4765 50.3308H29.4988H29.5213C29.9751 50.3308 30.4257 50.3819 30.8636 50.4778C30.9594 50.922 31.0137 51.3727 31.0137 51.8297ZM29.5149 49.5733H29.4893C29.109 49.5733 28.7382 49.6085 28.3707 49.6596C28.6327 48.9277 29.0163 48.2374 29.4988 47.6174C29.9783 48.2374 30.365 48.9277 30.627 49.6596C30.2595 49.6085 29.892 49.5733 29.5149 49.5733ZM27.3096 50.7207C27.2584 51.0851 27.2233 51.459 27.2233 51.8361V51.8617C27.2233 52.242 27.2584 52.6128 27.3096 52.9771C26.5777 52.715 25.8874 52.3283 25.2642 51.8489C25.8841 51.3695 26.5745 50.9828 27.3096 50.7207ZM28.3675 54.0414C28.735 54.0925 29.1057 54.1277 29.4861 54.1277H29.5116C29.8888 54.1277 30.2595 54.0925 30.6206 54.0445C30.3586 54.7796 29.9751 55.4667 29.4924 56.09C29.0163 55.4636 28.6296 54.7764 28.3675 54.0414ZM31.6849 52.9835C31.7361 52.6159 31.7712 52.2452 31.7712 51.8649V51.8393C31.7712 51.459 31.7361 51.0882 31.6849 50.7176C32.4233 50.9796 33.1168 51.3663 33.74 51.8489C33.1168 52.3347 32.4233 52.7214 31.6849 52.9835ZM17.7024 54.8084C17.5458 52.2932 16.1619 52.5168 16.1619 51.8649V51.8425C16.1619 51.1905 17.5458 51.4142 17.7024 48.8957C17.8207 47.0197 19.1886 45.6454 21.2948 45.0414C21.2756 45.3194 21.2659 45.6039 21.2659 45.9043C21.2659 48.247 22.2503 50.3563 23.8227 51.8553C22.2503 53.3542 21.2659 55.4636 21.2659 57.8063C21.2659 58.1067 21.2787 58.3912 21.2948 58.6691C19.1886 58.0587 17.8174 56.6845 17.7024 54.8084ZM32.4584 63.6453C29.9399 63.802 30.1636 65.1858 29.5116 65.1858H29.4893C28.8373 65.1858 29.0611 63.802 26.5458 63.6453C24.6729 63.5272 23.2986 62.1624 22.6914 60.0595C22.9662 60.0786 23.2507 60.0882 23.5447 60.0882C25.8874 60.0882 27.9967 59.1039 29.4957 57.5314C30.9914 59.1039 33.1008 60.0882 35.4467 60.0882C35.7438 60.0882 36.0315 60.0754 36.3096 60.0595C35.7056 62.1624 34.3313 63.5272 32.4584 63.6453ZM42.8358 51.8617C42.8358 52.5137 41.4519 52.2899 41.2953 54.8052C41.1771 56.6781 39.8124 58.0555 37.7094 58.6596C37.7286 58.3815 37.7382 58.0971 37.7382 57.7967C37.7382 55.4539 36.7538 53.3446 35.1814 51.8457C36.7538 50.3468 37.7382 48.2406 37.7382 45.8948C37.7382 45.5975 37.7254 45.313 37.7094 45.035C39.8124 45.639 41.1771 47.0166 41.2953 48.8862C41.4519 51.4047 42.8358 51.1809 42.8358 51.8329V51.8617Z" fill="#020A18" style="fill:#020A18;fill:color(display-p3 0.0078 0.0392 0.0941);fill-opacity:1;"/>
</g>
<mask id="mask2_10436_27908" style="mask-type:luminance" maskUnits="userSpaceOnUse" x="13" y="36" width="187" height="32">
<path d="M199.999 36.0415H13.6875V67.6595H199.999V36.0415Z" fill="white" style="fill:white;fill-opacity:1;"/>
</mask>
<g mask="url(#mask2_10436_27908)">
<path d="M55.1601 49.2466C55.1601 47.6551 55.1314 47.4121 54.2493 47.3355L53.8722 47.3035C53.7795 47.2428 53.8114 46.9711 53.9009 46.9263C54.6456 46.9551 55.1314 46.9711 55.8122 46.9711C56.4035 46.9711 56.9212 46.9551 57.5732 46.9263C57.6626 46.9711 57.6946 47.2459 57.6019 47.3035L57.3143 47.3355C56.4353 47.4249 56.4035 47.6551 56.4035 49.2466V50.9917C56.4035 51.2793 56.4353 51.567 56.6015 51.567C56.7358 51.567 56.9212 51.4775 57.0266 51.4008C57.2408 51.2186 57.6339 50.8255 57.8001 50.6721L59.4397 49.0485C59.7273 48.7769 60.4719 48.0002 60.6222 47.7893C60.6988 47.6838 60.7276 47.6072 60.7276 47.5463C60.7276 47.4856 60.6669 47.441 60.4687 47.3962L60.0597 47.3035C59.9542 47.198 59.9701 46.9999 60.0916 46.9263C60.6222 46.9551 61.2294 46.9711 61.7599 46.9711C62.2905 46.9711 62.805 46.9551 63.2621 46.9263C63.3707 47.0031 63.3835 47.214 63.294 47.3035C62.8977 47.3355 62.3064 47.4856 61.8814 47.7286C61.4563 47.9714 60.6061 48.6842 59.756 49.4896L58.3914 50.7807C58.1804 50.9917 58.0429 51.1291 58.0429 51.2506C58.0429 51.356 58.1325 51.4775 58.3306 51.7204C59.772 53.3727 60.9418 54.7406 62.1243 55.9838C62.4886 56.3482 62.8209 56.5463 63.3387 56.6039L63.7478 56.6486C63.8533 56.7253 63.8246 56.981 63.7191 57.0257C63.3228 56.997 62.7315 56.981 62.0188 56.981C61.3956 56.981 60.865 56.997 60.1683 57.0257C60.0597 56.997 60.0149 56.7381 60.1076 56.6486L60.456 56.5879C60.6701 56.5559 60.8203 56.5112 60.8203 56.4345C60.8203 56.345 60.7149 56.2204 60.6094 56.0861C60.3217 55.7218 59.9254 55.3126 59.3501 54.6607L58.1356 53.296C57.2695 52.3245 57.0266 52.0208 56.6623 52.0208C56.4353 52.0208 56.4035 52.219 56.4035 52.7495V54.7086C56.4035 56.3003 56.4353 56.5144 57.2855 56.6039L57.6946 56.6486C57.7841 56.7093 57.7553 56.981 57.6659 57.0257C56.9212 56.997 56.4066 56.981 55.8153 56.981C55.1954 56.981 54.6776 56.997 54.0543 57.0257C53.9649 56.981 53.9329 56.7541 54.0224 56.6486L54.326 56.6039C55.1314 56.4824 55.1601 56.3003 55.1601 54.7086V49.2466Z" fill="#020A18" style="fill:#020A18;fill:color(display-p3 0.0078 0.0392 0.0941);fill-opacity:1;"/>
</g>
<mask id="mask3_10436_27908" style="mask-type:luminance" maskUnits="userSpaceOnUse" x="13" y="36" width="187" height="32">
<path d="M199.999 36.0415H13.6875V67.6595H199.999V36.0415Z" fill="white" style="fill:white;fill-opacity:1;"/>
</mask>
<g mask="url(#mask3_10436_27908)">
<path d="M68.5089 49.2466C68.5089 47.6679 68.4801 47.441 67.5821 47.3355L67.3392 47.3035C67.2497 47.2428 67.2784 46.9711 67.3679 46.9263C68.0199 46.9551 68.5377 46.9711 69.1577 46.9711H72.0118C72.9833 46.9711 73.8782 46.9711 74.0604 46.9263C74.1499 47.1852 74.2426 48.2751 74.3033 48.9431C74.2426 49.0325 73.9996 49.0645 73.9229 48.9718C73.696 48.2591 73.5586 47.7286 72.7692 47.5304C72.4496 47.4569 71.9638 47.441 71.2991 47.441H70.206C69.7522 47.441 69.7522 47.4697 69.7522 48.0482V51.0844C69.7522 51.5094 69.7968 51.5094 70.2539 51.5094H71.1329C71.7721 51.5094 72.2418 51.4807 72.424 51.4199C72.6062 51.3592 72.7116 51.2665 72.7884 50.8895L72.9098 50.2694C72.9866 50.1767 73.2422 50.1767 73.3029 50.2854C73.3029 50.6497 73.2422 51.2409 73.2422 51.8195C73.2422 52.366 73.3029 52.9412 73.3029 53.2768C73.2422 53.3823 72.9833 53.3823 72.9098 53.2928L72.7723 52.7015C72.7116 52.4298 72.6062 52.1998 72.3026 52.1263C72.0916 52.0656 71.7273 52.0495 71.1329 52.0495H70.2539C69.8001 52.0495 69.7522 52.0656 69.7522 52.4587V54.5968C69.7522 55.4022 69.7968 55.9167 70.0398 56.1756C70.2219 56.3578 70.5416 56.524 71.8775 56.524C73.044 56.524 73.4851 56.4632 73.8207 56.297C74.0923 56.1469 74.5046 55.613 74.8977 54.8269C75.0032 54.7502 75.2173 54.7981 75.278 54.9323C75.1726 55.4629 74.7922 56.6326 74.5941 57.0418C73.2294 57.0129 71.8775 56.997 70.5256 56.997H69.1609C68.5089 56.997 67.9912 57.0129 67.0963 57.0418C67.0068 56.997 66.9749 56.7541 67.0675 56.6646L67.5693 56.6198C68.4354 56.5431 68.5089 56.3162 68.5089 54.7246V49.2466Z" fill="#020A18" style="fill:#020A18;fill:color(display-p3 0.0078 0.0392 0.0941);fill-opacity:1;"/>
</g>
<mask id="mask4_10436_27908" style="mask-type:luminance" maskUnits="userSpaceOnUse" x="13" y="36" width="187" height="32">
<path d="M199.999 36.0415H13.6875V67.6595H199.999V36.0415Z" fill="white" style="fill:white;fill-opacity:1;"/>
</mask>
<g mask="url(#mask4_10436_27908)">
<path d="M89.0192 54.4055C89.0192 54.8593 89.0191 56.665 89.0639 57.0614C89.0351 57.1541 88.9424 57.2276 88.7762 57.2276C88.5941 56.9687 88.1531 56.4382 86.8331 54.936L83.3142 50.9314C82.9052 50.4616 81.8728 49.2183 81.5532 48.8828H81.5213C81.4606 49.0649 81.4446 49.4134 81.4446 49.8703V53.1782C81.4446 53.891 81.4606 55.8628 81.7163 56.3199C81.8057 56.4861 82.1094 56.5788 82.4897 56.6075L82.9595 56.6523C83.0522 56.7737 83.0362 56.9559 82.9308 57.0326C82.2468 57.0038 81.7163 56.9879 81.157 56.9879C80.5177 56.9879 80.1087 57.0038 79.5781 57.0326C79.4727 56.9559 79.4567 56.7449 79.5462 56.6523L79.9553 56.6075C80.3036 56.5628 80.5466 56.4701 80.6232 56.3039C80.8373 55.7574 80.8214 53.9069 80.8214 53.1782V48.7901C80.8214 48.365 80.8054 48.0455 80.489 47.697C80.278 47.4829 79.9137 47.3774 79.5494 47.3328L79.2905 47.3008C79.201 47.2113 79.201 46.9812 79.3193 46.9204C79.9553 46.9652 80.7607 46.9652 81.0323 46.9652C81.2752 46.9652 81.5341 46.9492 81.7322 46.9204C82.0359 47.6939 83.8256 49.6977 84.3274 50.2603L85.8007 51.9158C86.849 53.0855 87.5905 53.9325 88.3032 54.6612H88.3352C88.3959 54.5845 88.3959 54.3415 88.3959 54.0252V50.7813C88.3959 50.0685 88.38 48.0966 88.0923 47.6396C88.0028 47.5021 87.7599 47.4127 87.1527 47.3359L86.8938 47.3039C86.7883 47.2145 86.8044 46.9716 86.9225 46.9236C87.6193 46.9556 88.137 46.9684 88.7124 46.9684C89.3643 46.9684 89.7606 46.9524 90.2752 46.9236C90.3966 47.0004 90.3966 47.2113 90.3039 47.3039L90.0898 47.3359C89.604 47.4127 89.3004 47.5341 89.2397 47.6555C88.9808 48.202 89.0128 50.0845 89.0128 50.7813V54.4055H89.0192Z" fill="#020A18" style="fill:#020A18;fill:color(display-p3 0.0078 0.0392 0.0941);fill-opacity:1;"/>
</g>
<mask id="mask5_10436_27908" style="mask-type:luminance" maskUnits="userSpaceOnUse" x="13" y="36" width="187" height="32">
<path d="M199.999 36.0415H13.6875V67.6595H199.999V36.0415Z" fill="white" style="fill:white;fill-opacity:1;"/>
</mask>
<g mask="url(#mask5_10436_27908)">
<path d="M95.3932 48.9431C95.3932 47.882 95.3164 47.5624 94.6804 47.4697L94.3449 47.4249C94.2235 47.3514 94.2107 47.1085 94.3608 47.0478C95.6521 46.9711 96.8793 46.9263 98.1705 46.9263C99.4457 46.9263 100.523 47.019 101.51 47.3834C103.558 48.1281 104.591 49.8571 104.591 51.8578C104.591 53.785 103.664 55.4406 101.935 56.3801C100.947 56.9107 99.7041 57.1089 98.5349 57.1089C97.5632 57.1089 96.5917 56.9873 96.0611 56.9873C95.4252 56.9873 94.8786 57.0034 94.1628 57.0321C94.0732 56.9873 94.0412 56.7445 94.1339 56.6518L94.4823 56.607C95.3612 56.4856 95.3932 56.3034 95.3932 54.7118V48.9431ZM96.6364 54.3603C96.6364 55.1656 96.6812 55.6483 96.9401 56.0158C97.2725 56.4856 97.8509 56.639 98.8065 56.639C101.749 56.639 103.07 54.7118 103.07 51.8897C103.07 50.2214 102.264 47.3993 98.2919 47.3993C97.397 47.3993 96.9112 47.5209 96.7898 47.6136C96.6684 47.703 96.6396 48.0833 96.6396 48.7672V54.3603H96.6364Z" fill="#020A18" style="fill:#020A18;fill:color(display-p3 0.0078 0.0392 0.0941);fill-opacity:1;"/>
</g>
<mask id="mask6_10436_27908" style="mask-type:luminance" maskUnits="userSpaceOnUse" x="13" y="36" width="187" height="32">
<path d="M199.999 36.0415H13.6875V67.6595H199.999V36.0415Z" fill="white" style="fill:white;fill-opacity:1;"/>
</mask>
<g mask="url(#mask6_10436_27908)">
<path d="M109.652 49.2638C109.652 47.8224 109.608 47.5635 108.984 47.4867L108.499 47.426C108.393 47.3525 108.393 47.1097 108.514 47.0457C109.365 46.9691 110.413 46.9243 111.899 46.9243C112.838 46.9243 113.734 47.0009 114.433 47.3813C115.162 47.7584 115.693 48.4423 115.693 49.5035C115.693 50.9449 114.555 51.7343 113.795 52.0378C113.717 52.1274 113.795 52.2808 113.871 52.4022C115.085 54.3614 115.891 55.5726 116.92 56.4388C117.179 56.6657 117.559 56.8319 117.968 56.8639C118.045 56.8959 118.058 57.0173 117.985 57.078C117.85 57.1228 117.607 57.1547 117.317 57.1547C116.025 57.1547 115.252 56.7776 114.174 55.2435C113.778 54.681 113.158 53.6359 112.689 52.9519C112.462 52.6196 112.219 52.4662 111.612 52.4662C110.927 52.4662 110.899 52.4821 110.899 52.7985V54.7098C110.899 56.3013 110.93 56.4867 111.81 56.6081L112.125 56.6529C112.216 56.7297 112.186 56.9853 112.097 57.0332C111.414 57.0045 110.899 56.9885 110.292 56.9885C109.652 56.9885 109.109 57.0045 108.393 57.0332C108.304 56.9885 108.271 56.7615 108.364 56.6529L108.742 56.6081C109.624 56.5027 109.652 56.3046 109.652 54.7098V49.2638ZM110.896 51.4339C110.896 51.7055 110.896 51.8749 110.941 51.9356C110.985 51.9804 111.212 52.0124 111.985 52.0124C112.532 52.0124 113.107 51.9515 113.548 51.616C113.96 51.2964 114.308 50.7659 114.308 49.7336C114.308 48.535 113.564 47.3973 111.88 47.3973C110.941 47.3973 110.892 47.458 110.892 47.8831V51.4339H110.896Z" fill="#020A18" style="fill:#020A18;fill:color(display-p3 0.0078 0.0392 0.0941);fill-opacity:1;"/>
</g>
<mask id="mask7_10436_27908" style="mask-type:luminance" maskUnits="userSpaceOnUse" x="13" y="36" width="187" height="32">
<path d="M199.999 36.0415H13.6875V67.6595H199.999V36.0415Z" fill="white" style="fill:white;fill-opacity:1;"/>
</mask>
<g mask="url(#mask7_10436_27908)">
<path d="M126.704 53.4636C126.598 53.1312 126.538 53.0832 126.081 53.0832H123.79C123.409 53.0832 123.32 53.1279 123.214 53.4475L122.683 55.0392C122.457 55.7231 122.351 56.1322 122.351 56.2983C122.351 56.4806 122.429 56.57 122.792 56.602L123.295 56.6468C123.399 56.7234 123.399 56.9664 123.265 57.0271C122.869 56.9983 122.399 56.9983 121.686 56.9823C121.185 56.9823 120.639 57.0111 120.229 57.0271C120.14 56.9664 120.108 56.7234 120.2 56.6468L120.703 56.602C121.066 56.5733 121.402 56.4038 121.613 55.8573C121.887 55.1606 122.31 54.1731 122.949 52.4728L124.496 48.3755C124.71 47.829 124.799 47.5413 124.755 47.2985C125.119 47.193 125.378 46.9213 125.544 46.7231C125.634 46.7231 125.742 46.752 125.771 46.8573C125.969 47.5254 126.212 48.2221 126.439 48.8933L128.516 54.9944C128.958 56.2983 129.153 56.5254 129.808 56.602L130.217 56.6468C130.322 56.7234 130.293 56.9664 130.217 57.0271C129.596 56.9983 129.063 56.9823 128.382 56.9823C127.653 56.9823 127.078 57.0111 126.637 57.0271C126.516 56.9664 126.5 56.7234 126.608 56.6468L127.049 56.602C127.369 56.5733 127.58 56.4806 127.58 56.3303C127.58 56.1641 127.503 55.8893 127.382 55.525L126.704 53.4636ZM123.7 52.1116C123.579 52.46 123.594 52.476 124.019 52.476H125.887C126.327 52.476 126.356 52.4152 126.222 52.0061L125.403 49.5324C125.282 49.1681 125.144 48.759 125.055 48.5768H125.027C124.982 48.6536 124.829 49.0179 124.662 49.4717L123.7 52.1116Z" fill="#020A18" style="fill:#020A18;fill:color(display-p3 0.0078 0.0392 0.0941);fill-opacity:1;"/>
</g>
<mask id="mask8_10436_27908" style="mask-type:luminance" maskUnits="userSpaceOnUse" x="13" y="36" width="187" height="32">
<path d="M199.999 36.0415H13.6875V67.6596H199.999V36.0415Z" fill="white" style="fill:white;fill-opacity:1;"/>
</mask>
<g mask="url(#mask8_10436_27908)">
<path d="M142.636 57.2264C141.361 57.2264 140.555 56.8301 140.268 56.6639C140.085 56.3284 139.887 55.2513 139.859 54.5386C139.935 54.4332 140.163 54.4012 140.223 54.4939C140.45 55.2673 141.073 56.7534 142.835 56.7534C144.11 56.7534 144.732 55.9192 144.732 55.0084C144.732 54.3405 144.595 53.5958 143.49 52.883L142.048 51.9434C141.291 51.4416 140.408 50.5788 140.408 49.3323C140.408 47.8909 141.53 46.7212 143.506 46.7212C143.975 46.7212 144.522 46.8106 144.918 46.9193C145.116 46.9801 145.327 47.0088 145.449 47.0088C145.583 47.3731 145.72 48.2233 145.72 48.8593C145.659 48.9488 145.417 48.9967 145.341 48.904C145.142 48.1754 144.732 47.1878 143.275 47.1878C141.789 47.1878 141.469 48.1754 141.469 48.8721C141.469 49.751 142.198 50.3902 142.761 50.7386L143.975 51.496C144.931 52.0873 145.87 52.9662 145.87 54.4076C145.867 56.0887 144.608 57.2264 142.636 57.2264Z" fill="#020A18" style="fill:#020A18;fill:color(display-p3 0.0078 0.0392 0.0941);fill-opacity:1;"/>
</g>
<path d="M152.117 48.015C153.223 47.149 154.635 46.7271 156.215 46.7271C157.032 46.7271 158.187 46.8932 158.9 47.0914C159.081 47.1362 159.187 47.1681 159.324 47.1521C159.34 47.5005 159.414 48.4562 159.535 49.3829C159.459 49.4884 159.232 49.5045 159.126 49.415C158.9 48.3826 158.215 47.2001 156.016 47.2001C153.693 47.2001 151.722 48.6735 151.722 51.812C151.722 54.9984 153.738 56.7593 156.227 56.7593C158.184 56.7593 159.05 55.4842 159.398 54.5894C159.504 54.5126 159.73 54.5446 159.794 54.6501C159.688 55.4395 159.292 56.4398 159.066 56.7307C158.883 56.7594 158.702 56.82 158.535 56.884C158.203 57.0054 157.11 57.2323 156.138 57.2323C154.77 57.2323 153.466 56.9607 152.36 56.216C151.146 55.3819 150.207 54.0012 150.207 52.042C150.207 50.3545 150.964 48.9131 152.117 48.015Z" fill="#020A18" style="fill:#020A18;fill:color(display-p3 0.0078 0.0392 0.0941);fill-opacity:1;"/>
<path d="M163.676 52.0835C163.676 49.0506 165.952 46.7271 169.078 46.7271C172.583 46.7271 174.341 49.2615 174.341 51.9301C174.341 54.9952 172.005 57.2259 169.078 57.2259C165.709 57.2259 163.676 54.8162 163.676 52.0835ZM172.826 52.4033C172.826 49.9008 171.717 47.2001 168.822 47.2001C167.243 47.2001 165.194 48.2773 165.194 51.6011C165.194 53.8479 166.288 56.7593 169.276 56.7593C171.097 56.7562 172.826 55.3915 172.826 52.4033Z" fill="#020A18" style="fill:#020A18;fill:color(display-p3 0.0078 0.0392 0.0941);fill-opacity:1;"/>
<path d="M183.052 54.7055C183.052 56.2971 183.083 56.5272 183.963 56.6007L184.448 56.6455C184.537 56.7062 184.509 56.9779 184.417 57.0226C183.55 56.9938 183.036 56.9779 182.429 56.9779C181.821 56.9779 181.29 56.9938 180.319 57.0226C180.23 56.9779 180.198 56.719 180.319 56.6455L180.866 56.6007C181.728 56.524 181.805 56.2971 181.805 54.7055V47.9236C181.805 47.4537 181.805 47.4378 181.351 47.4378H180.517C179.865 47.4378 179.031 47.4665 178.651 47.815C178.286 48.1505 178.136 48.4829 177.966 48.8632C177.846 48.9527 177.634 48.8792 177.574 48.7577C177.816 48.0737 178.044 47.1022 178.149 46.4981C178.194 46.4662 178.392 46.4535 178.437 46.4981C178.526 46.9839 179.027 46.968 179.725 46.968H185.87C186.692 46.968 186.826 46.9392 187.053 46.5429C187.129 46.5109 187.296 46.527 187.324 46.5877C187.159 47.2077 187.053 48.4381 187.098 48.8952C187.037 49.0166 186.778 49.0166 186.702 48.9239C186.657 48.5436 186.552 47.9843 186.324 47.815C185.976 47.5561 185.397 47.4378 184.564 47.4378H183.487C183.033 47.4378 183.045 47.4537 183.045 47.9523V54.7055H183.052Z" fill="#020A18" style="fill:#020A18;fill:color(display-p3 0.0078 0.0392 0.0941);fill-opacity:1;"/>
<path d="M195.718 54.7055C195.718 56.2971 195.747 56.5272 196.629 56.6007L197.116 56.6455C197.205 56.7062 197.175 56.9779 197.083 57.0226C196.217 56.9938 195.702 56.9779 195.095 56.9779C194.488 56.9779 193.957 56.9938 192.985 57.0226C192.896 56.9779 192.865 56.719 192.985 56.6455L193.533 56.6007C194.396 56.524 194.472 56.2971 194.472 54.7055V47.9236C194.472 47.4537 194.472 47.4378 194.015 47.4378H193.18C192.529 47.4378 191.695 47.4665 191.314 47.815C190.95 48.1505 190.799 48.4829 190.63 48.8632C190.509 48.9527 190.298 48.8792 190.234 48.7577C190.477 48.0737 190.704 47.1022 190.813 46.4981C190.857 46.4662 191.055 46.4535 191.1 46.4981C191.189 46.9839 191.692 46.968 192.388 46.968H198.534C199.352 46.968 199.489 46.9392 199.717 46.5429C199.793 46.5109 199.959 46.527 199.992 46.5877C199.825 47.2077 199.717 48.4381 199.764 48.8952C199.703 49.0166 199.445 49.0166 199.368 48.9239C199.324 48.5436 199.215 47.9843 198.988 47.815C198.639 47.5561 198.061 47.4378 197.227 47.4378H196.15C195.693 47.4378 195.708 47.4537 195.708 47.9523V54.7055H195.718Z" fill="#020A18" style="fill:#020A18;fill:color(display-p3 0.0078 0.0392 0.0941);fill-opacity:1;"/>
</g>
</svg>
