<svg width="214" height="103" viewBox="0 0 214 103" fill="none" xmlns="http://www.w3.org/2000/svg">
<g clip-path="url(#clip0_13170_3942)">
<path d="M63.966 52.9602C69.261 59.2164 76.5798 68.9013 88.5794 64.9041C89.1556 64.7147 89.7556 65.1552 89.7031 65.7567C89.3698 69.6307 87.5222 73.2536 84.1557 74.2908C78.6178 75.9957 72.9895 72.1122 69.5038 68.1389C68.042 66.4718 66.7849 64.6342 65.5897 62.7682C64.985 61.8258 64.3945 60.8739 63.7992 59.922C63.6041 59.6094 61.8423 57.251 61.9613 57.0473C59.7995 60.7129 56.7472 63.1756 52.0616 63.1756C46.9523 63.1756 43 60.0309 43 55.6313C43 50.8101 46.738 47.7223 51.1664 47.7223C53.7473 47.7223 56.3805 48.5084 58.5947 49.6072C59.0186 48.6127 59.228 47.8265 59.547 46.5668C53.433 45.5722 46.7475 42.1671 46.7475 36.2472C46.7475 32.3164 49.4855 29.5412 53.3854 29.5412C57.9138 29.5412 59.8089 32.8942 59.8089 34.6228C59.8089 35.0443 59.547 35.409 59.0756 35.409C58.6519 35.409 57.9709 35.0443 57.2804 35.0443C55.9614 35.0443 54.8043 36.2993 54.8043 37.9758C54.8043 40.5427 56.909 42.7448 60.3375 43.7916C62.7088 34.045 65.185 28.1772 71.5038 28.1772C75.1941 28.1772 77.7227 30.2752 77.7227 33.8366C77.7227 39.2308 72.7181 45.468 66.0278 46.5668C65.3944 48.8211 64.7087 50.9712 63.9754 52.9602H63.966ZM57.59 52.8039C56.3234 51.9136 54.533 50.9712 53.0092 50.9712C51.3235 50.9712 50.0045 52.0698 50.0045 53.5901C50.0045 55.2145 51.214 56.1569 52.5854 56.1569C55.0091 56.1569 56.6948 54.7978 57.59 52.8039ZM66.704 43.9005C71.1848 42.8017 73.6037 38.2931 73.6037 35.6221C73.6037 34.6749 72.8752 33.8887 71.9181 33.8461C69.8086 33.7514 68.2516 36.4935 66.6992 43.9005H66.704Z" fill="#020A18" style="fill:#020A18;fill:color(display-p3 0.0078 0.0392 0.0941);fill-opacity:1;"/>
<path d="M90.5948 48.9965C90.5948 54.8642 86.8569 59.8937 80.3761 59.8937C75.7429 59.8937 72.7383 57.2227 72.7383 53.0314C72.7383 47.9497 76.7952 42.8682 84.0092 42.8682C87.9092 42.8682 90.5948 45.3829 90.5948 48.9965ZM85.6426 50.0951C84.0093 49.4652 83.5378 48.8922 83.5378 47.945C83.5378 46.6331 84.3283 46.2164 84.3283 45.9038C84.3283 45.6434 84.1712 45.4823 83.8522 45.4823C83.6426 45.4823 83.1142 45.6387 82.3809 46.2164C81.0618 47.2677 79.7999 49.2047 79.7999 52.1883C79.7999 54.5469 81.1713 56.0672 83.2236 56.0672C85.276 56.0672 86.7045 53.9171 86.7045 52.0843C86.7045 51.1939 86.3855 50.4077 85.6473 50.0951H85.6426Z" fill="#020A18" style="fill:#020A18;fill:color(display-p3 0.0078 0.0392 0.0941);fill-opacity:1;"/>
<path d="M93.3409 45.0136C93.3409 43.8627 96.1312 43.0766 99.1882 43.0766C100.35 43.0766 100.979 43.5501 100.979 44.4405C100.979 46.7468 99.0836 51.0944 99.0836 54.2912C99.0836 55.1294 99.5597 55.4941 100.241 55.4941C102.507 55.4941 105.298 51.9327 105.298 49.2616C105.298 48.2671 103.979 47.8977 103.979 46.0649C103.979 44.2321 105.402 43.0766 107.14 43.0766C109.14 43.0766 110.355 44.4925 110.355 46.7942C110.355 52.2452 103.35 59.6854 96.2408 59.6854C93.3456 59.6854 91.9219 57.8004 91.9219 55.6503C91.9219 52.1885 93.6599 48.5796 93.6599 46.69C93.6599 45.7997 93.3456 45.6955 93.3456 45.0136H93.3409Z" fill="#020A18" style="fill:#020A18;fill:color(display-p3 0.0078 0.0392 0.0941);fill-opacity:1;"/>
<path d="M126.53 54.9682C127.054 54.6036 127.425 54.3384 127.74 54.3384C128.159 54.3384 128.425 54.6557 128.425 54.9682C128.425 55.4939 128.111 55.9106 127.268 56.749C126.106 57.9045 123.787 59.8415 119.945 59.8415C114.997 59.8415 111.359 57.644 111.359 52.6145C111.359 47.585 115.469 42.9722 122.473 42.9722C126.059 42.9722 127.687 44.5446 127.687 46.7989C127.687 49.7872 124.159 52.6666 118.892 53.0881C118.892 54.9209 120.578 56.337 122.578 56.337C124.373 56.337 125.687 55.5508 126.53 54.973V54.9682ZM123.845 46.4294C123.845 45.6432 123.426 45.2265 122.578 45.2265C121.002 45.2265 118.892 47.7933 118.892 50.8811C121.897 50.3034 123.845 47.6844 123.845 46.4294Z" fill="#020A18" style="fill:#020A18;fill:color(display-p3 0.0078 0.0392 0.0941);fill-opacity:1;"/>
<path d="M140.397 49.4648C143.321 49.4648 144.859 51.0749 144.859 52.4294C144.859 53.514 144.04 54.3475 142.949 54.3475C140.845 54.3475 141.821 51.9463 140.278 51.9463C139.421 51.9463 138.954 52.8177 138.954 53.5944C138.954 55.0295 140.025 56.4833 141.563 56.4833C142.792 56.4833 143.201 55.9814 143.611 55.9814C144.14 55.9814 144.487 56.5638 144.487 57.028C144.487 58.1693 142.735 59.6421 140.006 59.6421C137.064 59.6421 134.688 57.492 134.688 54.5274C134.688 51.7379 137.121 49.4694 140.397 49.4694V49.4648Z" fill="#020A18" style="fill:#020A18;fill:color(display-p3 0.0078 0.0392 0.0941);fill-opacity:1;"/>
<path d="M145.478 54.8918C145.478 51.425 148.534 49.4643 151.749 49.4643C155.158 49.4643 157.106 52.1213 157.106 54.5223C157.106 57.7002 153.677 59.6372 150.811 59.6372C147.944 59.6372 145.473 57.9511 145.473 54.8918H145.478ZM150.915 51.7518C150.273 51.7518 149.92 52.3532 149.963 52.9168C150.039 54.1387 150.392 57.1223 151.734 57.1981C152.472 57.236 152.63 56.6156 152.63 55.9951C152.63 55.1238 152.239 51.7518 150.915 51.7518Z" fill="#020A18" style="fill:#020A18;fill:color(display-p3 0.0078 0.0392 0.0941);fill-opacity:1;"/>
<path d="M158.821 53.9589C158.821 52.718 158.568 52.3724 158.373 52.1971C158.121 51.984 157.849 52.003 157.849 51.501C157.849 50.0661 162.682 49.5262 162.721 49.5262C163.206 49.5262 163.244 49.9523 163.244 50.3597C163.244 50.5916 163.168 51.2499 163.578 51.2499C163.773 51.2499 164.082 50.8237 164.63 50.3785C165.178 49.9523 165.954 49.5262 167.106 49.5262C169.425 49.5262 169.444 51.2499 169.854 51.2499C170.011 51.2499 170.358 50.8237 170.925 50.3785C171.511 49.9523 172.287 49.5262 173.282 49.5262C175.134 49.5262 176.282 50.5349 176.282 52.4339V56.521C176.282 57.6435 177.001 57.7429 177.001 58.3018C177.001 59.5236 174.782 59.5805 174.02 59.5805C173.377 59.5805 171.116 59.4431 171.116 58.4391C171.116 57.724 171.796 57.7429 171.796 56.6157V54.873C171.796 54.0584 171.892 52.4339 170.782 52.4339C169.673 52.4339 169.787 53.7505 169.787 54.4704V55.6733C169.787 58.0555 170.487 57.6482 170.487 58.3681C170.487 59.571 168.149 59.59 167.449 59.59C164.506 59.59 164.354 59.0453 164.373 58.5054C164.392 57.4777 165.368 58.2923 165.306 55.9859V54.8825C165.306 54.1862 165.401 52.4434 164.292 52.4434C163.182 52.4434 163.297 53.76 163.297 54.4798V56.0475C163.297 57.8282 163.821 57.7145 163.821 58.4106C163.821 58.9127 163.373 59.5946 160.702 59.5946C159.94 59.5946 157.645 59.6136 157.645 58.5859C157.645 57.7145 158.816 58.1786 158.816 55.7585V53.9779L158.821 53.9589Z" fill="#020A18" style="fill:#020A18;fill:color(display-p3 0.0078 0.0392 0.0941);fill-opacity:1;"/>
<path d="M131.327 59.6332C132.416 59.6332 133.298 58.7554 133.298 57.6725C133.298 56.5898 132.416 55.7119 131.327 55.7119C130.238 55.7119 129.355 56.5898 129.355 57.6725C129.355 58.7554 130.238 59.6332 131.327 59.6332Z" fill="#020A18" style="fill:#020A18;fill:color(display-p3 0.0078 0.0392 0.0941);fill-opacity:1;"/>
</g>
<defs>
<clipPath id="clip0_13170_3942">
<rect width="134" height="46.6456" fill="white" style="fill:white;fill-opacity:1;" transform="translate(43 28.1772)"/>
</clipPath>
</defs>
</svg>
