<svg width="214" height="103" viewBox="0 0 214 103" fill="none" xmlns="http://www.w3.org/2000/svg">
<g clip-path="url(#clip0_10777_1992)">
<path d="M30.8623 42.6674V55.9162H38.7926V58.9079H27.3008V42.6674H30.8623ZM51.8515 57.7207C50.6168 58.8129 48.9073 59.3353 46.7704 59.3353C44.586 59.3353 42.829 58.8129 41.6418 57.7207C40.4547 56.6285 39.8373 55.014 39.8373 52.7821V42.6674H43.3988V52.7821C43.3988 53.2095 43.4463 53.6843 43.4938 54.1117C43.5413 54.5391 43.7312 54.919 43.9687 55.2514C44.2061 55.5838 44.5385 55.8212 44.9659 56.0587C45.3933 56.2486 45.9631 56.3436 46.6754 56.3436C47.9576 56.3436 48.8123 56.0587 49.3347 55.4888C49.8096 54.919 50.047 54.0167 50.047 52.8296V42.6674H53.6085V52.7821C53.7035 55.014 53.0862 56.6285 51.8515 57.7207ZM59.0695 42.6674V58.9079H55.508V42.6674H59.0695ZM64.1981 54.919C64.388 55.2989 64.673 55.5838 65.0054 55.8212C65.3378 56.0587 65.7177 56.2486 66.1451 56.3436C66.5724 56.4386 67.0473 56.4861 67.5222 56.4861C67.8546 56.4861 68.187 56.4386 68.5194 56.4386C68.8993 56.3911 69.2317 56.2961 69.5166 56.1537C69.849 56.0112 70.0865 55.7738 70.3239 55.5363C70.5139 55.2514 70.6563 54.9665 70.6563 54.5391C70.6563 54.1117 70.5139 53.7318 70.2289 53.4469C69.944 53.162 69.5641 52.972 69.1367 52.7821C68.7094 52.5921 68.1395 52.4497 67.6172 52.3072C67.0473 52.1648 66.43 52.0223 65.8601 51.8323C65.2428 51.6899 64.673 51.4999 64.1031 51.2625C63.5333 51.0251 63.0109 50.7876 62.5835 50.4077C62.1562 50.0278 61.7763 49.6005 61.4913 49.0781C61.2064 48.5557 61.064 47.9384 61.064 47.1786C61.064 46.3239 61.2064 45.6116 61.5863 44.9942C61.9662 44.3769 62.3936 43.8545 63.0109 43.4746C63.5808 43.0473 64.2456 42.7623 64.9579 42.5724C65.6702 42.3825 66.43 42.2875 67.1423 42.2875C67.9971 42.2875 68.8043 42.3825 69.6116 42.5724C70.4189 42.7623 71.0837 43.0473 71.701 43.4746C72.3184 43.902 72.7932 44.4719 73.1256 45.0892C73.458 45.7065 73.648 46.5613 73.648 47.511H70.1814C70.134 47.0362 70.039 46.6088 69.8965 46.3239C69.7541 45.9915 69.5166 45.754 69.2317 45.5641C68.9468 45.3741 68.6144 45.2317 68.2345 45.1842C67.7596 45.1367 67.3322 45.0892 66.9049 45.0892C66.6199 45.0892 66.335 45.1367 66.0501 45.1842C65.7652 45.2792 65.5277 45.3741 65.2903 45.5166C65.0529 45.659 64.8629 45.849 64.7205 46.0864C64.578 46.3239 64.483 46.6088 64.483 46.9412C64.483 47.2736 64.5305 47.511 64.673 47.7485C64.8154 47.9384 65.0529 48.1284 65.3853 48.3183C65.7652 48.4608 66.24 48.6507 66.8574 48.7932C67.4747 48.9356 68.282 49.1731 69.3267 49.458C69.6116 49.5055 70.039 49.6005 70.6088 49.7904C71.1312 49.9329 71.701 50.2178 72.2234 50.5502C72.7457 50.9301 73.2206 51.3575 73.6005 51.9748C73.9804 52.5446 74.1703 53.3044 74.1703 54.2067C74.1703 54.9665 74.0279 55.6313 73.743 56.2486C73.458 56.9134 73.0307 57.4358 72.4608 57.9107C71.891 58.3855 71.1787 58.7179 70.3239 59.0029C69.4691 59.2878 68.4719 59.3828 67.3797 59.3828C66.4775 59.3828 65.6227 59.2878 64.7679 59.0504C63.9132 58.8129 63.1534 58.4805 62.5361 58.0056C61.8712 57.5308 61.3964 56.9134 61.0165 56.2011C60.6366 55.4888 60.4466 54.5866 60.4466 53.6368H63.9132C63.9132 54.0642 64.0081 54.5391 64.1981 54.919ZM83.6202 42.6674L89.6986 58.9079H85.9946L84.7599 55.2989H78.6816L77.3995 58.9079H73.7905L79.9163 42.6674H83.6202ZM83.8102 52.6396L81.7682 46.6563H81.7208L79.5839 52.6396H83.8102ZM91.3606 58.9554L85.7097 42.6674H89.3662L93.3551 54.1117H93.4025L97.059 42.6674H100.763L95.397 58.9079H91.3606V58.9554ZM105.227 42.6674V58.9079H101.665V42.6674H105.227ZM116.006 42.6674L122.085 58.9079H118.381L117.146 55.2989H111.068L109.786 58.9079H106.177L112.302 42.6674H116.006ZM116.196 52.6396L114.154 46.6563H114.107L111.97 52.6396H116.196ZM136.426 47.4635C136.806 46.4188 137.328 45.5166 137.993 44.7568C138.658 43.9495 139.512 43.3797 140.51 42.9048C141.507 42.4774 142.646 42.24 143.881 42.24C145.163 42.24 146.255 42.4774 147.253 42.9048C148.25 43.3322 149.105 43.9495 149.769 44.7568C150.434 45.5641 150.957 46.4188 151.337 47.4635C151.716 48.5083 151.906 49.6005 151.906 50.8826C151.906 52.0698 151.716 53.162 151.337 54.1592C150.957 55.1564 150.434 56.1062 149.769 56.8185C149.105 57.5783 148.25 58.1481 147.253 58.623C146.255 59.0504 145.116 59.2878 143.881 59.2878C142.646 59.2878 141.507 59.0504 140.51 58.623C139.512 58.1956 138.658 57.6257 137.993 56.8185C137.328 56.0587 136.806 55.1564 136.426 54.1592C136.046 53.162 135.856 52.0223 135.856 50.8826C135.856 49.6479 136.046 48.5083 136.426 47.4635ZM139.702 52.8771C139.845 53.5419 140.13 54.1117 140.462 54.5866C140.842 55.1089 141.269 55.4888 141.839 55.8212C142.409 56.1537 143.074 56.2961 143.881 56.2961C144.688 56.2961 145.401 56.1537 145.923 55.8212C146.493 55.4888 146.92 55.1089 147.3 54.5866C147.68 54.0642 147.87 53.4944 148.06 52.8771C148.202 52.2122 148.297 51.5474 148.297 50.8826C148.297 50.1703 148.25 49.458 148.06 48.8407C147.917 48.1759 147.633 47.5585 147.3 47.0362C146.92 46.5138 146.493 46.0864 145.923 45.8015C145.353 45.4691 144.688 45.3266 143.881 45.3266C143.074 45.3266 142.362 45.4691 141.839 45.8015C141.269 46.1339 140.842 46.5138 140.462 47.0362C140.082 47.5585 139.892 48.1284 139.702 48.8407C139.56 49.5055 139.465 50.2178 139.465 50.8826C139.465 51.5474 139.512 52.2122 139.702 52.8771ZM158.175 42.6674L161.974 53.8268H162.021L165.63 42.6674H170.664V58.9079H167.34V47.4161H167.292L163.303 58.9554H160.549L156.56 47.511H156.513V58.9554H153.141V42.6674H158.175ZM180.921 42.6674L186.999 58.9079H183.295L182.061 55.2989H175.982L174.748 58.9079H171.139L177.264 42.6674H180.921ZM181.111 52.6396L179.069 46.6563H179.021L176.885 52.6396H181.111Z" fill="#020A18" style="fill:#020A18;fill:color(display-p3 0.0078 0.0392 0.0941);fill-opacity:1;"/>
<path d="M137.043 58.7653H133.244L129.587 51.8323C129.54 51.7373 129.445 51.6423 129.587 51.5473C131.202 50.4551 133.007 48.8881 132.342 47.0836C131.772 45.564 130.205 45.1366 128.4 45.0891H126.263V58.7653H122.797V42.4298H130.395C132.247 42.3349 134.716 43.522 135.238 45.8489C135.523 47.131 135.761 50.1227 133.197 52.0697L137.043 58.7653Z" fill="#020A18" style="fill:#020A18;fill:color(display-p3 0.0078 0.0392 0.0941);fill-opacity:1;"/>
</g>
<defs>
<clipPath id="clip0_10777_1992">
<rect width="159.698" height="21.3691" fill="white" style="fill:white;fill-opacity:1;" transform="translate(27.3008 40.8153)"/>
</clipPath>
</defs>
</svg>
