<svg width="214" height="103" viewBox="0 0 214 103" fill="none" xmlns="http://www.w3.org/2000/svg">
<path d="M65.3652 62.2923L52.8203 67.762L40.2773 62.2923L42.0645 58.7894L52.8203 63.5403L63.5781 58.7894L65.3652 62.2923ZM96.6406 45.7786C99.1356 45.7787 101.801 46.5778 102.725 48.3616C103.274 49.411 103.306 50.2496 103.306 51.053L103.165 59.4359C103.165 59.7146 103.202 62.057 103.44 63.8362H100.536C100.297 62.9655 100.229 62.126 100.229 61.2161C98.6936 64.1184 96.3685 64.3968 94.9307 64.3968C91.0028 64.3966 88.8906 62.1259 88.8906 59.2269C88.8907 57.8266 89.3661 55.592 91.8984 54.0901C93.7403 53.0442 96.4738 52.9407 97.8379 52.9407C98.657 52.9407 99.1723 52.9738 100.162 53.0443C100.162 50.8782 100.161 49.9332 99.5469 49.1673C98.897 48.2919 97.4983 48.0131 96.5742 48.013C93.3305 48.013 93.1591 50.2832 93.123 50.9818H89.918C90.0166 50.0766 90.1188 48.853 91.1084 47.6644C92.4099 46.1968 94.8316 45.7786 96.6406 45.7786ZM119.262 45.7786C121.758 45.7786 124.418 46.5777 125.342 48.3616C125.888 49.411 125.925 50.2496 125.925 51.053L125.787 59.4359C125.787 59.7146 125.823 62.057 126.061 63.8362H123.158C122.92 62.9655 122.851 62.126 122.851 61.2161C121.313 64.1183 118.988 64.3968 117.558 64.3968C113.628 64.3968 111.508 62.126 111.508 59.2269C111.508 57.8266 111.99 55.592 114.518 54.0901C116.363 53.044 119.091 52.9407 120.46 52.9407C121.277 52.9407 121.792 52.9738 122.781 53.0443C122.781 50.8783 122.783 49.9331 122.169 49.1673C121.517 48.2918 120.115 48.013 119.195 48.013C115.95 48.0132 115.781 50.2832 115.747 50.9818H112.535C112.637 50.0765 112.741 48.8531 113.73 47.6644C115.027 46.1969 117.454 45.7787 119.262 45.7786ZM150.944 46.2991H154.769V48.7103H150.944V59.1585C150.944 60.0293 150.944 61.4982 153.233 61.4984C153.883 61.4984 154.494 61.3916 154.769 61.3196V63.8714C154.189 63.9763 153.269 64.0794 152.105 64.0794C149.169 64.0794 147.769 63.2094 147.769 60.345V48.7103H144.731V46.2991H147.769V42.5618L150.944 41.515V46.2991ZM80.9199 38.6155C83.9271 38.6155 85.9806 38.7941 87.6533 40.6439C88.8828 41.9344 89.4619 43.6464 89.4619 45.5306C89.4618 47.4522 88.8469 49.0954 87.5156 50.4564C86.2157 51.7828 84.513 52.6263 80.0684 52.6263H76.0742V63.8362H72.6582V38.6155H80.9199ZM109.344 38.6175V63.8362H106.137V38.6175H109.344ZM160.582 46.2991V63.8362H157.368V46.2991H160.582ZM172.045 46.1292C172.412 46.1244 172.729 46.1426 173.002 46.1614V49.3753C172.833 49.3079 172.626 49.269 172.385 49.2376C172.145 49.2017 171.842 49.2015 171.465 49.2015C167.675 49.2015 166.784 51.5061 166.784 54.5101V63.8362H163.54V49.8616C163.54 48.6762 163.472 47.4533 163.368 46.2991H166.614L166.681 49.6878C167.293 47.2462 169.346 46.4398 170.78 46.2298C171.259 46.161 171.678 46.1339 172.045 46.1292ZM137.509 45.9505C139.044 45.9505 143.726 46.5461 143.727 51.9241V63.8343H140.445V52.6927C140.445 51.5386 140.31 50.4927 139.525 49.6878C138.702 48.8843 137.577 48.5013 136.485 48.5013C134.161 48.5013 132.012 50.214 132.012 53.7396V63.8343H128.8V48.3275L128.768 46.2991H131.978L132.012 49.1321C132.386 48.3988 133.614 45.9505 137.509 45.9505ZM98.3174 55.2073C97.0172 55.2073 92.135 55.2084 92.1348 58.7728C92.1348 59.8895 92.816 61.8109 95.6885 61.8109C97.3266 61.8108 98.5563 61.1498 99.3457 59.9251C100.063 58.7395 100.093 57.7577 100.162 55.3128C99.5779 55.2423 99.1036 55.2073 98.3174 55.2073ZM120.938 55.2073C119.638 55.2073 114.754 55.2083 114.754 58.7728C114.754 59.8895 115.438 61.8108 118.308 61.8109C119.947 61.8109 121.175 61.1498 121.963 59.9251C122.679 58.7395 122.711 57.7577 122.781 55.3128C122.204 55.2424 121.723 55.2074 120.938 55.2073ZM52.8203 35.2523C59.4673 35.2523 64.8562 40.764 64.8564 47.5628C64.8564 54.3603 59.4674 59.8694 52.8203 59.8694C46.1748 59.8694 40.7871 54.3603 40.7871 47.5628C40.7873 40.7639 46.1749 35.2523 52.8203 35.2523ZM52.8203 39.0628C48.225 39.0628 44.499 42.8723 44.499 47.5726C44.4991 52.2728 48.225 56.0843 52.8203 56.0843C57.4156 56.0843 61.1415 52.2728 61.1416 47.5726C61.1416 42.8723 57.4156 39.0628 52.8203 39.0628ZM76.0742 41.4446V49.6878H80.1328C82.3929 49.6878 85.8436 49.515 85.8438 45.3929C85.8438 41.4432 82.6298 41.4446 80.8506 41.4446H76.0742ZM160.888 38.6175V42.2835H157.026V38.6175H160.888Z" fill="#020A18" style="fill:#020A18;fill:color(display-p3 0.0078 0.0392 0.0941);fill-opacity:1;"/>
</svg>
