<svg width="154" height="50" viewBox="0 0 154 50" fill="none" xmlns="http://www.w3.org/2000/svg">
<mask id="mask0_7916_53404" style="mask-type:luminance" maskUnits="userSpaceOnUse" x="2" y="3" width="150" height="43">
<path d="M151.721 3H2V46H151.721V3Z" fill="white"/>
</mask>
<g mask="url(#mask0_7916_53404)">
<path d="M70.1825 31.662H67.7187C67.4977 31.662 67.4153 31.4577 67.3156 31.2594L64.4089 26.3664H63.9628C63.436 26.3664 61.805 26.3091 61.3409 26.2834V31.2594C61.3409 31.4798 61.1779 31.662 60.9551 31.662H58.9377C58.8312 31.6613 58.7291 31.6187 58.6538 31.5434C58.5784 31.468 58.5358 31.366 58.5352 31.2594V18.0351C58.5352 17.6302 58.7741 17.4893 59.1802 17.4296C60.2313 17.2677 62.487 17.168 63.9622 17.168C67.0689 17.168 69.9392 18.2782 69.9392 21.7284V21.9105C69.9392 24.0474 68.8701 25.2167 67.2158 25.8587L70.3815 31.2594C70.4235 31.3203 70.4235 31.3771 70.4235 31.4225C70.4245 31.5592 70.3435 31.662 70.1825 31.662ZM67.1549 21.7284C67.1549 20.215 65.9808 19.57 63.9628 19.57C63.5375 19.57 61.7017 19.61 61.3409 19.6494V24.0259C61.6605 24.0456 63.6158 24.0868 63.9628 24.0868C66.0387 24.0868 67.1549 23.6855 67.1549 21.9105V21.7284ZM75.8035 27.6868C75.8035 29.3794 75.8685 29.4236 77.3945 29.4236H82.5025C82.6105 29.4239 82.7125 29.4665 82.7885 29.5421C82.8645 29.6177 82.9075 29.7202 82.9075 29.8273V31.1161C82.9075 31.401 82.8065 31.5019 82.5025 31.5407C81.8575 31.6422 80.5435 31.822 78.1435 31.822C74.7945 31.822 73.0175 31.8453 73.0175 27.6868V21.3025C73.0175 17.1453 74.7945 17.1686 78.1435 17.1686C80.5435 17.1686 81.8575 17.3507 82.5025 17.4505C82.8065 17.4893 82.9075 17.592 82.9075 17.8751V19.1645C82.9075 19.3849 82.7255 19.5706 82.5025 19.5706H77.3945C75.8685 19.5706 75.8035 19.6154 75.8035 21.3025V23.1539H82.2615C82.3685 23.1544 82.4705 23.1967 82.5455 23.2718C82.6215 23.3469 82.6645 23.4487 82.6655 23.5553V25.0119C82.6655 25.1187 82.6225 25.2209 82.5465 25.2963C82.4705 25.3718 82.3685 25.4144 82.2615 25.415H75.8035V27.6868ZM91.9675 31.822C88.7215 31.822 85.9255 30.4108 85.9255 26.1102V17.7132C85.9255 17.4893 86.1095 17.3286 86.3315 17.3286H88.3255C88.5495 17.3286 88.7295 17.4893 88.7295 17.7132V26.1102C88.7295 28.4119 89.7935 29.5036 91.9685 29.5036C94.1495 29.5036 95.2125 28.4119 95.2125 26.1102V17.7132C95.2125 17.4893 95.3925 17.3286 95.6145 17.3286H97.6115C97.8355 17.3286 98.0175 17.4893 98.0175 17.7132V26.1102C98.0165 30.4102 95.2185 31.822 91.9675 31.822ZM111.284 19.6679H107.258V31.2594C107.257 31.3667 107.213 31.469 107.137 31.5443C107.06 31.6195 106.957 31.6618 106.85 31.662H104.853C104.746 31.6615 104.644 31.619 104.568 31.5437C104.492 31.4683 104.449 31.3662 104.449 31.2594V19.6679H100.42C100.201 19.6679 100.019 19.5294 100.019 19.3072V17.7132C100.019 17.4893 100.201 17.3286 100.42 17.3286H111.283C111.501 17.3286 111.683 17.4893 111.683 17.7132V19.3072C111.684 19.5294 111.502 19.6679 111.284 19.6679ZM138.686 31.662H136.223C136.001 31.662 135.922 31.4577 135.821 31.2594L132.913 26.3664H132.463C131.942 26.3664 130.309 26.3091 129.842 26.2834V31.2594C129.842 31.4798 129.682 31.662 129.461 31.662H127.446C127.339 31.6618 127.236 31.6194 127.16 31.544C127.085 31.4686 127.042 31.3664 127.041 31.2594V18.0351C127.041 17.6302 127.28 17.4893 127.685 17.4296C128.733 17.2677 130.993 17.168 132.462 17.168C135.572 17.168 138.441 18.2782 138.441 21.7284V21.9105C138.441 24.0474 137.37 25.2167 135.716 25.8587L138.888 31.2594C138.919 31.308 138.933 31.3652 138.929 31.4225C138.929 31.5592 138.846 31.662 138.686 31.662ZM135.659 21.7284C135.659 20.215 134.485 19.57 132.463 19.57C132.042 19.57 130.206 19.61 129.842 19.6494V24.0259C130.169 24.0456 132.126 24.0868 132.463 24.0868C134.545 24.0868 135.659 23.6855 135.659 21.9105V21.7284ZM146.387 31.831C144.604 31.831 142.797 31.5252 141.826 31.3024C141.627 31.2618 141.443 31.1215 141.443 30.8999V29.4463C141.443 29.2259 141.627 29.0622 141.826 29.0622H141.866C142.675 29.1638 144.564 29.426 146.429 29.426C148.223 29.426 148.773 28.7833 148.773 27.6146C148.773 26.1006 145.16 25.2627 143.396 24.5365C141.641 23.8103 141.019 22.4199 141.019 21.0093C141.019 18.7882 142.806 17.1739 146.559 17.1739C148.482 17.1739 150.244 17.5394 150.929 17.7043C151.132 17.7449 151.29 17.8864 151.29 18.0871V19.5801C151.29 19.7796 151.153 19.9427 150.948 19.9427H150.909C149.576 19.8226 148.195 19.5772 146.441 19.5772C144.946 19.5772 143.827 20.1015 143.827 21.0093C143.827 21.6734 144.585 22.2832 145.481 22.6391C146.377 22.9921 147.552 23.449 148.894 23.9888C150.594 24.6762 151.696 25.6778 151.696 27.6146C151.695 29.6511 150.425 31.831 146.387 31.831ZM116.546 27.6868C116.546 29.3794 116.609 29.4236 118.138 29.4236H123.25C123.356 29.4251 123.457 29.4683 123.532 29.5438C123.607 29.6192 123.649 29.721 123.65 29.8273V31.1161C123.65 31.401 123.548 31.5019 123.25 31.5407C122.6 31.6422 121.288 31.822 118.888 31.822C115.532 31.822 113.759 31.8453 113.759 27.6868V21.3025C113.759 17.1453 115.532 17.1686 118.888 17.1686C121.288 17.1686 122.6 17.3507 123.25 17.4505C123.548 17.4893 123.65 17.592 123.65 17.8751V19.1645C123.65 19.3849 123.467 19.5706 123.25 19.5706H118.138C116.609 19.5706 116.546 19.6154 116.546 21.3025V23.1539H123.004C123.228 23.1539 123.404 23.3373 123.404 23.5553V25.0119C123.405 25.1184 123.363 25.2207 123.288 25.2962C123.213 25.3718 123.111 25.4145 123.004 25.415H116.546V27.6868Z" fill="#020a18"/>
<path d="M22.5332 18.2036C22.7661 18.6378 22.6079 19.1825 22.1719 19.4178C21.9616 19.5307 21.7151 19.5554 21.4865 19.4867C21.258 19.4179 21.0661 19.2613 20.953 19.0511C20.7141 18.6175 20.8789 18.0717 21.3137 17.8376C21.4177 17.7811 21.5319 17.7457 21.6496 17.7336C21.7673 17.7214 21.8863 17.7327 21.9997 17.7667C22.113 17.8007 22.2185 17.8569 22.3101 17.9319C22.4017 18.0068 22.4775 18.0992 22.5332 18.2036ZM18.0964 25.2282C17.974 25.2962 17.8832 25.4097 17.8436 25.5441C17.8041 25.6785 17.819 25.8231 17.885 25.9466C17.9176 26.0078 17.9622 26.0618 18.016 26.1055C18.0698 26.1492 18.1318 26.1817 18.1984 26.2011C18.2649 26.2205 18.3347 26.2263 18.4035 26.2183C18.4724 26.2103 18.539 26.1886 18.5993 26.1545C18.6611 26.1227 18.7159 26.0787 18.7603 26.0253C18.8048 25.9719 18.838 25.9101 18.8581 25.8435C18.8782 25.777 18.8846 25.7071 18.8771 25.638C18.8696 25.5689 18.8482 25.502 18.8143 25.4414C18.7469 25.3184 18.6336 25.2271 18.4992 25.1871C18.3648 25.1472 18.22 25.162 18.0964 25.2282ZM18.0069 23.0686C17.8648 23.1465 17.7592 23.2774 17.713 23.4327C17.6668 23.588 17.6838 23.7553 17.7602 23.8982C17.9256 24.2016 18.2971 24.3108 18.5975 24.1508C18.8943 23.9883 19.0078 23.6091 18.8471 23.3147C18.8085 23.243 18.756 23.1796 18.6927 23.1284C18.6294 23.0771 18.5566 23.0389 18.4784 23.016C18.4003 22.9931 18.3183 22.986 18.2374 22.995C18.1564 23.004 18.0781 23.0291 18.0069 23.0686ZM18.567 20.9903C18.4033 21.0795 18.2812 21.2295 18.227 21.4079C18.1728 21.5863 18.1909 21.7789 18.2774 21.9441C18.4655 22.2839 18.8925 22.4153 19.233 22.2295C19.3147 22.1858 19.3871 22.1264 19.4459 22.0547C19.5047 21.983 19.5487 21.9004 19.5755 21.8116C19.6023 21.7228 19.6113 21.6297 19.602 21.5374C19.5928 21.4451 19.5654 21.3556 19.5214 21.274C19.4314 21.1109 19.2809 20.9897 19.1023 20.9366C18.9238 20.8835 18.7315 20.9028 18.567 20.9903ZM19.7101 19.1926C19.6176 19.2417 19.5357 19.3087 19.4692 19.3897C19.4028 19.4706 19.3531 19.564 19.323 19.6644C19.293 19.7647 19.2831 19.87 19.2941 19.9742C19.3051 20.0784 19.3367 20.1794 19.387 20.2712C19.5961 20.6529 20.0703 20.798 20.4549 20.5896C20.5471 20.5411 20.6289 20.4749 20.6953 20.3947C20.7618 20.3144 20.8117 20.2218 20.8421 20.1221C20.8725 20.0224 20.8828 19.9177 20.8724 19.814C20.862 19.7104 20.8311 19.6098 20.7815 19.5181C20.7329 19.4261 20.6664 19.3447 20.5861 19.2785C20.5058 19.2123 20.4132 19.1626 20.3136 19.1324C20.214 19.1021 20.1094 19.0918 20.0058 19.1022C19.9023 19.1125 19.8018 19.1433 19.7101 19.1926ZM18.8352 27.2731C18.7839 27.3007 18.7386 27.3381 18.7018 27.3833C18.665 27.4285 18.6376 27.4805 18.621 27.5363C18.6044 27.5922 18.599 27.6507 18.6051 27.7087C18.6112 27.7666 18.6287 27.8227 18.6566 27.8739C18.7134 27.9761 18.8079 28.0521 18.92 28.0855C19.032 28.119 19.1527 28.1074 19.2562 28.053C19.3584 27.9955 19.4339 27.9003 19.4666 27.7878C19.4993 27.6752 19.4866 27.5543 19.4312 27.451C19.375 27.3492 19.2811 27.2734 19.1696 27.2401C19.0581 27.2068 18.938 27.2187 18.8352 27.2731ZM29.0441 19.9189C29.1123 20.0418 29.2257 20.1334 29.3603 20.1741C29.4949 20.2148 29.6401 20.2014 29.765 20.1369C29.888 20.0686 29.9794 19.9548 30.0195 19.8199C30.0596 19.685 30.0452 19.5398 29.9794 19.4154C29.9466 19.3542 29.9021 19.3001 29.8483 19.2562C29.7945 19.2123 29.7326 19.1795 29.6661 19.1597C29.5995 19.1399 29.5298 19.1334 29.4607 19.1407C29.3917 19.148 29.3248 19.1689 29.2639 19.2022C29.2024 19.2348 29.1479 19.2792 29.1035 19.3329C29.0592 19.3865 29.0259 19.4484 29.0055 19.515C28.985 19.5815 28.978 19.6515 28.9846 19.7208C28.9912 19.7901 29.0114 19.8574 29.0441 19.9189ZM27.2507 18.7776C27.4125 19.0774 27.7935 19.1867 28.0838 19.0236C28.3902 18.8612 28.4995 18.4885 28.3358 18.1899C28.2588 18.0466 28.1282 17.9396 27.9726 17.8921C27.817 17.8447 27.6489 17.8607 27.5051 17.9367C27.3609 18.0155 27.2534 18.1478 27.2058 18.3051C27.1582 18.4624 27.1743 18.6321 27.2507 18.7776ZM25.1783 18.2222C25.2215 18.3033 25.2804 18.3751 25.3516 18.4333C25.4227 18.4915 25.5048 18.535 25.5929 18.5613C25.681 18.5876 25.7734 18.5961 25.8649 18.5864C25.9563 18.5767 26.0449 18.5489 26.1255 18.5046C26.2073 18.4612 26.2798 18.4021 26.3386 18.3306C26.3975 18.2591 26.4417 18.1766 26.4686 18.088C26.4955 17.9994 26.5047 17.9063 26.4955 17.8141C26.4863 17.7219 26.459 17.6325 26.4151 17.5509C26.3716 17.4694 26.3123 17.3973 26.2406 17.3389C26.169 17.2805 26.0864 17.237 25.9978 17.2108C25.9091 17.1846 25.8161 17.1763 25.7243 17.1864C25.6324 17.1965 25.5434 17.2248 25.4626 17.2696C25.3813 17.3134 25.3094 17.3727 25.251 17.4443C25.1927 17.516 25.1491 17.5984 25.1227 17.6869C25.0963 17.7754 25.0876 17.8682 25.0971 17.9601C25.1067 18.0519 25.1343 18.141 25.1783 18.2222ZM23.0146 18.3076C23.0637 18.3996 23.1306 18.4811 23.2113 18.5474C23.2919 18.6136 23.3849 18.6633 23.4848 18.6935C23.5847 18.7238 23.6896 18.7341 23.7934 18.7239C23.8973 18.7136 23.9981 18.6829 24.0902 18.6336C24.2743 18.532 24.4111 18.3618 24.4708 18.1601C24.5305 17.9583 24.5083 17.7412 24.4091 17.5557C24.3059 17.3773 24.1373 17.2462 23.939 17.1901C23.7407 17.134 23.5284 17.1573 23.347 17.2551C23.1657 17.3529 23.0295 17.5175 22.9675 17.7139C22.9054 17.9104 22.9223 18.1233 23.0146 18.3076ZM30.3915 21.5356C30.5049 21.75 30.7737 21.8276 30.9815 21.7129C31.0327 21.6864 31.078 21.6499 31.1148 21.6055C31.1516 21.5612 31.1792 21.51 31.196 21.4548C31.2127 21.3997 31.2183 21.3418 31.2123 21.2845C31.2064 21.2271 31.189 21.1716 31.1613 21.1211C31.1061 21.0175 31.0125 20.9398 30.9005 20.9047C30.7885 20.8696 30.6672 20.88 30.5629 20.9336C30.358 21.0524 30.2726 21.3259 30.3915 21.5356ZM28.8685 29.9373C28.8131 29.8323 28.7373 29.7394 28.6455 29.664C28.5538 29.5887 28.448 29.5323 28.3342 29.4983C28.2205 29.4643 28.1011 29.4533 27.983 29.4659C27.865 29.4785 27.7506 29.5145 27.6466 29.5718C27.5426 29.6273 27.4507 29.7029 27.3762 29.7943C27.3017 29.8856 27.246 29.9908 27.2125 30.1038C27.179 30.2169 27.1683 30.3354 27.181 30.4526C27.1937 30.5698 27.2296 30.6833 27.2865 30.7865C27.523 31.2213 28.0689 31.3802 28.506 31.1508C28.9402 30.9107 29.102 30.3631 28.8685 29.9373ZM20.7726 29.0665C20.7052 28.9447 20.5927 28.8541 20.4592 28.8143C20.3257 28.7746 20.182 28.7888 20.0589 28.8539C19.9979 28.8866 19.944 28.9309 19.9002 28.9845C19.8564 29.038 19.8236 29.0997 19.8036 29.1659C19.7837 29.2322 19.7771 29.3017 19.7841 29.3705C19.7911 29.4394 19.8116 29.5061 19.8445 29.567C19.8767 29.6285 19.9209 29.6829 19.9745 29.727C20.0281 29.7711 20.09 29.804 20.1566 29.8237C20.2232 29.8435 20.293 29.8496 20.362 29.8418C20.431 29.834 20.4977 29.8125 20.5582 29.7784C20.6191 29.7458 20.6729 29.7015 20.7167 29.6481C20.7604 29.5946 20.7932 29.5331 20.8131 29.467C20.833 29.4008 20.8397 29.3314 20.8328 29.2627C20.8258 29.194 20.8054 29.1273 20.7726 29.0665ZM22.5684 30.2084C22.4904 30.0655 22.3589 29.9593 22.2028 29.9131C22.0467 29.8669 21.8786 29.8844 21.7353 29.9618C21.6635 29.9994 21.6 30.0511 21.5484 30.1136C21.4969 30.1762 21.4584 30.2485 21.4352 30.3262C21.412 30.4038 21.4045 30.4854 21.4133 30.566C21.4221 30.6466 21.4469 30.7246 21.4863 30.7955C21.6415 31.0959 22.0184 31.2106 22.317 31.0493C22.4606 30.9699 22.5673 30.8374 22.6144 30.6802C22.6614 30.523 22.6449 30.3536 22.5684 30.2084ZM24.6456 30.7638C24.4646 30.4228 24.0328 30.3016 23.6864 30.4784C23.5231 30.5682 23.4017 30.7188 23.3485 30.8975C23.2953 31.0762 23.3146 31.2687 23.4022 31.4333C23.5897 31.7779 24.0167 31.9051 24.3583 31.7212C24.4406 31.6778 24.5135 31.6185 24.5726 31.5466C24.6318 31.4748 24.676 31.3919 24.7027 31.3028C24.7295 31.2136 24.7382 31.1201 24.7284 31.0275C24.7186 30.935 24.6904 30.8454 24.6456 30.7638ZM26.8063 30.6772C26.7057 30.4924 26.5361 30.3549 26.3345 30.2947C26.1328 30.2345 25.9156 30.2565 25.7301 30.3559C25.3431 30.5608 25.2088 31.0403 25.419 31.4303C25.4671 31.5222 25.5332 31.6035 25.6133 31.6694C25.6934 31.7353 25.7859 31.7845 25.8854 31.8141C25.9848 31.8436 26.0891 31.853 26.1922 31.8415C26.2953 31.8301 26.3951 31.7981 26.4856 31.7475C26.8738 31.5444 27.0118 31.0601 26.8063 30.6772ZM31.7155 23.765C31.9753 23.6157 32.0744 23.2932 31.9389 23.0406C31.9059 22.9796 31.8612 22.9258 31.8075 22.8822C31.7537 22.8385 31.6918 22.8059 31.6255 22.7862C31.5591 22.7664 31.4894 22.76 31.4206 22.7671C31.3517 22.7743 31.2849 22.795 31.224 22.8279C31.162 22.8602 31.1072 22.9046 31.0626 22.9584C31.0181 23.0122 30.9848 23.0744 30.9646 23.1413C30.9445 23.2082 30.9379 23.2785 30.9453 23.3479C30.9527 23.4174 30.974 23.4847 31.0078 23.5458C31.0736 23.6677 31.1846 23.7589 31.3169 23.7999C31.4492 23.8409 31.5923 23.8284 31.7155 23.765ZM31.8146 25.921C32.1144 25.7579 32.2219 25.3835 32.0589 25.086C32.0209 25.0149 31.9691 24.952 31.9067 24.9009C31.8443 24.8498 31.7724 24.8116 31.6951 24.7884C31.6179 24.7652 31.5368 24.7575 31.4566 24.7657C31.3763 24.774 31.2985 24.798 31.2276 24.8364C31.084 24.9155 30.9771 25.0477 30.9297 25.2046C30.8824 25.3616 30.8984 25.5308 30.9743 25.6761C31.1332 25.9705 31.519 26.0792 31.8146 25.921ZM31.2503 27.9975C31.6002 27.8094 31.7221 27.3865 31.5435 27.0407C31.4542 26.8764 31.3036 26.7541 31.1244 26.7005C30.9453 26.6469 30.7522 26.6664 30.5873 26.7547C30.4227 26.8444 30.3002 26.9955 30.2463 27.1751C30.1924 27.3547 30.2115 27.5483 30.2995 27.7138C30.3889 27.8766 30.5388 27.9975 30.7167 28.0506C30.8946 28.1037 31.0863 28.0846 31.2503 27.9975ZM30.1149 29.7874C30.4996 29.5879 30.6417 29.0988 30.4333 28.7171C30.2218 28.3337 29.7441 28.185 29.3612 28.3964C29.2697 28.4459 29.1888 28.5129 29.1231 28.5936C29.0575 28.6744 29.0084 28.7673 28.9786 28.867C28.9489 28.9667 28.9391 29.0713 28.9498 29.1748C28.9606 29.2784 28.9916 29.3787 29.0411 29.4702C29.0901 29.5622 29.157 29.6436 29.2377 29.7095C29.3185 29.7753 29.4116 29.8245 29.5115 29.854C29.6115 29.8835 29.7163 29.8928 29.8199 29.8814C29.9235 29.87 30.0238 29.838 30.1149 29.7874Z" fill="#020a18"/>
<path d="M28.5932 16.0593C28.5504 16.2044 28.4793 16.3397 28.3841 16.4573C28.2888 16.5749 28.1713 16.6725 28.0382 16.7446C27.9052 16.8166 27.7592 16.8617 27.6087 16.8773C27.4582 16.8928 27.3061 16.8785 27.1611 16.8351C27.0151 16.7929 26.8789 16.7223 26.7604 16.6272C26.6419 16.5321 26.5433 16.4145 26.4705 16.2811C26.3977 16.1477 26.3521 16.0012 26.3362 15.8501C26.3204 15.6989 26.3346 15.5462 26.3781 15.4006C26.4655 15.1068 26.666 14.8598 26.9354 14.7139C27.0689 14.6416 27.2152 14.5964 27.3661 14.5807C27.5171 14.565 27.6696 14.5791 27.8151 14.6224C27.9605 14.6656 28.096 14.7371 28.2138 14.8327C28.3316 14.9284 28.4295 15.0463 28.5017 15.1797C28.574 15.3131 28.6193 15.4595 28.635 15.6104C28.6507 15.7613 28.6365 15.9139 28.5932 16.0593ZM17.5189 18.7868C17.3733 18.7463 17.2175 18.7643 17.0849 18.8371C16.9523 18.9098 16.8535 19.0315 16.8094 19.1762C16.773 19.3194 16.7936 19.4712 16.8668 19.5995C16.94 19.7279 17.0602 19.8228 17.202 19.8643C17.3438 19.9058 17.4962 19.8906 17.6271 19.822C17.7579 19.7533 17.8571 19.6366 17.9036 19.4963C17.9979 19.1959 17.8187 18.88 17.5189 18.7868ZM19.5226 16.5831C19.434 16.5569 19.341 16.5486 19.2491 16.5585C19.1572 16.5685 19.0682 16.5964 18.9872 16.6409C18.9061 16.6854 18.8347 16.7454 18.7769 16.8176C18.7192 16.8898 18.6763 16.9726 18.6507 17.0615C18.6242 17.1502 18.6156 17.2432 18.6253 17.3353C18.6349 17.4273 18.6627 17.5165 18.707 17.5978C18.7513 17.6791 18.8112 17.7508 18.8834 17.8088C18.9555 17.8668 19.0384 17.9099 19.1273 17.9358C19.3066 17.9877 19.4992 17.9666 19.6631 17.8771C19.827 17.7876 19.9489 17.637 20.0022 17.458C20.0537 17.2784 20.0322 17.0857 19.9424 16.9219C19.8526 16.758 19.7017 16.6363 19.5226 16.5831ZM22.0901 15.0297C21.8623 14.9639 21.6177 14.9905 21.4093 15.1038C21.201 15.217 21.0456 15.4077 20.9769 15.6347C20.9112 15.8628 20.9385 16.1076 21.0527 16.3156C21.167 16.5236 21.3589 16.678 21.5866 16.7449C21.6992 16.7786 21.8174 16.7896 21.9343 16.7773C22.0512 16.765 22.1645 16.7297 22.2677 16.6734C22.3708 16.6171 22.4618 16.5409 22.5354 16.4493C22.609 16.3576 22.6636 16.2523 22.6963 16.1393C22.7606 15.9118 22.7331 15.6682 22.6198 15.4607C22.5065 15.2532 22.3163 15.0985 22.0901 15.0297ZM24.9335 14.3937C24.8066 14.3557 24.6735 14.3432 24.5418 14.3569C24.4101 14.3706 24.2824 14.4102 24.1661 14.4735C24.0498 14.5368 23.9471 14.6225 23.8641 14.7256C23.7811 14.8288 23.7193 14.9474 23.6823 15.0745C23.6446 15.2012 23.6322 15.3341 23.646 15.4656C23.6598 15.597 23.6995 15.7245 23.7627 15.8406C23.8259 15.9567 23.9114 16.0591 24.0144 16.1421C24.1173 16.225 24.2356 16.2868 24.3625 16.3239C24.6182 16.3986 24.8931 16.369 25.1271 16.2417C25.3611 16.1143 25.5352 15.8995 25.6113 15.6442C25.6495 15.5176 25.6622 15.3847 25.6488 15.2531C25.6354 15.1216 25.596 14.994 25.533 14.8777C25.4699 14.7614 25.3845 14.6588 25.2816 14.5757C25.1787 14.4926 25.0604 14.4308 24.9335 14.3937ZM16.2522 21.5149C16.1989 21.4991 16.143 21.494 16.0878 21.4998C16.0325 21.5057 15.9789 21.5224 15.9301 21.5491C15.8813 21.5757 15.8383 21.6117 15.8035 21.6551C15.7687 21.6984 15.7428 21.7482 15.7273 21.8016C15.711 21.8554 15.7054 21.9118 15.711 21.9677C15.7165 22.0236 15.733 22.0779 15.7595 22.1274C15.786 22.1769 15.822 22.2208 15.8655 22.2564C15.9089 22.292 15.959 22.3187 16.0127 22.3349C16.2409 22.4006 16.4762 22.2692 16.5425 22.0435C16.5583 21.9897 16.5633 21.9334 16.5573 21.8777C16.5512 21.8219 16.5342 21.768 16.5072 21.7189C16.4803 21.6697 16.4439 21.6264 16.4001 21.5914C16.3563 21.5565 16.3061 21.5305 16.2522 21.5149ZM33.5042 24.0794C33.4827 24.1513 33.4758 24.2268 33.4837 24.3014C33.4916 24.376 33.5142 24.4484 33.5502 24.5142C33.5863 24.58 33.635 24.638 33.6937 24.6849C33.7523 24.7317 33.8196 24.7665 33.8918 24.7871C34.0369 24.8298 34.193 24.8131 34.3258 24.7407C34.4585 24.6683 34.5571 24.5461 34.5998 24.401C34.6425 24.2559 34.6258 24.0998 34.5534 23.967C34.481 23.8343 34.3588 23.7357 34.2137 23.693C34.0684 23.6506 33.9122 23.6674 33.7792 23.7398C33.6463 23.8122 33.5474 23.9343 33.5042 24.0794ZM32.8449 21.2277C32.8182 21.3166 32.8093 21.41 32.8189 21.5024C32.8285 21.5948 32.8564 21.6844 32.9008 21.766C32.9452 21.8476 33.0054 21.9195 33.0778 21.9777C33.1502 22.0359 33.2334 22.0792 33.3226 22.105C33.6989 22.2161 34.0871 22.0011 34.197 21.6272C34.3069 21.2534 34.0948 20.8634 33.7216 20.7559C33.633 20.7292 33.5401 20.7203 33.4481 20.7296C33.3561 20.7389 33.2668 20.7662 33.1854 20.81C33.104 20.8538 33.032 20.9133 32.9736 20.9849C32.9151 21.0566 32.8714 21.1391 32.8449 21.2277ZM31.2921 18.6626C31.2591 18.7753 31.2486 18.8933 31.2612 19.0101C31.2738 19.1268 31.3093 19.2399 31.3656 19.3429C31.4219 19.4459 31.4979 19.5368 31.5894 19.6104C31.6808 19.684 31.7859 19.7389 31.8986 19.7719C32.0112 19.805 32.1293 19.8155 32.246 19.8029C32.3627 19.7903 32.4758 19.7548 32.5788 19.6985C32.6818 19.6421 32.7728 19.5661 32.8464 19.4746C32.92 19.3832 32.9749 19.2781 33.0079 19.1655C33.0413 19.053 33.0521 18.935 33.0396 18.8184C33.0272 18.7017 32.9917 18.5887 32.9353 18.4858C32.8788 18.383 32.8026 18.2923 32.7109 18.2191C32.6192 18.1459 32.5139 18.0917 32.4011 18.0594C32.1741 17.9938 31.9304 18.0204 31.7228 18.1333C31.5152 18.2462 31.3604 18.4364 31.2921 18.6626ZM29.1068 16.6703C29.0322 16.9264 29.0623 17.2017 29.1906 17.4356C29.3189 17.6695 29.5348 17.8429 29.791 17.9176C30.0471 17.9923 30.3224 17.9621 30.5563 17.8338C30.7902 17.7055 30.9636 17.4896 31.0383 17.2335C31.076 17.1069 31.0883 16.9742 31.0746 16.8428C31.0609 16.7115 31.0213 16.5842 30.9582 16.4682C30.8951 16.3522 30.8097 16.2498 30.7069 16.167C30.6041 16.0841 30.486 16.0223 30.3592 15.9853C30.1023 15.9102 29.8261 15.9401 29.5913 16.0686C29.3564 16.197 29.1822 16.4134 29.1068 16.6703ZM33.2731 26.958C33.2423 27.066 33.255 27.1818 33.3084 27.2806C33.3619 27.3793 33.4519 27.4533 33.5591 27.4866C33.6129 27.5027 33.6692 27.508 33.725 27.5022C33.7808 27.4963 33.8349 27.4794 33.8841 27.4524C33.9333 27.4255 33.9766 27.389 34.0116 27.3451C34.0465 27.3013 34.0724 27.2509 34.0877 27.1969C34.1039 27.1433 34.1093 27.087 34.1036 27.0313C34.0979 26.9756 34.0812 26.9216 34.0545 26.8724C34.0278 26.8232 33.9916 26.7798 33.9479 26.7446C33.9043 26.7095 33.8542 26.6834 33.8004 26.6678C33.692 26.6374 33.576 26.6507 33.4774 26.705C33.3787 26.7593 33.3054 26.8502 33.2731 26.958ZM23.4404 33.6015C23.4837 33.4555 23.4977 33.3024 23.4817 33.1509C23.4657 32.9994 23.4199 32.8526 23.347 32.7189C23.2741 32.5851 23.1755 32.4671 23.0568 32.3716C22.9382 32.2761 22.8019 32.2049 22.6556 32.1622C22.51 32.1194 22.3574 32.1057 22.2065 32.1219C22.0556 32.1381 21.9094 32.1839 21.7762 32.2566C21.643 32.3294 21.5255 32.4278 21.4303 32.546C21.3352 32.6642 21.2643 32.8001 21.2217 32.9458C21.1785 33.0917 21.1646 33.2448 21.1806 33.3961C21.1967 33.5475 21.2425 33.6942 21.3154 33.8278C21.3883 33.9614 21.4869 34.0793 21.6055 34.1747C21.7241 34.2702 21.8604 34.3412 22.0065 34.3839C22.6192 34.5613 23.266 34.2089 23.4404 33.6015ZM16.3114 24.9191C16.3543 24.7741 16.338 24.618 16.2659 24.485C16.1937 24.3521 16.0717 24.2532 15.9267 24.2102C15.781 24.1689 15.625 24.1865 15.4921 24.2591C15.3592 24.3317 15.2601 24.4535 15.2161 24.5984C15.1951 24.6702 15.1886 24.7453 15.1968 24.8196C15.205 24.8939 15.2278 24.9659 15.2638 25.0313C15.2999 25.0968 15.3485 25.1545 15.407 25.2012C15.4654 25.2478 15.5324 25.2824 15.6042 25.3031C15.6759 25.3247 15.7511 25.3319 15.8255 25.3243C15.9 25.3166 15.9721 25.2943 16.0379 25.2586C16.1036 25.2229 16.1617 25.1745 16.2086 25.1162C16.2555 25.058 16.2905 24.991 16.3114 24.9191ZM16.9719 27.7691C16.9982 27.6809 17.0067 27.5884 16.997 27.4969C16.9873 27.4055 16.9595 27.3168 16.9153 27.2362C16.8711 27.1555 16.8113 27.0844 16.7394 27.0271C16.6675 26.9697 16.5849 26.9271 16.4965 26.9019C16.4081 26.8742 16.315 26.8646 16.2227 26.8735C16.1305 26.8825 16.041 26.9098 15.9595 26.954C15.8781 26.9982 15.8063 27.0582 15.7484 27.1306C15.6906 27.203 15.6479 27.2863 15.6228 27.3755C15.5706 27.5544 15.5916 27.7467 15.6812 27.9101C15.7708 28.0735 15.9216 28.1946 16.1005 28.2468C16.2794 28.299 16.4718 28.278 16.6352 28.1884C16.7986 28.0988 16.9197 27.948 16.9719 27.7691ZM18.5271 30.3377C18.5925 30.1088 18.5652 29.8634 18.4509 29.6546C18.3367 29.4458 18.1447 29.2904 17.9167 29.2221C17.6888 29.1565 17.4443 29.1838 17.2366 29.2981C17.0288 29.4124 16.8748 29.6043 16.8082 29.8319C16.7748 29.9444 16.7638 30.0625 16.7762 30.1793C16.7885 30.2961 16.8237 30.4094 16.88 30.5125C16.9362 30.6156 17.0123 30.7066 17.1038 30.7802C17.1953 30.8539 17.3005 30.9087 17.4132 30.9415C17.526 30.9752 17.6443 30.9864 17.7614 30.9743C17.8785 30.9622 17.9921 30.927 18.0956 30.8709C18.199 30.8148 18.2904 30.7389 18.3645 30.6474C18.4385 30.5558 18.4938 30.4506 18.5271 30.3377ZM20.7123 32.333C20.7864 32.0764 20.7558 31.8008 20.6272 31.5666C20.4986 31.3324 20.2825 31.1588 20.0261 31.0836C19.8993 31.0462 19.7665 31.0343 19.6351 31.0486C19.5037 31.0629 19.3765 31.1031 19.2608 31.1668C19.145 31.2306 19.0431 31.3167 18.9608 31.4201C18.8785 31.5235 18.8176 31.6421 18.7815 31.7692C18.7442 31.8957 18.7323 32.0282 18.7463 32.1593C18.7603 32.2903 18.8001 32.4173 18.8633 32.533C18.9265 32.6486 19.0118 32.7507 19.1145 32.8333C19.2172 32.9159 19.3352 32.9775 19.4617 33.0145C19.7179 33.0888 19.9931 33.0589 20.2273 32.9313C20.4616 32.8036 20.6359 32.5886 20.7123 32.333ZM32.2948 30.2099C32.4405 30.2531 32.5973 30.2367 32.7309 30.1644C32.8645 30.0921 32.9639 29.9697 33.0073 29.8241C33.0489 29.6787 33.0318 29.5228 32.9595 29.3899C32.8872 29.2571 32.7656 29.158 32.6209 29.114C32.4756 29.0724 32.3198 29.0897 32.1871 29.1621C32.0544 29.2345 31.9556 29.3563 31.912 29.501C31.8694 29.6458 31.8858 29.8015 31.9575 29.9343C32.0292 30.067 32.1504 30.1661 32.2948 30.2099ZM30.2947 32.4166C30.473 32.4692 30.6649 32.4489 30.8281 32.3601C30.9914 32.2713 31.1127 32.1213 31.1655 31.943C31.1925 31.8544 31.2018 31.7613 31.1926 31.6691C31.1835 31.5769 31.1562 31.4874 31.1122 31.4059C31.0683 31.3243 31.0086 31.2522 30.9367 31.1938C30.8647 31.1355 30.7819 31.0919 30.6931 31.0657C30.5133 31.013 30.32 31.0335 30.1553 31.1228C29.9906 31.2121 29.8679 31.3629 29.814 31.5423C29.7637 31.722 29.7858 31.9142 29.8757 32.0777C29.9656 32.2412 30.1161 32.3629 30.2947 32.4166ZM27.7273 33.9706C27.8402 34.0043 27.9587 34.0152 28.0759 34.0029C28.193 33.9905 28.3066 33.9551 28.4101 33.8986C28.5135 33.8422 28.6047 33.7658 28.6785 33.6739C28.7523 33.582 28.8071 33.4764 28.8399 33.3632C28.8728 33.2507 28.8833 33.1328 28.8706 33.0162C28.8579 32.8996 28.8224 32.7867 28.766 32.6838C28.7097 32.581 28.6336 32.4903 28.5421 32.4169C28.4507 32.3434 28.3457 32.2888 28.2331 32.256C28.1205 32.2228 28.0025 32.2121 27.8858 32.2245C27.7691 32.2368 27.6559 32.2721 27.5528 32.3282C27.4497 32.3844 27.3587 32.4602 27.2849 32.5515C27.2112 32.6428 27.1561 32.7478 27.1229 32.8604C27.0897 32.973 27.0789 33.091 27.0913 33.2077C27.1037 33.3244 27.139 33.4376 27.1951 33.5407C27.2513 33.6438 27.3271 33.7348 27.4184 33.8086C27.5097 33.8823 27.6147 33.9374 27.7273 33.9706ZM24.8863 34.6043C25.0126 34.6428 25.1453 34.6558 25.2766 34.6426C25.408 34.6294 25.5354 34.5902 25.6515 34.5273C25.7676 34.4644 25.87 34.379 25.9528 34.2762C26.0357 34.1733 26.0972 34.055 26.1339 33.9282C26.1711 33.8013 26.1829 33.6684 26.1688 33.537C26.1546 33.4055 26.1147 33.2782 26.0513 33.1621C25.9233 32.9278 25.7074 32.754 25.4512 32.6788C25.195 32.6037 24.9195 32.6334 24.6852 32.7614C24.4509 32.8894 24.277 33.1052 24.2019 33.3614C24.1285 33.617 24.1593 33.8912 24.2876 34.1241C24.4158 34.357 24.6311 34.5296 24.8863 34.6043Z" fill="#020a18"/>
<path d="M34.3431 16.6478C34.0724 16.9332 33.6995 17.0996 33.3062 17.1104C32.913 17.1211 32.5315 16.9754 32.2456 16.7051C32.1035 16.5716 31.9892 16.4113 31.9093 16.2335C31.8293 16.0556 31.7854 15.8637 31.78 15.6688C31.7745 15.4739 31.8077 15.2799 31.8776 15.0979C31.9474 14.9158 32.0526 14.7494 32.1871 14.6082C32.3203 14.4662 32.4803 14.3518 32.6578 14.2716C32.8353 14.1915 33.0269 14.1471 33.2216 14.1411C33.4162 14.1351 33.6102 14.1676 33.7923 14.2367C33.9744 14.3058 34.1411 14.4101 34.2828 14.5437C34.5694 14.815 34.7367 15.1888 34.748 15.5833C34.7593 15.9777 34.6137 16.3605 34.3431 16.6478ZM19.5529 13.2746C19.4112 13.1421 19.2229 13.0708 19.0289 13.0764C18.835 13.082 18.6511 13.164 18.5173 13.3045C18.3849 13.4458 18.3137 13.6337 18.3193 13.8273C18.3249 14.0208 18.4068 14.2043 18.5472 14.3377C18.6888 14.4704 18.8773 14.5416 19.0714 14.5358C19.2654 14.53 19.4493 14.4476 19.5827 14.3066C19.7151 14.1656 19.7862 13.9778 19.7807 13.7845C19.7751 13.5911 19.6932 13.4078 19.5529 13.2746ZM23.261 11.864C23.0863 11.7007 22.854 11.6131 22.6149 11.6204C22.3758 11.6276 22.1493 11.7292 21.9848 11.9028C21.9033 11.9894 21.8397 12.0911 21.7975 12.2022C21.7554 12.3133 21.7355 12.4317 21.7392 12.5505C21.7428 12.6693 21.7697 12.7862 21.8185 12.8946C21.8673 13.0029 21.937 13.1006 22.0236 13.1821C22.1987 13.3452 22.4312 13.4325 22.6704 13.4249C22.9096 13.4173 23.1361 13.3154 23.3004 13.1415C23.4636 12.9663 23.551 12.7339 23.5436 12.4946C23.5363 12.2554 23.4347 12.0287 23.261 11.864ZM27.2385 11.5732C27.0168 11.3652 26.7217 11.2534 26.4178 11.2622C26.1138 11.271 25.8258 11.3998 25.6165 11.6203C25.4183 11.8438 25.315 12.1356 25.3283 12.4339C25.3416 12.7323 25.4706 13.0137 25.6878 13.2186C25.9051 13.4235 26.1935 13.5358 26.4921 13.5316C26.7908 13.5275 27.076 13.4073 27.2875 13.1964C27.4956 12.9743 27.6073 12.6789 27.5982 12.3747C27.589 12.0705 27.4597 11.7823 27.2385 11.5732ZM31.0016 12.5365C30.8785 12.4198 30.7335 12.3286 30.575 12.268C30.4165 12.2075 30.2476 12.1789 30.078 12.1839C29.9084 12.1888 29.7415 12.2272 29.5868 12.2968C29.4321 12.3665 29.2927 12.466 29.1765 12.5896C29.0601 12.7128 28.9691 12.8577 28.9086 13.016C28.8482 13.1744 28.8195 13.3431 28.8243 13.5125C28.8291 13.6819 28.8672 13.8488 28.9364 14.0035C29.0057 14.1582 29.1047 14.2977 29.2279 14.4141C29.4775 14.6486 29.8097 14.7746 30.152 14.7646C30.4943 14.7547 30.8187 14.6095 31.0542 14.361C31.2886 14.1118 31.4147 13.7798 31.4048 13.4379C31.395 13.0959 31.25 12.7718 31.0016 12.5365ZM16.4091 15.7448C16.3035 15.6462 16.1633 15.5933 16.0189 15.5976C15.8746 15.6018 15.7377 15.6629 15.6381 15.7674C15.5887 15.8193 15.55 15.8804 15.5243 15.9473C15.4986 16.0141 15.4864 16.0854 15.4884 16.157C15.4903 16.2286 15.5064 16.2991 15.5357 16.3645C15.5649 16.4298 15.6069 16.4888 15.659 16.5379C15.7108 16.5874 15.7719 16.6262 15.8388 16.652C15.9057 16.6778 15.977 16.6901 16.0487 16.6881C16.1203 16.6861 16.1909 16.6698 16.2563 16.6404C16.3216 16.6109 16.3805 16.5688 16.4294 16.5164C16.5289 16.4113 16.5826 16.271 16.5788 16.1264C16.575 15.9817 16.514 15.8445 16.4091 15.7448ZM35.3996 29.2049C35.2664 29.3464 35.1947 29.535 35.2003 29.7292C35.2059 29.9235 35.2883 30.1075 35.4294 30.2411C35.5723 30.3683 35.7592 30.4346 35.9503 30.4262C36.1414 30.4177 36.3216 30.335 36.4527 30.1957C36.5838 30.0563 36.6553 29.8714 36.6522 29.6801C36.649 29.4889 36.5714 29.3064 36.4358 29.1715C36.2937 29.0391 36.1049 28.9682 35.9108 28.9745C35.7166 28.9808 35.5328 29.0636 35.3996 29.2049ZM36.3372 25.4257C36.1746 25.6007 36.0876 25.8329 36.0953 26.0717C36.1031 26.3105 36.2048 26.5366 36.3784 26.7008C36.4646 26.7825 36.5662 26.8463 36.6772 26.8886C36.7881 26.9309 36.9064 26.9508 37.0251 26.9473C37.1438 26.9437 37.2607 26.9168 37.3689 26.8679C37.4772 26.819 37.5747 26.7493 37.6559 26.6626C37.7375 26.5764 37.8013 26.4749 37.8436 26.3639C37.8858 26.253 37.9056 26.1348 37.9019 26.0161C37.8982 25.8974 37.871 25.7807 37.8219 25.6726C37.7728 25.5645 37.7028 25.4672 37.6159 25.3863C37.4407 25.2228 37.208 25.1351 36.9684 25.1425C36.7289 25.1499 36.502 25.2517 36.3372 25.4257ZM36.0494 21.4458C35.9459 21.5554 35.865 21.6844 35.8115 21.8252C35.758 21.9661 35.7328 22.1162 35.7374 22.2669C35.742 22.4175 35.7763 22.5658 35.8384 22.7031C35.9004 22.8405 35.9889 22.9642 36.0989 23.0673C36.2085 23.1707 36.3375 23.2515 36.4784 23.3049C36.6193 23.3584 36.7693 23.3836 36.9199 23.379C37.0706 23.3744 37.2188 23.3401 37.3562 23.2781C37.4935 23.2161 37.6173 23.1276 37.7204 23.0177C37.9225 22.795 38.029 22.5019 38.0172 22.2014C38.0053 21.9009 37.8759 21.6171 37.6569 21.4111C37.4378 21.2051 37.1466 21.0933 36.846 21.0998C36.5454 21.1062 36.2593 21.2305 36.0494 21.4458ZM34.6602 17.7574C34.4851 17.9434 34.3691 18.1772 34.3268 18.4292C34.2846 18.6811 34.3181 18.94 34.4231 19.1729C34.528 19.4058 34.6997 19.6024 34.9164 19.7377C35.1331 19.873 35.3851 19.941 35.6405 19.9331C35.8958 19.9251 36.1431 19.8416 36.351 19.6931C36.5588 19.5445 36.718 19.3377 36.8082 19.0987C36.8985 18.8597 36.9158 18.5993 36.858 18.3504C36.8002 18.1015 36.6699 17.8754 36.4835 17.7007C35.9687 17.2121 35.1505 17.2402 34.6602 17.7574ZM33.3839 32.4831C33.2854 32.5889 33.2326 32.7293 33.2371 32.8738C33.2415 33.0183 33.3029 33.1552 33.4078 33.2547C33.4601 33.3036 33.5214 33.3417 33.5885 33.3668C33.6555 33.3919 33.7268 33.4034 33.7983 33.4008C33.8698 33.3982 33.9401 33.3815 34.0051 33.3516C34.0701 33.3217 34.1285 33.2792 34.1771 33.2266C34.2267 33.1753 34.2655 33.1145 34.2913 33.0479C34.317 32.9814 34.3292 32.9103 34.327 32.8389C34.3248 32.7675 34.3084 32.6973 34.2786 32.6324C34.2489 32.5675 34.2064 32.5092 34.1538 32.461C34.1021 32.4113 34.041 32.3725 33.9741 32.3466C33.9072 32.3208 33.8359 32.3086 33.7642 32.3107C33.6926 32.3127 33.622 32.329 33.5567 32.3586C33.4914 32.3882 33.4327 32.4305 33.3839 32.4831ZM17.6316 34.3906C17.8976 34.1033 18.0394 33.7226 18.0261 33.3314C18.0129 32.9401 17.8457 32.5698 17.5609 32.3012C17.2761 32.0325 16.8967 31.8872 16.5053 31.8968C16.114 31.9063 15.7422 32.0701 15.4709 32.3523C15.2142 32.6412 15.0802 33.0186 15.0972 33.4047C15.1143 33.7907 15.281 34.1549 15.5621 34.42C15.8431 34.6852 16.2164 34.8304 16.6028 34.8249C16.9892 34.8194 17.3582 34.6637 17.6316 34.3906ZM14.4186 19.7933C14.4846 19.7234 14.5361 19.6411 14.5703 19.5512C14.6045 19.4613 14.6207 19.3656 14.6179 19.2694C14.6151 19.1733 14.5934 19.0787 14.554 18.9909C14.5146 18.9032 14.4584 18.824 14.3884 18.758C14.3184 18.692 14.2362 18.6405 14.1463 18.6063C14.0564 18.5721 13.9606 18.5559 13.8645 18.5587C13.7684 18.5615 13.6737 18.5832 13.586 18.6226C13.4982 18.662 13.4191 18.7182 13.3531 18.7882C13.0724 19.0808 13.0891 19.5425 13.386 19.822C13.6768 20.0967 14.1391 20.0854 14.4186 19.7933ZM13.4773 23.5743C13.6409 23.3993 13.7287 23.1668 13.7218 22.9274C13.7149 22.688 13.6137 22.4609 13.4403 22.2957C13.2648 22.1385 13.0348 22.056 12.7994 22.0658C12.564 22.0756 12.3417 22.1769 12.1799 22.3482C12.018 22.5194 11.9294 22.7471 11.933 22.9827C11.9365 23.2183 12.0318 23.4432 12.1987 23.6096C12.3733 23.7736 12.6057 23.862 12.8453 23.8554C13.0848 23.8488 13.312 23.7478 13.4773 23.5743ZM13.767 27.5524C13.9761 27.3303 14.0885 27.0342 14.0794 26.7293C14.0704 26.4244 13.9406 26.1355 13.7186 25.9262C13.4965 25.7177 13.2008 25.6059 12.8963 25.6153C12.5918 25.6247 12.3036 25.7546 12.0948 25.9764C11.8868 26.1985 11.7753 26.4939 11.7847 26.798C11.7941 27.1022 11.9237 27.3902 12.1449 27.599C12.6084 28.0368 13.3334 28.0135 13.767 27.5524ZM15.1537 31.2421C15.3882 30.9928 15.5143 30.6607 15.5044 30.3185C15.4944 29.9764 15.3492 29.6522 15.1006 29.417C14.9775 29.3007 14.8326 29.2099 14.6743 29.1498C14.516 29.0897 14.3474 29.0614 14.1782 29.0666C14.0089 29.0718 13.8424 29.1104 13.6881 29.1802C13.5338 29.2499 13.3948 29.3495 13.2791 29.4731C13.1623 29.596 13.0709 29.7407 13.0101 29.899C12.9493 30.0573 12.9204 30.226 12.9249 30.3955C12.9295 30.565 12.9674 30.7319 13.0366 30.8867C13.1058 31.0415 13.2048 31.1812 13.328 31.2976C13.5783 31.5307 13.9105 31.6556 14.2523 31.6452C14.5941 31.6348 14.9181 31.4899 15.1537 31.2421ZM30.2635 35.7236C30.3333 35.7897 30.4156 35.8413 30.5055 35.8755C30.5954 35.9097 30.6911 35.9258 30.7872 35.9228C30.8834 35.9199 30.978 35.898 31.0656 35.8584C31.1532 35.8188 31.2321 35.7622 31.2978 35.692C31.3638 35.6223 31.4153 35.5402 31.4494 35.4505C31.4835 35.3608 31.4996 35.2653 31.4966 35.1694C31.4937 35.0735 31.4718 34.9791 31.4323 34.8917C31.3927 34.8043 31.3363 34.7255 31.2662 34.66C31.1966 34.5939 31.1145 34.5423 31.0249 34.508C30.9352 34.4737 30.8396 34.4575 30.7437 34.4603C30.6477 34.4631 30.5533 34.4848 30.4657 34.5242C30.3782 34.5636 30.2993 34.6199 30.2336 34.6898C30.1005 34.8309 30.0289 35.0191 30.0345 35.2129C30.0401 35.4068 30.1225 35.5905 30.2635 35.7236ZM26.5553 37.1325C26.9196 37.4759 27.4906 37.4532 27.8328 37.0925C27.9143 37.0065 27.978 36.9052 28.0203 36.7946C28.0625 36.6839 28.0825 36.566 28.0791 36.4475C28.0757 36.3291 28.0489 36.2125 28.0002 36.1045C27.9516 35.9965 27.8821 35.8991 27.7957 35.818C27.6205 35.6538 27.3874 35.5657 27.1474 35.5731C26.9073 35.5805 26.68 35.6827 26.5153 35.8574C26.3523 36.0322 26.2651 36.2643 26.2726 36.5032C26.2801 36.742 26.3817 36.9682 26.5553 37.1325ZM22.5754 37.4197C23.0413 37.8587 23.7627 37.8372 24.1969 37.3761C24.3006 37.2668 24.3818 37.1381 24.4356 36.9974C24.4895 36.8566 24.5151 36.7066 24.5109 36.556C24.5067 36.4053 24.4727 36.257 24.4111 36.1195C24.3494 35.982 24.2612 35.858 24.1515 35.7547C23.9295 35.5459 23.6339 35.4335 23.3293 35.4421C23.0247 35.4506 22.7358 35.5793 22.5258 35.8001C22.4226 35.9096 22.3419 36.0384 22.2885 36.1791C22.2351 36.3198 22.2099 36.4697 22.2146 36.6202C22.2192 36.7706 22.2534 36.9187 22.3153 37.0559C22.3772 37.1931 22.4656 37.3168 22.5754 37.4197ZM18.8201 36.4618C18.9431 36.5781 19.0878 36.669 19.246 36.7293C19.4042 36.7896 19.5728 36.8181 19.742 36.8131C19.9112 36.8081 20.0778 36.7697 20.2322 36.7002C20.3866 36.6307 20.5257 36.5314 20.6416 36.408C20.7576 36.2846 20.8482 36.1396 20.9082 35.9812C20.9682 35.8227 20.9964 35.6541 20.9912 35.4848C20.986 35.3154 20.9474 35.1488 20.8778 34.9944C20.8082 34.84 20.7089 34.7008 20.5855 34.5847C20.4621 34.4687 20.317 34.3781 20.1586 34.3181C20.0002 34.2581 19.8315 34.23 19.6622 34.2352C19.4929 34.2404 19.3262 34.2789 19.1718 34.3485C19.0174 34.4181 18.8782 34.5175 18.7622 34.6409C18.6462 34.7641 18.5556 34.909 18.4958 35.0673C18.4359 35.2256 18.4079 35.3942 18.4132 35.5634C18.4186 35.7325 18.4573 35.8989 18.5271 36.0531C18.597 36.2073 18.6965 36.3462 18.8201 36.4618Z" fill="#020a18"/>
<path d="M40.3708 19.7887C39.9325 19.9771 39.4375 19.9838 38.9943 19.8073C38.5512 19.6308 38.1963 19.2856 38.0076 18.8475C37.9139 18.6306 37.8639 18.3974 37.8606 18.1611C37.8572 17.9249 37.9005 17.6903 37.9879 17.4709C38.0753 17.2514 38.2052 17.0513 38.3701 16.8821C38.535 16.7129 38.7316 16.5779 38.9488 16.4849C39.3848 16.3081 39.8726 16.3092 40.3079 16.4879C40.7431 16.6666 41.0909 17.0086 41.2769 17.4408C41.4629 17.8729 41.4722 18.3607 41.3028 18.7996C41.1334 19.2385 40.7988 19.5936 40.3708 19.7887ZM27.7461 8.34529C27.721 8.21739 27.6709 8.09569 27.5986 7.98719C27.5264 7.87869 27.4334 7.78559 27.3249 7.71319C27.2165 7.64089 27.0949 7.59059 26.967 7.56549C26.8391 7.54029 26.7075 7.54069 26.5797 7.56659C26.4517 7.59149 26.3299 7.64149 26.2213 7.71369C26.1127 7.78589 26.0195 7.87889 25.947 7.98739C25.8746 8.09579 25.8243 8.21749 25.7991 8.34549C25.7739 8.47339 25.7744 8.60509 25.8003 8.73289C25.8593 8.98339 26.0132 9.20119 26.2296 9.34029C26.4461 9.47949 26.7081 9.52919 26.9604 9.47889C27.2128 9.42869 27.4357 9.28239 27.5823 9.07089C27.7289 8.85939 27.7876 8.59929 27.7461 8.34529ZM32.0049 9.27159C31.9661 9.11859 31.8976 8.97469 31.8031 8.84819C31.7086 8.72179 31.59 8.61519 31.4542 8.53469C31.3184 8.45419 31.1681 8.40129 31.0118 8.37899C30.8555 8.35679 30.6963 8.36559 30.5435 8.40509C30.3903 8.44359 30.2462 8.51199 30.1196 8.60649C29.9929 8.70089 29.8862 8.81939 29.8056 8.95519C29.7249 9.09109 29.6719 9.24149 29.6496 9.39789C29.6273 9.55429 29.6362 9.71349 29.6757 9.86649C29.7148 10.0194 29.7836 10.1631 29.8782 10.2895C29.9728 10.4158 30.0913 10.5223 30.2271 10.6028C30.3629 10.6834 30.5132 10.7364 30.6694 10.7588C30.8256 10.7812 30.9848 10.7727 31.1377 10.7336C31.2906 10.6946 31.4344 10.6258 31.5607 10.5312C31.6871 10.4366 31.7936 10.318 31.8741 10.1822C31.9546 10.0465 32.0076 9.89619 32.03 9.73989C32.0525 9.58369 32.0439 9.42459 32.0049 9.27159ZM35.9316 11.1666C35.8734 10.9786 35.7787 10.8039 35.6528 10.6527C35.5269 10.5014 35.3723 10.3765 35.198 10.2852C35.0237 10.1938 34.833 10.1378 34.637 10.1204C34.441 10.1029 34.2434 10.1244 34.0557 10.1836C33.8677 10.2419 33.693 10.3367 33.5416 10.4626C33.3903 10.5885 33.2653 10.7431 33.1738 10.9174C33.0823 11.0917 33.0261 11.2824 33.0085 11.4785C32.9908 11.6746 33.012 11.8722 33.0709 12.0601C33.1973 12.4296 33.463 12.7352 33.8114 12.9118C34.1597 13.0884 34.5633 13.1221 34.9361 13.0057C35.3089 12.8892 35.6216 12.6319 35.8075 12.2884C35.9934 11.9449 36.038 11.5424 35.9316 11.1666ZM39.0634 13.958C38.9883 13.7545 38.8738 13.5677 38.7264 13.4084C38.5791 13.2492 38.4017 13.1206 38.2045 13.03C38.0074 12.9394 37.7943 12.8886 37.5774 12.8805C37.3606 12.8724 37.1443 12.9071 36.9409 12.9828C36.737 13.0575 36.5499 13.1718 36.3903 13.319C36.2308 13.4663 36.1019 13.6436 36.0111 13.8409C35.9203 14.0381 35.8694 14.2514 35.8613 14.4684C35.8532 14.6854 35.888 14.9018 35.9639 15.1053C36.116 15.5163 36.4252 15.8501 36.8234 16.0332C37.2216 16.2162 37.6762 16.2336 38.0873 16.0815C38.4983 15.9293 38.8321 15.6201 39.0151 15.2219C39.1982 14.8237 39.2156 14.3691 39.0634 13.958ZM19.2094 9.46149C19.1718 9.37429 19.1174 9.29539 19.0493 9.22929C18.9812 9.16319 18.9007 9.11109 18.8124 9.07619C18.7241 9.04119 18.6298 9.02399 18.5349 9.02559C18.44 9.02719 18.3463 9.04739 18.2592 9.08529C18.0835 9.16109 17.9452 9.30359 17.8746 9.48139C17.804 9.65919 17.8069 9.85769 17.8827 10.0334C17.9584 10.209 18.1009 10.3474 18.2787 10.418C18.4565 10.4886 18.6551 10.4857 18.8307 10.4099C19.1968 10.2523 19.3676 9.82699 19.2094 9.46149ZM37.2228 33.2865C37.0145 33.4414 36.8752 33.6717 36.8345 33.928C36.7939 34.1844 36.8553 34.4465 37.0054 34.6582C37.1556 34.8699 37.3827 35.0143 37.6381 35.0607C37.8935 35.1071 38.1568 35.0516 38.3719 34.9062C38.4782 34.8308 38.5687 34.7351 38.638 34.6246C38.7073 34.5141 38.7542 34.3911 38.7759 34.2625C38.7976 34.1339 38.7937 34.0023 38.7644 33.8752C38.7352 33.7481 38.6811 33.628 38.6054 33.5218C38.5301 33.4156 38.4346 33.3252 38.3243 33.2559C38.2141 33.1865 38.0912 33.1396 37.9628 33.1177C37.8344 33.0959 37.703 33.0995 37.576 33.1285C37.449 33.1575 37.329 33.2112 37.2228 33.2865ZM39.196 29.4153C39.0594 29.4981 38.9406 29.6073 38.8466 29.7365C38.7526 29.8658 38.6853 30.0124 38.6487 30.168C38.612 30.3235 38.6068 30.4848 38.6332 30.6423C38.6596 30.7999 38.7172 30.9507 38.8025 31.0858C38.8879 31.2208 38.9993 31.3376 39.1302 31.4291C39.2612 31.5206 39.4091 31.5851 39.5653 31.6188C39.7215 31.6525 39.8829 31.6547 40.0399 31.6253C40.197 31.596 40.3466 31.5356 40.48 31.4477C40.7431 31.2745 40.9276 31.005 40.994 30.6972C41.0604 30.3893 41.0034 30.0677 40.8352 29.8015C40.667 29.5353 40.4011 29.3457 40.0945 29.2735C39.788 29.2012 39.4654 29.2522 39.196 29.4153ZM40.1295 25.0592C39.783 25.2543 39.5281 25.5788 39.4207 25.9617C39.3133 26.3445 39.3623 26.7543 39.5567 27.1011C39.6531 27.2726 39.7824 27.4233 39.9371 27.5448C40.0918 27.6662 40.269 27.7559 40.4584 27.8088C40.6479 27.8617 40.8459 27.8766 41.0411 27.8529C41.2364 27.8291 41.425 27.767 41.5963 27.6703C41.7681 27.5745 41.9194 27.4457 42.0413 27.2912C42.1633 27.1368 42.2535 26.9597 42.3068 26.7703C42.36 26.5809 42.3753 26.3828 42.3518 26.1874C42.3283 25.9921 42.2663 25.8033 42.1696 25.6319C42.0734 25.4602 41.9443 25.3091 41.7896 25.1874C41.635 25.0656 41.4578 24.9756 41.2683 24.9224C41.0788 24.8692 40.8807 24.8539 40.6853 24.8774C40.4899 24.9008 40.301 24.9626 40.1295 25.0592ZM40.0727 20.6911C39.6809 20.8858 39.3822 21.228 39.2423 21.6425C39.1023 22.0571 39.1325 22.5103 39.3262 22.9026C39.4221 23.0976 39.5556 23.2716 39.719 23.4148C39.8825 23.5579 40.0726 23.6674 40.2784 23.7368C40.4843 23.8062 40.7018 23.8343 40.9185 23.8193C41.1353 23.8044 41.3469 23.7468 41.5413 23.6498C41.736 23.554 41.9098 23.4206 42.0528 23.2575C42.1957 23.0943 42.3051 22.9045 42.3744 22.6989C42.4438 22.4933 42.4719 22.2761 42.457 22.0596C42.4421 21.8432 42.3847 21.6318 42.2878 21.4376C42.0928 21.0452 41.75 20.7461 41.3347 20.6062C40.9194 20.4662 40.4655 20.4968 40.0727 20.6911ZM30.9836 38.5893C30.8966 38.6268 30.8178 38.6811 30.7518 38.7491C30.6858 38.817 30.6338 38.8974 30.5988 38.9854C30.5638 39.0735 30.5465 39.1676 30.5478 39.2623C30.5492 39.3571 30.5692 39.4506 30.6068 39.5377C30.6826 39.7134 30.8251 39.8518 31.0029 39.9225C31.091 39.9575 31.1851 39.9748 31.2798 39.9734C31.3746 39.9721 31.4681 39.952 31.5552 39.9145C31.9213 39.7568 32.0921 39.3322 31.9344 38.9649C31.8581 38.7891 31.715 38.6508 31.5368 38.5803C31.3585 38.5099 31.1595 38.5131 30.9836 38.5893ZM10.8674 32.5125C11.3049 32.3229 11.6492 31.9674 11.8247 31.524C12.0002 31.0807 11.9925 30.5858 11.8032 30.1481C11.7101 29.9315 11.5752 29.7353 11.4062 29.5709C11.2372 29.4065 11.0374 29.277 10.8182 29.1899C10.5991 29.1028 10.3649 29.0598 10.1292 29.0633C9.89343 29.0669 9.66063 29.1169 9.44423 29.2105C9.22713 29.3036 9.03043 29.4386 8.86563 29.6078C8.70073 29.777 8.57083 29.9771 8.48353 30.1965C8.39613 30.416 8.35293 30.6506 8.35633 30.8868C8.35983 31.1231 8.40983 31.3563 8.50363 31.5731C8.69283 32.0109 9.04793 32.3557 9.49113 32.5318C9.93433 32.708 10.4293 32.701 10.8674 32.5125ZM12.591 15.7115C12.6972 15.6363 12.7876 15.541 12.857 15.4309C12.9264 15.3208 12.9734 15.1981 12.9954 15.0698C13.0174 14.9415 13.0138 14.8102 12.985 14.6832C12.9562 14.5563 12.9027 14.4363 12.8275 14.3301C12.7527 14.2233 12.6575 14.1324 12.5473 14.0627C12.4372 13.9929 12.3144 13.9456 12.1859 13.9236C12.0574 13.9015 11.9258 13.9052 11.7987 13.9342C11.6717 13.9633 11.5516 14.0173 11.4455 14.093C11.3386 14.168 11.2477 14.2635 11.1779 14.3738C11.1081 14.4841 11.0608 14.6072 11.0389 14.7359C11.0169 14.8646 11.0206 14.9964 11.0498 15.1237C11.079 15.2509 11.1331 15.3711 11.209 15.4774C11.3615 15.6914 11.5925 15.8362 11.8516 15.88C12.1106 15.9239 12.3765 15.8633 12.591 15.7115ZM10.6195 19.5821C10.7532 19.4976 10.8689 19.3875 10.96 19.2582C11.0511 19.129 11.1159 18.983 11.1506 18.8287C11.1852 18.6744 11.1891 18.5148 11.1621 18.359C11.135 18.2031 11.0775 18.0542 10.9928 17.9206C10.8221 17.6514 10.5515 17.461 10.2405 17.3914C9.92953 17.3217 9.60353 17.3785 9.33433 17.5491C9.06513 17.7198 8.87483 17.9904 8.80513 18.3014C8.73543 18.6125 8.79223 18.9384 8.96283 19.2076C9.13293 19.477 9.40293 19.6677 9.71363 19.738C10.0243 19.8082 10.3502 19.7521 10.6195 19.5821ZM9.68313 23.9388C9.86053 23.8457 10.0174 23.7179 10.1446 23.5631C10.2717 23.4082 10.3665 23.2294 10.4234 23.0373C10.4802 22.8452 10.498 22.6436 10.4756 22.4445C10.4531 22.2454 10.391 22.0528 10.2929 21.8781C10.1947 21.7035 10.0626 21.5502 9.90423 21.4275C9.74583 21.3048 9.56443 21.2151 9.37073 21.1638C9.17713 21.1124 8.97513 21.1004 8.77673 21.1285C8.57833 21.1565 8.38753 21.2241 8.21573 21.3272C7.87083 21.5225 7.61733 21.8465 7.51093 22.2284C7.40453 22.6102 7.45373 23.0187 7.64793 23.3642C7.84213 23.7098 8.16533 23.9643 8.54683 24.072C8.92833 24.1797 9.33693 24.1318 9.68313 23.9388ZM9.74103 28.3081C10.1337 28.1134 10.4329 27.7707 10.5729 27.3554C10.7129 26.9402 10.6822 26.4862 10.4875 26.0936C10.3917 25.8985 10.2582 25.7244 10.0947 25.5811C9.93133 25.4379 9.74113 25.3284 9.53513 25.259C9.32923 25.1896 9.11153 25.1617 8.89473 25.1768C8.67793 25.1919 8.46623 25.2498 8.27193 25.3471C8.07743 25.4432 7.90383 25.5767 7.76093 25.7399C7.61813 25.9032 7.50883 26.093 7.43943 26.2985C7.37003 26.5039 7.34173 26.7211 7.35623 26.9375C7.37083 27.154 7.42783 27.3654 7.52413 27.5598C7.71913 27.9528 8.06213 28.2524 8.47773 28.3927C8.89343 28.533 9.34783 28.5026 9.74103 28.3081ZM22.0677 40.6551C22.0932 40.7831 22.1436 40.9048 22.2162 41.0133C22.2887 41.1218 22.3819 41.2149 22.4904 41.2874C22.5989 41.3599 22.7207 41.4103 22.8487 41.4357C22.9767 41.4612 23.1085 41.4611 23.2365 41.4356C23.4947 41.3831 23.7215 41.2303 23.8673 41.0108C24.013 40.7912 24.0658 40.5229 24.014 40.2645C23.9616 40.0068 23.8093 39.7804 23.5904 39.6347C23.3715 39.489 23.1038 39.4358 22.8459 39.4869C22.5879 39.5389 22.3612 39.6911 22.2153 39.9101C22.0694 40.1291 22.0163 40.397 22.0677 40.6551ZM17.8113 39.7264C17.8499 39.8795 17.9184 40.0234 18.0128 40.15C18.1072 40.2765 18.2256 40.3832 18.3614 40.4638C18.4971 40.5445 18.6474 40.5975 18.8037 40.6198C18.96 40.6422 19.1192 40.6335 19.2721 40.5942C19.4249 40.5551 19.5686 40.4863 19.6949 40.3917C19.8212 40.2972 19.9276 40.1786 20.008 40.0429C20.0885 39.9072 20.1415 39.757 20.1639 39.6008C20.1863 39.4447 20.1777 39.2856 20.1387 39.1327C20.0996 38.9799 20.0308 38.8362 19.9362 38.71C19.8417 38.5837 19.7231 38.4773 19.5874 38.3968C19.4517 38.3163 19.3015 38.2634 19.1453 38.241C18.9892 38.2186 18.8301 38.2271 18.6773 38.2662C18.5245 38.3052 18.381 38.3739 18.2548 38.4684C18.1286 38.5629 18.0223 38.6813 17.9418 38.8169C17.8614 38.9525 17.8085 39.1026 17.7861 39.2587C17.7637 39.4147 17.7723 39.5736 17.8113 39.7264ZM13.8834 37.8308C13.9411 38.0189 14.0356 38.1938 14.1613 38.3452C14.287 38.4966 14.4415 38.6217 14.6158 38.7131C14.7901 38.8045 14.9808 38.8604 15.1768 38.8777C15.3729 38.895 15.5704 38.8733 15.758 38.8138C15.9461 38.7559 16.1209 38.6614 16.2724 38.5357C16.4238 38.41 16.549 38.2556 16.6406 38.0814C16.7322 37.9072 16.7885 37.7166 16.8063 37.5206C16.824 37.3246 16.8029 37.127 16.744 36.9392C16.6251 36.5598 16.3604 36.2431 16.0081 36.0587C15.6558 35.8742 15.2448 35.8371 14.8652 35.9555C14.6774 36.0138 14.5029 36.1087 14.3518 36.2346C14.2007 36.3605 14.076 36.515 13.9847 36.6892C13.8935 36.8635 13.8376 37.054 13.8202 37.2499C13.8028 37.4458 13.8243 37.6432 13.8834 37.8308ZM10.7503 35.0376C10.825 35.2415 10.9393 35.4286 11.0866 35.5881C11.2339 35.7476 11.4113 35.8764 11.6086 35.9671C11.8058 36.0578 12.0191 36.1086 12.2361 36.1166C12.4531 36.1245 12.6695 36.0895 12.8729 36.0135C13.2752 35.8554 13.5995 35.5459 13.7763 35.1514C13.953 34.7569 13.9681 34.3089 13.8183 33.9034C13.6684 33.4979 13.3656 33.1673 12.9749 32.9826C12.5841 32.7978 12.1364 32.7736 11.728 32.9151C11.3172 33.0673 10.9836 33.3763 10.8003 33.7742C10.617 34.1721 10.599 34.6265 10.7503 35.0376ZM34.389 36.4942C34.2352 36.6242 34.138 36.8089 34.1179 37.0092C34.0979 37.2096 34.1566 37.4098 34.2816 37.5677C34.4066 37.7255 34.5881 37.8285 34.7877 37.8549C34.9873 37.8813 35.1894 37.8289 35.3511 37.709C35.4345 37.6471 35.5047 37.5691 35.5573 37.4796C35.61 37.3901 35.6442 37.2909 35.6578 37.1879C35.6714 37.0849 35.6641 36.9803 35.6365 36.8802C35.6089 36.78 35.5614 36.6865 35.4969 36.6051C35.4325 36.5237 35.3523 36.456 35.2611 36.4062C35.17 36.3564 35.0698 36.3254 34.9664 36.315C34.8631 36.3047 34.7587 36.3152 34.6595 36.346C34.5603 36.3768 34.4683 36.4272 34.389 36.4942ZM27.1214 39.6272C26.9182 39.6579 26.7354 39.7678 26.6129 39.9329C26.4905 40.098 26.4384 40.3048 26.468 40.5082C26.4827 40.6089 26.5171 40.7057 26.5693 40.7931C26.6214 40.8805 26.6903 40.9567 26.7719 41.0175C26.8536 41.0782 26.9464 41.1222 27.0451 41.1471C27.1438 41.1719 27.2465 41.177 27.3471 41.1621C27.448 41.1476 27.5451 41.1134 27.6327 41.0613C27.7203 41.0093 27.7968 40.9404 27.8578 40.8588C27.9187 40.7771 27.963 40.6842 27.988 40.5854C28.013 40.4866 28.0183 40.3838 28.0035 40.283C27.9887 40.182 27.9542 40.0849 27.9018 39.9972C27.8495 39.9095 27.7804 39.8331 27.6984 39.7722C27.6165 39.7113 27.5234 39.6671 27.4243 39.6422C27.3253 39.6174 27.2224 39.6123 27.1214 39.6272ZM23.3487 8.49049C23.3339 8.38959 23.2993 8.29259 23.2469 8.20509C23.1945 8.11759 23.1254 8.04129 23.0434 7.98059C22.9614 7.91989 22.8683 7.87589 22.7693 7.85129C22.6703 7.82669 22.5675 7.82189 22.4666 7.83709C22.2633 7.86699 22.0803 7.97649 21.9577 8.14139C21.8351 8.30629 21.783 8.51319 21.813 8.71649C21.8429 8.91979 21.9524 9.10289 22.1173 9.22549C22.2822 9.34809 22.4891 9.40009 22.6924 9.37019C22.896 9.34049 23.0796 9.23109 23.2027 9.06619C23.3257 8.90119 23.3783 8.69409 23.3487 8.49049ZM15.5526 11.4151C15.4246 11.254 15.238 11.1502 15.0336 11.1264C14.8292 11.1025 14.6237 11.1606 14.4621 11.2879C14.3416 11.3831 14.2521 11.512 14.2049 11.6581C14.1577 11.8042 14.1549 11.961 14.1968 12.1088C14.2388 12.2565 14.3235 12.3885 14.4405 12.488C14.5574 12.5875 14.7012 12.6501 14.8538 12.6679C15.0063 12.6857 15.1607 12.6579 15.2974 12.5879C15.4341 12.518 15.547 12.4091 15.6218 12.275C15.6966 12.1409 15.7299 11.9876 15.7176 11.8345C15.7053 11.6815 15.6479 11.5355 15.5526 11.4151Z" fill="#020a18"/>
<path d="M45.4809 26.8023C44.8702 26.8015 44.2848 26.5582 43.8534 26.1259C43.422 25.6936 43.1799 25.1077 43.1804 24.497C43.1799 24.1946 43.2392 23.895 43.3548 23.6155C43.4705 23.336 43.6402 23.0821 43.8542 22.8684C44.0683 22.6547 44.3224 22.4854 44.6021 22.3702C44.8817 22.255 45.1814 22.1962 45.4839 22.1971C45.7863 22.1966 46.0859 22.2557 46.3655 22.3713C46.645 22.4868 46.899 22.6563 47.1128 22.8702C47.3267 23.0841 47.4962 23.3382 47.6116 23.6177C47.7271 23.8973 47.7862 24.1969 47.7856 24.4994C47.7852 25.1104 47.5423 25.6962 47.1101 26.1281C46.6779 26.5599 46.0919 26.8024 45.4809 26.8023ZM36.4401 6.9411C36.4752 6.7779 36.4777 6.6095 36.4475 6.4454C36.4173 6.2813 36.355 6.1248 36.264 5.9849C36.1731 5.845 36.0555 5.7244 35.9178 5.6301C35.7801 5.5358 35.6252 5.4697 35.4619 5.4355C35.2988 5.4 35.1303 5.3971 34.9661 5.4269C34.8019 5.4568 34.6452 5.5188 34.505 5.6095C34.3649 5.7001 34.2441 5.8176 34.1495 5.9551C34.0549 6.0926 33.9884 6.2474 33.9539 6.4107C33.8836 6.7404 33.9471 7.0846 34.1305 7.3674C34.3139 7.6503 34.6021 7.8487 34.9318 7.919C35.2615 7.9893 35.6057 7.9258 35.8885 7.7424C36.1714 7.559 36.3698 7.2708 36.4401 6.9411ZM40.9778 10.19C41.0097 9.9904 41.002 9.7864 40.9549 9.5899C40.9079 9.3933 40.8226 9.2079 40.7038 9.0444C40.585 8.8808 40.4351 8.7423 40.2627 8.6368C40.0904 8.5312 39.8988 8.4607 39.6992 8.4293C39.3002 8.3753 38.896 8.4796 38.5729 8.7199C38.2499 8.9601 38.0337 9.3173 37.9706 9.7149C37.9076 10.1125 38.0026 10.5191 38.2355 10.8475C38.4684 11.1759 38.8205 11.4001 39.2166 11.4722C39.6201 11.5351 40.0321 11.4355 40.3623 11.1951C40.6924 10.9547 40.9138 10.5933 40.9778 10.19ZM46.9011 19.2827C46.916 19.0051 46.8759 18.7274 46.7833 18.4653C46.6907 18.2033 46.5472 17.9621 46.3612 17.7556C46.1752 17.5491 45.9502 17.3814 45.6992 17.262C45.4482 17.1426 45.1762 17.0739 44.8986 17.0598C44.621 17.0445 44.3431 17.0842 44.0808 17.1766C43.8186 17.269 43.5772 17.4123 43.3705 17.5982C43.1638 17.7842 42.9958 18.0092 42.8763 18.2602C42.7567 18.5112 42.688 18.7834 42.6739 19.0611C42.6568 19.3401 42.6951 19.6198 42.7867 19.8839C42.8782 20.148 43.0212 20.3914 43.2073 20.6C43.3934 20.8086 43.619 20.9782 43.871 21.0991C44.1231 21.22 44.3966 21.2898 44.6757 21.3044C44.9549 21.3191 45.2342 21.2783 45.4975 21.1844C45.7608 21.0905 46.0029 20.9453 46.2098 20.7574C46.4167 20.5694 46.5843 20.3423 46.7029 20.0892C46.8216 19.8361 46.8889 19.5619 46.9011 19.2827ZM25.8329 3.9233C25.8329 3.4103 25.4178 3 24.9066 3C24.6673 3.0086 24.4407 3.1097 24.2744 3.282C24.1082 3.4544 24.0153 3.6845 24.0153 3.9239C24.0153 4.1633 24.1082 4.3934 24.2744 4.5658C24.4407 4.7381 24.6673 4.8392 24.9066 4.8478C25.4178 4.8478 25.8329 4.4351 25.8329 3.9233ZM34.9333 41.0801C34.7699 41.1148 34.615 41.1814 34.4773 41.276C34.3396 41.3707 34.2219 41.4915 34.131 41.6316C33.9472 41.9146 33.8834 42.259 33.9536 42.589C34.0238 42.919 34.2222 43.2076 34.5051 43.3913C34.7881 43.5751 35.1325 43.6389 35.4625 43.5687C35.7925 43.4985 36.0811 43.3001 36.2648 43.0172C36.4486 42.7342 36.5124 42.3898 36.4422 42.0598C36.372 41.7298 36.1737 41.4412 35.8907 41.2575C35.6077 41.0737 35.2633 41.0099 34.9333 41.0801ZM39.2166 37.529C39.0154 37.5587 38.822 37.628 38.6477 37.7329C38.4733 37.8378 38.3215 37.9761 38.201 38.14C38.0805 38.3039 37.9936 38.4901 37.9455 38.6878C37.8974 38.8854 37.8889 39.0907 37.9205 39.2916C37.9521 39.4926 38.0233 39.6853 38.1299 39.8586C38.2364 40.0319 38.3763 40.1824 38.5413 40.3013C38.7064 40.4202 38.8934 40.5053 39.0915 40.5515C39.2896 40.5977 39.4949 40.6042 39.6956 40.5707C40.0958 40.5037 40.4533 40.2814 40.6906 39.9522C40.9278 39.623 41.0254 39.2135 40.9623 38.8126C40.8992 38.4118 40.6804 38.0521 40.3535 37.8117C40.0266 37.5714 39.618 37.4698 39.2166 37.529ZM42.5246 32.879C42.0186 32.9322 41.5544 33.1843 41.2342 33.5798C40.9139 33.9753 40.764 34.4818 40.8172 34.9878C40.8704 35.4939 41.1225 35.9581 41.5179 36.2783C41.9134 36.5985 42.4199 36.7485 42.926 36.6953C43.1768 36.6694 43.42 36.5943 43.6417 36.4742C43.8634 36.3542 44.0592 36.1915 44.2179 35.9956C44.3766 35.7997 44.495 35.5743 44.5665 35.3325C44.6379 35.0907 44.6608 34.8372 44.634 34.5865C44.5806 34.0804 44.3284 33.6162 43.9328 33.296C43.5373 32.9759 43.0307 32.8259 42.5246 32.879ZM44.6734 27.7125C44.1136 27.743 43.5888 27.9943 43.214 28.4112C42.8392 28.8281 42.645 29.3766 42.6739 29.9365C42.6879 30.2142 42.7566 30.4864 42.8761 30.7375C42.9956 30.9886 43.1636 31.2136 43.3703 31.3996C43.577 31.5855 43.8185 31.7288 44.0807 31.8212C44.343 31.9136 44.6209 31.9532 44.8986 31.9378C45.1761 31.9237 45.4481 31.8549 45.699 31.7355C45.9499 31.616 46.1748 31.4483 46.3608 31.2418C46.5468 31.0353 46.6902 30.7941 46.7828 30.5321C46.8754 30.2701 46.9154 29.9924 46.9005 29.7149C46.8701 29.1543 46.6185 28.6286 46.201 28.2532C45.7835 27.8778 45.2341 27.6833 44.6734 27.7125ZM24.9066 44.1516C24.6655 44.1577 24.4364 44.2578 24.2681 44.4304C24.0998 44.6031 24.0056 44.8347 24.0056 45.0758C24.0056 45.3169 24.0998 45.5485 24.2681 45.7212C24.4364 45.8938 24.6655 45.9939 24.9066 46C25.1517 46 25.3868 45.9026 25.5601 45.7293C25.7334 45.556 25.8308 45.3209 25.8308 45.0758C25.8308 44.8307 25.7334 44.5956 25.5601 44.4223C25.3868 44.249 25.1517 44.1516 24.9066 44.1516ZM4.33107 26.8023C4.94147 26.801 5.52647 26.5576 5.95757 26.1253C6.38867 25.6931 6.63067 25.1075 6.63037 24.497C6.63077 24.1949 6.57167 23.8957 6.45627 23.6165C6.34087 23.3372 6.17157 23.0835 5.95797 22.8699C5.74437 22.6562 5.49077 22.4868 5.21157 22.3714C4.93237 22.2559 4.63317 22.1967 4.33107 22.1971C4.02847 22.1967 3.72867 22.256 3.44907 22.3716C3.16937 22.4871 2.91517 22.6567 2.70117 22.8706C2.48707 23.0845 2.31727 23.3385 2.20147 23.6181C2.08567 23.8977 2.02617 24.1974 2.02637 24.5C2.02757 25.1106 2.27087 25.6959 2.70297 26.1274C3.13497 26.559 3.72037 26.8017 4.33107 26.8023ZM14.8798 7.9181C15.2097 7.848 15.4982 7.6498 15.6818 7.367C15.8655 7.0842 15.9293 6.74 15.8592 6.4101C15.8247 6.2469 15.7583 6.092 15.6637 5.9545C15.5692 5.817 15.4484 5.6995 15.3084 5.6088C15.1683 5.5181 15.0117 5.4559 14.8476 5.4258C14.6834 5.3958 14.515 5.3985 14.3519 5.4337C14.1887 5.4683 14.034 5.5348 13.8966 5.6293C13.7591 5.7237 13.6416 5.8443 13.5508 5.9842C13.46 6.124 13.3976 6.2804 13.3671 6.4444C13.3367 6.6084 13.3389 6.7767 13.3736 6.9399C13.4083 7.103 13.4747 7.2577 13.5692 7.3952C13.6636 7.5326 13.7842 7.6501 13.9241 7.7409C14.064 7.8318 14.2204 7.8942 14.3843 7.9246C14.5483 7.955 14.7167 7.9528 14.8798 7.9181ZM10.5977 11.471C11.0014 11.4068 11.3631 11.1851 11.6034 10.8544C11.8437 10.5237 11.943 10.1112 11.8794 9.7074C11.8477 9.5075 11.777 9.3159 11.6712 9.1434C11.5654 8.9709 11.4267 8.821 11.2628 8.7022C11.099 8.5834 10.9134 8.4981 10.7165 8.4512C10.5197 8.4043 10.3155 8.3967 10.1158 8.4287C9.91607 8.4602 9.72467 8.5308 9.55237 8.6363C9.37997 8.7419 9.23017 8.8804 9.11147 9.0439C8.99277 9.2075 8.90747 9.3928 8.86047 9.5894C8.81347 9.7859 8.80577 9.9898 8.83767 10.1894C8.90117 10.5927 9.12217 10.9543 9.45227 11.1947C9.78237 11.435 10.1944 11.5344 10.5977 11.471ZM7.28727 16.1198C7.78437 16.0554 8.23647 15.7993 8.54727 15.406C8.85797 15.0128 9.00257 14.5136 8.95027 14.0152C8.89797 13.5167 8.65287 13.0585 8.26727 12.7383C7.88167 12.4182 7.38607 12.2615 6.88657 12.3017C6.63567 12.3277 6.39227 12.4029 6.17057 12.5231C5.94877 12.6433 5.75297 12.8062 5.59427 13.0023C5.43567 13.1984 5.31727 13.4239 5.24607 13.6659C5.17477 13.9079 5.15207 14.1615 5.17907 14.4123C5.20527 14.6629 5.28057 14.9059 5.40067 15.1274C5.52087 15.3489 5.68347 15.5445 5.87927 15.7031C6.07507 15.8616 6.30017 15.9801 6.54177 16.0516C6.78337 16.1231 7.03667 16.1463 7.28727 16.1198ZM5.13847 21.2857C5.69907 21.256 6.22477 21.0048 6.60027 20.5876C6.97577 20.1703 7.17027 19.6211 7.14097 19.0605C7.12687 18.7825 7.05797 18.5101 6.93817 18.2589C6.81847 18.0077 6.65027 17.7826 6.44327 17.5965C6.23627 17.4105 5.99457 17.2672 5.73197 17.1749C5.46937 17.0826 5.19117 17.0431 4.91337 17.0586C4.63587 17.073 4.36387 17.1419 4.11307 17.2615C3.86217 17.381 3.63737 17.5488 3.45147 17.7553C3.26557 17.9618 3.12217 18.203 3.02947 18.465C2.93677 18.7269 2.89667 19.0046 2.91147 19.2821C2.94127 19.843 3.19257 20.3692 3.61017 20.7449C4.02777 21.1207 4.57747 21.3152 5.13847 21.2857ZM13.3736 42.0583C13.3389 42.2216 13.3367 42.3901 13.3671 42.5542C13.3975 42.7183 13.4599 42.8748 13.5508 43.0148C13.6417 43.1547 13.7593 43.2754 13.8969 43.37C14.0344 43.4645 14.1892 43.531 14.3525 43.5657C14.5157 43.6004 14.6842 43.6026 14.8483 43.5722C15.0124 43.5418 15.1689 43.4794 15.3089 43.3885C15.4489 43.2976 15.5696 43.18 15.6641 43.0425C15.7586 42.9049 15.8251 42.7501 15.8598 42.5869C15.9296 42.2571 15.8656 41.9132 15.682 41.6305C15.4983 41.3479 15.21 41.1497 14.8804 41.0795C14.5509 41.0102 14.2073 41.0743 13.9249 41.2578C13.6425 41.4412 13.4443 41.7291 13.3736 42.0583ZM8.83827 38.8082C8.80607 39.0079 8.81357 39.2119 8.86037 39.4086C8.90727 39.6053 8.99247 39.7908 9.11127 39.9545C9.22997 40.1181 9.37997 40.2567 9.55247 40.3623C9.72487 40.4678 9.91657 40.5382 10.1164 40.5695C10.417 40.6173 10.7251 40.5749 11.0016 40.4477C11.2782 40.3204 11.5108 40.114 11.67 39.8546C11.8292 39.5951 11.908 39.2943 11.8962 38.9901C11.8844 38.6859 11.7827 38.392 11.6039 38.1456C11.4251 37.8993 11.1773 37.7114 10.8917 37.6059C10.6062 37.5004 10.2958 37.4819 9.99967 37.5529C9.70367 37.6238 9.43527 37.7809 9.22857 38.0044C9.02187 38.2278 8.88597 38.5076 8.83827 38.8082ZM5.17907 34.5877C5.15217 34.8383 5.17497 35.0917 5.24617 35.3335C5.31747 35.5753 5.43587 35.8006 5.59447 35.9965C5.75307 36.1924 5.94877 36.355 6.17037 36.475C6.39207 36.595 6.63527 36.6701 6.88597 36.6959C7.13657 36.7227 7.39007 36.6998 7.63187 36.6284C7.87357 36.5571 8.09897 36.4388 8.29487 36.2802C8.49087 36.1217 8.65357 35.926 8.77377 35.7044C8.89397 35.4828 8.96927 35.2397 8.99537 34.989C9.02167 34.7383 8.99837 34.4849 8.92667 34.2432C8.85507 34.0015 8.73657 33.7763 8.57787 33.5804C8.41927 33.3846 8.22357 33.2219 8.00197 33.1016C7.78047 32.9814 7.53737 32.9059 7.28667 32.8796C7.03607 32.8531 6.78277 32.8762 6.54107 32.9477C6.29947 33.0192 6.07427 33.1377 5.87857 33.2964C5.68277 33.4551 5.52017 33.6508 5.40017 33.8724C5.28017 34.0939 5.20507 34.337 5.17907 34.5877ZM2.91147 29.7143C2.89657 29.9918 2.93657 30.2695 3.02917 30.5315C3.12177 30.7935 3.26517 31.0347 3.45117 31.2412C3.63707 31.4477 3.86197 31.6154 4.11287 31.7349C4.36377 31.8543 4.63577 31.9231 4.91337 31.9372C5.19117 31.953 5.46947 31.9137 5.73207 31.8215C5.99467 31.7293 6.23647 31.5861 6.44357 31.4001C6.65057 31.2141 6.81877 30.9889 6.93847 30.7376C7.05817 30.4864 7.12697 30.2139 7.14097 29.9359C7.16977 29.3756 6.97507 28.8267 6.59967 28.4098C6.22427 27.9928 5.69877 27.7418 5.13847 27.7119C4.57787 27.6832 4.02877 27.8778 3.61137 28.2532C3.19397 28.6285 2.94227 29.1539 2.91147 29.7143ZM29.9746 43.4158C29.7203 43.4843 29.5035 43.6508 29.3717 43.8788C29.2399 44.1069 29.204 44.3778 29.2717 44.6324C29.3402 44.8865 29.5068 45.103 29.735 45.2344C29.9631 45.3658 30.234 45.4012 30.4882 45.3329C30.6144 45.2996 30.7328 45.2417 30.8366 45.1626C30.9404 45.0834 31.0275 44.9845 31.093 44.8716C31.1585 44.7587 31.201 44.6339 31.2182 44.5045C31.2353 44.3751 31.2267 44.2436 31.1929 44.1176C31.1244 43.863 30.9575 43.646 30.7291 43.5144C30.5006 43.3828 30.2292 43.3474 29.9746 43.4158ZM19.8373 43.4158C19.5853 43.3542 19.3191 43.3937 19.0958 43.5259C18.8725 43.6581 18.7099 43.8725 18.6427 44.1231C18.5756 44.3738 18.6092 44.6407 18.7365 44.8669C18.8638 45.093 19.0746 45.2603 19.3237 45.3329C19.4506 45.3699 19.5836 45.3812 19.7149 45.3661C19.8462 45.3509 19.9732 45.3098 20.0884 45.2449C20.2036 45.1801 20.3046 45.0929 20.3857 44.9885C20.4667 44.8841 20.5261 44.7645 20.5603 44.6368C20.5945 44.5092 20.6028 44.376 20.5849 44.245C20.5669 44.1141 20.5229 43.988 20.4556 43.8743C20.3883 43.7606 20.2989 43.6614 20.1927 43.5827C20.0866 43.504 19.9657 43.4472 19.8373 43.4158ZM31.1935 4.8818C31.2272 4.7557 31.2356 4.6242 31.2183 4.4948C31.2011 4.3655 31.1585 4.2408 31.0929 4.1279C31.0274 4.015 30.9403 3.9161 30.8365 3.837C30.7328 3.7578 30.6144 3.6999 30.4882 3.6665C30.2383 3.611 29.9765 3.6541 29.7576 3.7869C29.5387 3.9197 29.3796 4.132 29.3134 4.3793C29.2472 4.6266 29.2791 4.89 29.4024 5.1144C29.5257 5.3388 29.7309 5.5069 29.9752 5.5836C30.1013 5.6176 30.2328 5.6265 30.3623 5.6096C30.4918 5.5928 30.6167 5.5506 30.7299 5.4854C30.8431 5.4202 30.9423 5.3334 31.0218 5.2298C31.1014 5.1262 31.1597 5.008 31.1935 4.8818ZM20.5421 4.3664C20.5082 4.2404 20.4498 4.1222 20.3702 4.0188C20.2906 3.9153 20.1914 3.8286 20.0782 3.7636C19.965 3.6986 19.8401 3.6565 19.7106 3.6399C19.5812 3.6232 19.4497 3.6322 19.3237 3.6665C19.1978 3.6999 19.0798 3.7578 18.9763 3.837C18.8728 3.9161 18.7859 4.0148 18.7206 4.1275C18.6553 4.2402 18.6129 4.3647 18.5958 4.4938C18.5787 4.623 18.5872 4.7542 18.6208 4.8801C18.6545 5.0062 18.7128 5.1245 18.7922 5.2281C18.8716 5.3318 18.9707 5.4188 19.0838 5.4841C19.1968 5.5495 19.3216 5.5919 19.4511 5.609C19.5805 5.6262 19.7121 5.6176 19.8382 5.5839C19.9644 5.5502 20.0827 5.4919 20.1863 5.4125C20.29 5.333 20.3769 5.234 20.4423 5.1209C20.5077 5.0079 20.5501 4.8831 20.5672 4.7536C20.5843 4.6242 20.5758 4.4926 20.5421 4.3664Z" fill="#020a18"/>
</g>
</svg>
