<svg width="93" height="24" viewBox="0 0 93 24" fill="none" xmlns="http://www.w3.org/2000/svg">
<g clip-path="url(#clip0_2219_13)">
<path fill-rule="evenodd" clip-rule="evenodd" d="M20.1936 20.4192C21.867 22.4865 24.4517 24 27.1538 24C30.0396 24 32.6416 22.3596 34.3643 20.1186C36.1212 17.8182 36.9831 14.9152 36.9831 12.0383C36.9831 9.0345 36.0378 5.9898 34.1388 3.6391C32.4905 1.5984 29.9226 0.0671005 27.2456 0.0671005C24.3342 0.0671005 21.716 1.6818 19.9759 3.9402C18.2112 6.2405 17.3577 9.1436 17.3577 12.0294C17.3577 15.0326 18.2867 18.0695 20.1936 20.4192ZM8.1395 0.560799H0V0.7943H2.1419L10.549 23.7818L17.7763 0.7943H19.7172V0.560799H15.3254V0.7943H17.3414L12.2135 17.4243L6.1403 0.7943H8.1395V0.560799ZM54.801 8.1479V0.158901H54.619C54.058 0.577101 53.406 1.0539 52.678 1.0539C52.093 1.0539 51.499 0.861899 50.955 0.660999L50.478 0.476898C49.825 0.217198 49.131 0 48.428 0C46.63 0 44.94 0.794298 43.543 1.8738C40.431 4.2744 38.967 8.3819 38.967 12.2219C38.967 17.4746 42.129 23.807 48.068 23.807C49.364 23.807 50.486 23.4313 51.657 22.9125L52.176 22.6282C52.752 22.3103 53.396 22.0758 54.058 22.0758C54.969 22.0758 55.68 22.5694 56.133 23.3222H56.291V14.0868H58.081V13.845H50.427V14.0868H52.518V20.2612C52.518 20.6709 52.501 21.0718 52.283 21.4316C51.439 22.8123 49.748 23.6155 48.159 23.6155C46.16 23.6155 45.081 22.6706 44.336 20.7465C43.274 18.0028 43.04 14.9833 43.04 12.055C43.04 8.7842 43.475 0.209801 48.26 0.209801C50.343 0.209801 51.941 2.0328 52.944 3.6559C53.789 5.0444 54.274 6.5752 54.617 8.1479H54.801ZM65.25 0.560799H57.086V0.7943H59.319V17.7086C59.319 21.9085 63.368 23.69 67.04 23.69C70.286 23.69 73.749 22.0753 73.749 18.4288V0.7943H77.798V23.0878H75.882V23.3222H92.354V14.6644H92.169C92.128 15.5011 92.06 16.3457 91.919 17.174C91.659 18.6549 90.914 20.0267 89.844 21.0806C88.589 22.3182 86.824 23.0878 85.05 23.0878H81.629V11.7781C82.039 11.7445 82.44 11.7194 82.85 11.7194C85.452 11.7194 86.43 14.0952 86.79 16.3116H87V7.0348H86.79C86.665 9.4778 85.92 11.4518 83.051 11.4518C82.574 11.4518 82.097 11.4183 81.629 11.3684V0.7943H83.912C86.029 0.7943 88.087 0.961598 89.601 2.6765C91.098 4.3746 91.516 6.6083 91.759 8.7832H91.918V0.560299H70.846V0.7943H73.405V18.3622C73.405 21.1147 71.138 22.988 68.444 22.988C65.944 22.988 63.083 21.2978 63.083 18.5212V0.7948H65.25V0.560799ZM27.1706 0.409599C31.6627 0.409599 32.8504 8.7081 32.8504 12.0293C32.8504 15.3504 31.6627 23.6563 27.1706 23.6568C22.6702 23.6568 21.4904 15.3583 21.4904 12.0293C21.4904 8.6997 22.6618 0.409599 27.1706 0.409599Z" fill="#020a18"/>
</g>
<defs>
<clipPath id="clip0_2219_13">
<rect width="93" height="24" fill="white"/>
</clipPath>
</defs>
</svg>
