<svg width="176" height="16" viewBox="0 0 176 16" fill="none" xmlns="http://www.w3.org/2000/svg">
<g clip-path="url(#clip0_2219_6)">
<path d="M174.21 13.3734C173.69 13.3734 173.263 13.801 173.263 14.3689C173.263 14.9368 173.69 15.3644 174.21 15.3644C174.73 15.3644 175.158 14.9368 175.158 14.3689C175.158 13.801 174.73 13.3734 174.21 13.3734ZM140.41 15.3131H144.717V14.9334L144.245 14.8376C143.818 14.7418 143.629 14.5058 143.629 13.89V8.11861H144.625C145.241 8.11861 145.573 8.26232 145.621 9.58632L145.716 12.2855C145.812 14.7486 146.52 15.4089 147.704 15.4089C148.936 15.4089 149.219 14.605 149.219 13.4213V12.9492H148.792V13.3289C148.792 14.1329 148.696 14.6529 148.364 14.6529C148.08 14.6529 148.08 14.4647 147.984 13.4692L147.841 11.6218C147.653 9.11421 147.369 8.26231 145.521 7.88261C147.273 7.41051 148.361 6.13101 148.361 4.28371C148.361 1.86841 146.466 0.732616 144.669 0.732616H137.427V1.11232L137.855 1.20811C138.611 1.39631 138.659 1.77601 138.659 3.47971V11.9502C138.659 13.8455 138.139 14.7418 136.907 14.7418C135.819 14.7418 135.251 14.2218 135.251 12.1384V2.10101C135.251 1.48521 135.439 1.34501 135.915 1.24921L136.483 1.10551V0.677914H132.032V1.05761L132.504 1.20132C132.932 1.34502 133.072 1.48521 133.072 2.10101V11.9947C133.072 14.2184 134.352 15.45 136.339 15.45C138.327 15.45 139.274 14.2184 139.274 11.9468V2.71682C139.274 1.58102 139.511 1.15342 140.458 1.15342C141.214 1.15342 141.498 1.38941 141.498 2.10101V13.89C141.498 14.5058 141.31 14.6939 140.882 14.7897L140.41 14.9334V15.3131ZM168.908 2.05661C168.908 1.44081 169.096 1.25262 169.523 1.20472L170.091 1.06102V0.681316H165.688V1.06102L166.161 1.20472C166.588 1.34842 166.776 1.48862 166.776 2.10442V13.9858C166.776 14.5537 166.54 14.8855 165.877 14.8855C165.121 14.8855 165.025 14.6494 164.741 13.37L162.042 0.636814H161.19L158.586 12.9457C158.302 14.3176 158.159 14.6494 157.546 14.7931L157.167 14.8889V15.2687H160.198V14.8889L159.77 14.7931C159.154 14.6494 158.966 14.321 159.298 12.7097L160.813 4.85152L162.469 13.1818C162.705 14.4134 162.705 14.6494 161.806 14.7897L161.378 14.8855V15.2652H172.643V10.4381H172.216C172.028 12.6618 171.552 14.7931 169.753 14.7931H168.901L168.908 2.05661ZM162.281 11.3823V10.8144H159.394L159.298 11.3823H162.281ZM150.448 2.34052V12.4702C150.448 13.9858 150.448 14.7418 149.692 14.8376L149.312 14.8855V15.2652H152.435V14.8855C151.063 14.6973 151.063 14.2218 151.063 12.566V2.90842L150.543 2.43631L155.75 15.2173H156.65V3.52422C156.65 1.77262 156.65 1.39291 157.502 1.15681L157.786 1.06102V0.681316H154.567V1.06102L154.946 1.15681C156.034 1.34501 156.034 1.77262 156.034 3.38052V10.7665L156.222 10.7187L152.292 0.681316H149.261V1.06102L149.544 1.15681C149.88 1.25261 150.068 1.63232 150.448 2.34052ZM143.629 1.20472H144.481C145.333 1.20472 146.137 1.77261 146.137 4.51971C146.137 7.35921 145.521 7.59521 144.338 7.59521H143.626V1.20472H143.629ZM129.473 7.83472C129.473 13.9892 128.953 14.841 127.865 14.841C126.777 14.841 126.257 13.9892 126.257 7.88261C126.257 1.96421 126.777 1.11232 127.865 1.11232C128.953 1.15682 129.473 2.01212 129.473 7.83472ZM131.796 7.97501C131.796 3.90391 130.517 0.541016 127.865 0.541016C125.214 0.541016 123.934 3.90051 123.934 7.97501C123.934 12.046 125.214 15.4089 127.865 15.4089C130.564 15.4089 131.796 12.046 131.796 7.97501ZM122.706 2.05661C122.706 1.44081 122.85 1.25261 123.274 1.15681L123.746 1.01311V0.681316H119.343V1.06102L119.863 1.20472C120.291 1.30052 120.527 1.44081 120.527 2.05661V12.2821C120.527 13.7018 120.383 14.8376 119.343 14.8376C118.68 14.8376 118.16 14.3176 118.16 13.9379C118.208 13.2742 119.343 13.3221 119.391 12.2821C119.439 11.526 118.964 11.1942 118.539 11.1463C117.876 11.0505 117.072 11.6184 117.072 12.7097C117.072 14.1294 117.972 15.4089 119.579 15.4089C121.331 15.4089 122.703 14.2252 122.703 11.9537L122.706 2.05661ZM51.7913 2.05661C51.7913 1.44081 51.9794 1.25262 52.4071 1.20472L52.975 1.06102V0.681316H48.5721V1.06102L49.0442 1.20472C49.4718 1.34842 49.66 1.48862 49.66 2.10442V13.9858C49.66 14.5537 49.4239 14.8855 48.7602 14.8855C48.0042 14.8855 47.8605 14.6494 47.5766 13.37L44.8773 0.636814H44.0255L41.4221 12.9457C41.1381 14.3176 40.9944 14.6494 40.3821 14.7931L40.0023 14.8889V15.2687H43.0334V14.8889L42.6058 14.7931C41.99 14.6494 41.8018 14.321 42.1337 12.7097L43.6492 4.80362L45.305 13.1818C45.541 14.4134 45.541 14.6494 44.6413 14.7897L44.2137 14.8855V15.2652H55.4792V10.4381H55.0516C54.8634 12.6618 54.3879 14.7931 52.5884 14.7931H51.7366V2.06002H51.7913V2.05661ZM110.917 1.20472H111.389C112.713 1.20472 113.141 3.28812 113.285 5.55972H113.712V0.684715H105.994V5.51181H106.422C106.566 3.28811 107.038 1.15681 108.317 1.15681H108.789V13.8455C108.789 14.4613 108.601 14.6494 108.174 14.7452L107.606 14.8889V15.2687H112.197V14.8889L111.533 14.7452C111.106 14.6494 110.917 14.5092 110.917 13.8455V1.20472ZM101.212 7.97501H101.876C102.823 7.97501 103.107 8.35471 103.295 10.6742H103.723V4.75571H103.295C103.059 6.60311 102.823 7.40712 101.876 7.40712H101.212V1.15681H102.679C104.335 1.15681 104.667 3.24021 104.903 5.51181H105.331V0.684715H97.945V1.06441L98.417 1.20811C98.889 1.35181 99.033 1.63571 99.033 2.10791V13.8968C99.033 14.5126 98.844 14.7008 98.417 14.7965L97.945 14.9402V15.32H105.519V10.4929H105.091C104.855 12.7165 104.571 14.8479 102.628 14.8479H101.161L101.212 7.97501ZM93.213 7.97501H93.877C94.825 7.97501 95.109 8.35471 95.297 10.6742H95.724V4.75571H95.297C95.061 6.60311 94.825 7.40712 93.877 7.40712H93.213V1.15681H94.681C96.337 1.15681 96.669 3.24021 96.905 5.51181H97.332V0.684715H89.806V1.06441L90.47 1.20811C90.942 1.35181 91.086 1.63571 91.086 2.10791V13.8968C91.086 14.5126 90.897 14.7008 90.47 14.7965L89.998 14.9402V15.32H97.524V10.4929H97.096C96.86 12.7165 96.576 14.8479 94.633 14.8479H93.213V7.97501ZM84.456 1.20472H85.071C85.923 1.20472 86.727 1.77261 86.727 4.51971C86.727 7.31131 86.111 7.59521 84.928 7.59521H84.456V1.20472ZM81.236 15.3131H85.543V14.9334L85.071 14.8376C84.644 14.7418 84.456 14.5058 84.456 13.89V8.11861H85.259C85.875 8.11861 86.207 8.35472 86.255 9.58632L86.351 12.2855C86.447 14.7486 87.155 15.4089 88.338 15.4089C89.57 15.4089 89.854 14.605 89.854 13.4213V12.9492H89.426V13.3289C89.426 14.1329 89.331 14.6529 88.999 14.6529C88.715 14.6529 88.715 14.4647 88.619 13.4692L88.475 11.5739C88.287 9.01841 87.955 8.21442 86.156 7.83472C87.907 7.36262 88.995 6.08311 88.995 4.23581C88.995 1.82051 87.1 0.684715 85.304 0.684715H81.233V1.06441L81.705 1.20811C82.133 1.35181 82.321 1.49211 82.321 2.10791V13.8968C82.321 14.5126 82.133 14.7008 81.705 14.7965L81.233 14.9402V15.3131H81.236ZM78.0171 1.20472H78.4892C79.8131 1.20472 80.2408 3.28812 80.3845 5.55972H80.8121V0.684715H73.0942V5.51181H73.5184C73.6621 3.28811 74.1342 1.15681 75.4137 1.15681H75.8858V13.8455C75.8858 14.4613 75.6976 14.6494 75.27 14.7452L74.7021 14.8889V15.2687H79.2008V14.8889L78.6329 14.7452C78.065 14.6015 78.0171 14.1773 78.0171 13.8455V1.20472ZM73.0942 11.526C73.0942 7.17102 68.3116 6.03521 68.3116 2.86391C68.3116 2.20021 68.5476 1.16021 69.6355 1.16021C71.151 1.16021 71.7189 3.14792 72.0029 5.51522H72.4305V0.688114H72.1945C72.0987 1.16021 71.9105 1.35181 71.6266 1.35181C71.1544 1.35181 70.8705 0.595814 69.7313 0.595814C67.9318 0.595814 66.7002 2.11132 66.7002 4.09892C66.7002 7.69792 71.4829 9.21002 71.4829 12.525C71.4829 14.0405 70.7713 14.8923 69.8271 14.8923C68.4073 14.8923 67.4597 13.2365 67.2237 10.5373H66.796V15.3644H67.0321C67.2202 14.6529 67.5042 14.6084 67.7437 14.6084C68.1713 14.6084 68.5476 15.4602 69.8271 15.4602C71.671 15.4089 73.0942 13.7497 73.0942 11.526ZM59.1739 2.05661C59.1739 1.44081 59.3621 1.25262 59.7897 1.20472L60.3576 1.06102V0.681316H55.9547V1.06102L56.4268 1.20472C56.8544 1.34842 57.0426 1.48862 57.0426 2.10442V13.8934C57.0426 14.5092 56.8544 14.6973 56.4268 14.7931L55.9547 14.9368V15.3166H62.9131V10.4894H62.4855C62.2973 12.7131 61.8218 14.8444 60.0223 14.8444H59.1705V2.05661H59.1739ZM45.1613 11.3823V10.8144H42.2739L42.1781 11.3823H45.1613ZM32.8523 15.361H33.7042L35.6918 4.89941H35.4079L37.5871 15.361H38.3431L40.9466 3.05212C41.2305 1.77262 41.3742 1.30052 41.8942 1.20472L42.3218 1.10891V0.681316H39.3387V1.06102L39.7663 1.15681C40.3821 1.30051 40.5702 1.67682 40.2384 3.24022L38.5826 11.4781H38.8187L37.115 2.76812C36.9268 1.96422 36.831 1.25262 37.5426 1.11232L38.0147 1.01651V0.684715H33.8958V1.06441L34.1797 1.11232C34.6073 1.20812 34.6518 1.49212 34.8434 2.29602L35.5071 5.46732L35.3634 3.57212L33.8958 11.29H34.0839L32.3802 2.81601C32.1921 1.96421 32.1442 1.30051 32.8079 1.16021L33.1397 1.11232V0.684715H28.9729V1.06441L29.4005 1.16021C29.7802 1.25601 30.0163 1.44421 30.2523 2.62791L32.8523 15.361ZM21.5389 7.97501H22.2026C23.1502 7.97501 23.4342 8.35471 23.6223 10.6742H24.05V4.75571H23.6223C23.3863 6.60311 23.1502 7.40712 22.2026 7.40712H21.5389V1.15681H23.0066C24.6623 1.15681 24.9942 3.24021 25.2302 5.51181H25.6579V0.684715H18.3197V1.06441L18.7918 1.20811C19.2639 1.35181 19.4076 1.63571 19.4076 2.10791V13.8968C19.4076 14.5126 19.2194 14.7008 18.7918 14.7965L18.3197 14.9402V15.32H25.846V10.4929H25.4184C25.1823 12.7165 24.8984 14.8479 22.9552 14.8479H21.4876V7.98521H21.5389V7.97501ZM8.19 15.3131H12.545V14.9334L12.0729 14.8376C11.6931 14.7418 11.4571 14.5058 11.4571 13.89V8.11861H14.6763V13.8934C14.6763 14.5092 14.4402 14.7452 14.0605 14.841L13.5884 14.9368V15.3166H17.9434V14.9368L17.4713 14.7931C17.0437 14.6973 16.8555 14.4613 16.8555 13.8455V2.05661C16.8555 1.44081 17.0437 1.25261 17.4713 1.15681L17.9434 1.01311V0.681316H13.5884V1.06102L14.0605 1.20472C14.4402 1.30052 14.6763 1.44081 14.6763 2.05661V7.50291H11.4571V2.06002C11.4571 1.44422 11.6931 1.30391 12.0729 1.20811L12.545 1.06441V0.684715H8.19V1.06441L8.6621 1.20811C9.0897 1.35181 9.2779 1.49211 9.2779 2.10791V13.8968C9.2779 14.5126 9.0897 14.7008 8.6621 14.7965L8.19 14.9402V15.3131ZM4.9229 1.20472H5.395C6.7189 1.20472 7.1466 3.28812 7.2902 5.55972H7.7179V0.684715H0V5.51181H0.427601C0.571301 3.28811 1.0434 1.15681 2.3229 1.15681H2.795V13.8455C2.795 14.4613 2.6068 14.6494 2.1792 14.7452L1.6113 14.8889V15.2687H6.2023V14.8889L5.5387 14.7452C5.111 14.6494 4.9229 14.5092 4.9229 13.8455V1.20472Z" fill="#020a18"/>
</g>
<defs>
<clipPath id="clip0_2219_6">
<rect width="176" height="16" fill="white"/>
</clipPath>
</defs>
</svg>
